ply
format ascii 1.0
element vertex 352
property float x
property float y
property float z
property float nx
property float ny
property float nz
element face 700
property list uchar int vertex_indices
end_header
-20.7594 55.3135 -27.1641 -0.00599131 0.804044 -0.594539
-21.6621 56.0292 -16.2083 -0.138326 0.990385 0.0015892
-23.8054 55.36 -9.07643 -0.0903753 0.995896 -0.00487977
-25.0658 55.6784 -3.1685 0.0121395 0.98612 -0.165589
-23.8069 57.351 1.60492 -0.0131078 0.961646 -0.273981
-26.9319 59.1384 9.8175 -0.165408 0.867527 0.469081
-12.125 57.5116 -25.7998 -0.0351876 0.79381 -0.607147
-14.305 56.3901 -17.1654 -0.105846 0.993619 0.0389532
-15.6588 55.9431 -10.2277 -0.0858262 0.994998 0.0511113
-17.9378 55.23 -1.81435 -0.0574367 0.988452 -0.140224
-18.8901 57.2303 4.55781 -0.000175518 0.950812 -0.309767
-18.985 59.7872 11.4037 -0.124989 0.859063 0.496375
-2.93634 58.1782 -25.5073 0.00708659 0.687456 -0.726191
-3.65795 57.3546 -18.7427 -0.125613 0.989293 0.0743055
-4.97921 57.0172 -11.0465 -0.131664 0.991263 0.00794645
-7.77712 56.4596 -1.34946 -0.145156 0.983135 -0.111249
-9.47882 58.819 5.45244 -0.104172 0.950578 -0.292488
-11.2499 60.4744 12.9542 -0.221559 0.845199 0.486365
4.32884 59.4504 -24.0405 -0.046193 0.699891 -0.712754
2.6339 58.6888 -16.5143 -0.25615 0.966114 0.0317922
2.51622 58.1042 -10.1869 -0.276626 0.960451 -0.0318238
0.166122 58.4267 -1.82672 -0.255603 0.958964 -0.122696
-2.07078 59.3519 5.48112 -0.156121 0.962073 -0.223701
-3.22099 61.8488 14.5428 -0.167347 0.840678 0.515029
12.7355 60.5736 -23.6422 0.755859 0.564311 -0.33201
11.1467 60.784 -15.5118 0.44229 0.893827 0.0738456
8.64553 60.9924 -8.03692 0.426036 0.897674 0.112584
7.9645 61.3461 -0.256513 0.392701 0.91863 0.0436393
6.3372 61.9874 7.52188 0.445599 0.895191 -0.00860921
5.02028 62.5971 16.9263 0.10323 0.844227 0.52595
-18.2444 47.9731 -27.2236 0.0672549 -0.117942 -0.99074
-10.9646 49.3062 -27.0422 0.0975941 0.0226882 -0.994968
-2.29716 50.5484 -25.6439 0.163453 0.0439857 -0.98557
5.72669 51.5061 -23.8005 0.171389 -0.0012835 -0.985202
13.814 52.9109 -22.8211 0.747391 0.0651315 -0.661184
-25.1279 38.2689 -25.6716 -0.573544 -0.207784 -0.792384
-17.8007 39.5973 -25.5807 0.00223584 -0.173632 -0.984808
-10.5096 41.4651 -26.0506 0.0319788 -0.118389 -0.992452
-0.771649 42.9416 -25.4156 0.166407 -0.0351485 -0.985431
6.98752 43.9411 -23.5483 0.185273 -0.0161737 -0.982554
14.3992 44.4874 -22.4669 0.778236 0.0209156 -0.627623
-23.2705 29.8856 -24.3917 -0.600071 -0.261923 -0.755851
-15.7374 31.8194 -24.2417 -0.0334441 -0.121088 -0.992078
-8.90798 33.5882 -25.0283 -0.035005 -0.0685515 -0.997033
0.112345 34.5434 -25.0401 0.12997 -0.00272976 -0.991514
7.79675 36.1633 -23.0334 0.197737 -0.000130592 -0.980255
15.219 36.5765 -22.1949 0.806649 0.0726375 -0.58655
-22.1359 22.2883 -23.0319 -0.711698 -0.24742 -0.657471
-14.6145 24.1458 -23.4846 -0.114166 -0.0960045 -0.988812
-7.29658 25.6202 -25.0456 -0.0705025 -0.0406446 -0.996683
1.36139 26.4018 -25.3469 0.104094 -0.0203821 -0.994359
8.89949 27.8441 -23.3612 0.213402 0.0301077 -0.9765
16.5774 29.0892 -21.7224 0.818022 0.120362 -0.562452
-20.303 14.0689 -21.7439 -0.789787 -0.254035 -0.558302
-13.5912 16.1873 -22.9638 -0.201539 -0.125911 -0.971354
-5.91204 17.5306 -25.2113 -0.103701 -0.00102594 -0.994608
2.66026 18.0412 -24.3821 0.143375 0.0392362 -0.98889
10.0511 19.5595 -22.8264 0.183187 -0.0244927 -0.982773
17.642 21.2216 -21.8456 0.8332 0.0689566 -0.548656
-19.0466 6.14561 -20.5297 -0.829726 -0.257202 -0.49538
-12.1836 8.18325 -21.8947 -0.288783 -0.165438 -0.942992
-4.69043 9.35197 -24.9603 -0.20883 -0.0336446 -0.977373
4.24869 10.8533 -25.6288 0.142323 0.128356 -0.981463
11.1938 12.6378 -22.7033 0.246781 0.102822 -0.963601
18.2458 13.8553 -21.7562 0.858908 0.120562 -0.497737
-17.4143 -1.48414 -19.2796 -0.856017 -0.250887 -0.451985
-10.3516 0.3158 -20.5992 -0.347001 -0.210187 -0.914009
-3.81436 1.12664 -25.0754 -0.3207 -0.12558 -0.938819
5.80254 1.47852 -26.5619 0.102305 0.039283 -0.993977
13.8129 4.49564 -23.4237 0.331277 0.102417 -0.937959
19.8215 5.94647 -21.2381 0.863102 0.219046 -0.455053
-16.0221 -9.21386 -18.2278 -0.868472 -0.172778 -0.464654
-8.96839 -7.63783 -19.5196 -0.317153 -0.196774 -0.927736
-2.23919 -6.84241 -23.8447 -0.364496 -0.26582 -0.892459
7.13389 -6.96948 -26.2464 0.0453134 -0.152164 -0.987316
15.2391 -4.2184 -23.2117 0.342446 -0.00424644 -0.939528
21.6116 -2.53824 -20.8443 0.87925 0.128087 -0.458817
-15.1584 -16.8258 -17.116 -0.852504 -0.174095 -0.492876
-7.73932 -15.459 -18.6157 -0.266455 -0.169308 -0.948861
-0.319118 -14.813 -21.8393 -0.289624 -0.257457 -0.921864
8.1576 -14.1151 -23.853 -0.0186463 -0.291874 -0.956275
16.159 -12.7109 -22.3527 0.268823 -0.139429 -0.953045
23.384 -10.8561 -20.2435 0.879873 0.115613 -0.460931
-14.1491 -24.3688 -16.224 -0.839742 -0.171725 -0.515116
-6.49281 -23.3989 -17.6343 -0.23584 -0.161109 -0.958344
1.12536 -22.5075 -20.4736 -0.212341 -0.210498 -0.954255
9.29437 -21.5647 -21.4889 0.00429988 -0.239572 -0.970869
17.2042 -20.2928 -20.544 0.176669 -0.201365 -0.963452
24.6658 -18.7324 -19.4206 0.857854 0.0615038 -0.510201
-12.9963 -32.0327 -15.5291 -0.813299 -0.158178 -0.559933
-5.25213 -31.197 -16.7787 -0.191791 -0.14779 -0.970244
2.47485 -30.2971 -18.9987 -0.157068 -0.206229 -0.965815
10.6557 -29.1894 -19.7272 0.020687 -0.216385 -0.976089
18.4659 -27.9054 -18.9316 0.144069 -0.170133 -0.974833
25.9236 -26.0576 -17.9313 0.813055 0.0485567 -0.580158
-11.8803 -39.823 -14.8958 -0.782832 -0.159159 -0.601534
-3.96053 -39.0205 -15.9054 -0.136406 -0.146414 -0.979774
3.82535 -38.0179 -17.554 -0.0937365 -0.210555 -0.973078
11.7876 -36.728 -17.8259 0.0187035 -0.225711 -0.974015
19.6655 -35.4966 -17.4498 0.100764 -0.171463 -0.980024
27.3427 -33.7607 -16.7674 0.77034 0.0453253 -0.63602
-10.7072 -47.639 -14.3212 -0.749439 -0.158462 -0.642831
-2.82939 -46.7914 -14.9899 -0.0738636 -0.133338 -0.988314
5.25826 -45.8032 -15.8225 -0.0370916 -0.190518 -0.980983
12.9039 -44.3966 -15.7795 0.0118916 -0.211746 -0.977252
20.7964 -43.1216 -16.0585 0.0400874 -0.172344 -0.984221
28.6223 -41.5612 -15.6788 0.736225 0.0338589 -0.675889
-9.46185 -55.4701 -13.7411 -0.720897 -0.162193 -0.673796
-1.57718 -54.6156 -14.0385 -0.0285813 -0.112882 -0.993197
6.43659 -53.5633 -14.3601 -0.00969383 -0.144028 -0.989526
14.0836 -51.9422 -14.3439 0.00848049 -0.14924 -0.988765
22.031 -50.7601 -14.7299 -0.00500742 -0.153744 -0.988098
29.9627 -49.3101 -14.8261 0.71072 0.026556 -0.702974
-8.20088 -63.3767 -13.1139 -0.57178 -0.777056 -0.263156
-0.261369 -62.3864 -13.2362 0.09394 -0.768909 -0.63242
7.66624 -61.2259 -13.3632 0.119123 -0.776692 -0.618514
15.4714 -59.7933 -13.5114 0.121051 -0.778401 -0.615986
23.3738 -58.5133 -13.6698 0.111614 -0.773284 -0.624159
31.286 -57.0689 -13.9049 0.46881 -0.432409 -0.770221
12.9113 53.4115 -14.7657 0.971488 0.232837 0.0446999
12.7137 53.7761 -7.08596 0.903518 0.386515 0.185096
10.2421 54.0213 1.16707 0.89177 0.357638 0.277203
7.57244 54.4763 7.77472 0.947447 0.236734 0.215179
6.06883 55.6729 15.5542 0.628944 0.127625 0.766903
14.6202 45.4328 -14.4455 0.997986 0.0526905 -0.0353073
15.5544 46.0307 -6.44803 0.98895 0.106916 0.102697
12.8784 46.1362 2.36522 0.922755 0.198354 0.330424
9.22632 46.786 9.28878 0.937464 0.236896 0.255032
8.03867 47.8222 16.4249 0.559789 0.213379 0.800691
14.4531 36.8149 -14.1238 0.998372 0.0438089 0.0365194
14.528 37.5191 -6.45972 0.993699 -0.0566092 0.0967311
12.8162 38.0252 2.00347 0.973907 -0.0330699 0.224525
10.6675 38.2298 9.34761 0.97504 0.121615 0.185759
10.1002 39.543 17.2394 0.617353 0.181193 0.765535
15.2089 29.327 -13.3882 0.984928 0.126289 0.118189
14.512 29.2979 -6.26628 0.984255 0.0910289 0.151514
12.2993 29.632 1.61505 0.981612 0.0641804 0.179773
11.6067 30.4529 9.5736 0.99358 0.087759 0.0713947
11.4419 31.5947 17.4901 0.647333 0.110097 0.754214
16.0596 22.1587 -13.3714 0.986284 0.113218 0.120105
15.3031 21.8076 -5.75669 0.978539 0.179405 0.101369
13.9842 21.9618 1.86649 0.947758 0.260477 0.184135
12.4619 22.9427 9.61544 0.976994 0.204906 0.0591258
12.4774 23.67 18.2391 0.630776 0.142824 0.762708
16.5494 14.5188 -13.0193 0.98711 0.134378 0.0869248
16.72 14.0829 -5.96923 0.989131 0.133122 0.0624288
16.5578 14.9904 2.92961 0.980353 0.185729 0.0664226
14.3936 16.1066 10.4661 0.937816 0.328124 0.113299
14.0397 17.2889 18.6351 0.600935 0.260418 0.755684
17.9489 7.09244 -12.5686 0.963009 0.256152 0.0836669
18.3426 7.10728 -5.38405 0.953408 0.287485 0.0914644
16.1181 6.56755 2.93049 0.977539 0.208142 0.0330804
17.3593 8.54956 12.1253 0.97166 0.235367 0.0218811
15.9544 9.80458 19.2439 0.579067 0.286708 0.763204
20.8534 -1.0565 -12.3625 0.977951 0.202932 0.0492984
20.4091 -0.525575 -4.64677 0.973035 0.221841 0.0631658
19.7153 -0.501013 4.46208 0.963674 0.248749 0.0972394
19.0354 0.824838 12.0982 0.976903 0.21238 -0.0235598
18.3874 1.94748 19.8833 0.650477 0.258331 0.714244
21.3922 -9.55295 -11.972 0.990477 0.101996 0.0924801
21.9827 -8.55499 -4.06682 0.99706 0.0354515 0.0679354
20.2249 -7.96777 5.01273 0.992188 0.0820217 0.093999
19.6398 -7.39318 11.9789 0.991666 0.121491 -0.0428875
20.4035 -6.04403 20.1273 0.774005 0.171002 0.60965
22.753 -17.3633 -10.9751 0.955413 0.217297 0.199918
20.9396 -16.952 -3.0917 0.989147 0.0882842 0.117446
20.1509 -15.9085 5.20692 0.998637 0.0510252 0.0109288
20.7338 -14.9503 12.4599 0.981054 0.146417 -0.126869
22.2609 -13.9142 20.5868 0.792413 0.208622 0.5732
24.623 -25.2219 -9.95184 0.951874 0.249658 0.177783
22.6462 -24.7571 -1.97233 0.945668 0.281178 0.163252
21.186 -23.9973 5.59947 0.967759 0.25028 -0.0283317
22.4837 -22.315 13.5914 0.963317 0.205961 -0.17205
23.9791 -21.4986 21.589 0.78155 0.245541 0.573489
26.5395 -33.0731 -8.96028 0.956822 0.269412 0.109124
24.8227 -32.4853 -1.00451 0.929926 0.355747 0.0931714
24.2178 -31.3604 6.86409 0.92596 0.377429 -0.0120128
24.8235 -29.9841 14.7705 0.949632 0.284124 -0.132183
25.6036 -29.0132 22.7079 0.742944 0.261533 0.616145
28.3883 -40.7272 -7.88617 0.977619 0.209721 0.0166889
28.0843 -39.684 -0.00132203 0.957603 0.287592 0.0169319
28.0081 -38.6344 8.32231 0.941277 0.337607 0.00442965
27.27 -37.513 16.0957 0.95438 0.296445 -0.0357536
27.5784 -36.6011 23.7949 0.68866 0.271039 0.672522
29.9669 -48.5876 -6.87148 0.984471 0.175333 -0.00865034
29.857 -47.5725 1.10645 0.981755 0.190052 -0.00615013
29.7297 -46.636 9.26869 0.979918 0.199391 -0.00203052
29.356 -45.4929 17.164 0.974758 0.223257 0.00179335
29.3386 -44.5341 24.8511 0.688658 0.245881 0.682124
31.2589 -56.3874 -5.95397 0.813481 -0.578266 0.0621022
31.1823 -55.4196 2.05871 0.818451 -0.569532 0.0759653
31.1153 -54.4379 10.0807 0.823413 -0.561841 0.0795376
31.0227 -53.3983 17.9883 0.826081 -0.555764 0.0933608
31.0126 -52.392 25.8328 0.774943 -0.480512 0.410574
-1.41714 54.1565 14.9166 -0.0336078 0.0657593 0.997269
-9.62276 52.7211 15.2927 -0.123288 0.242297 0.962337
-18.7208 52.6682 13.3237 -0.22323 0.263642 0.938435
-25.208 51.1824 12.6076 -0.162937 0.221865 0.961367
0.118985 46.3341 15.7407 0.0141009 0.05024 0.998638
-7.62203 45.332 17.469 0.0614435 0.0773376 0.99511
-17.1644 44.5623 16.6802 -0.210991 0.195339 0.957771
-24.9917 43.7103 13.7344 -0.240929 0.190153 0.951733
-31.7718 41.6806 13.3187 -0.821946 -0.0475467 0.567577
1.85946 38.4706 16.3481 -0.0889623 0.0836312 0.992518
-5.63268 37.1477 15.9674 0.105751 0.047087 0.993277
-14.3406 36.7351 17.3091 -0.0413303 0.0738966 0.996409
-23.3229 35.5642 16.005 -0.239494 0.137671 0.961088
-30.4264 33.8451 14.37 -0.83512 -0.0689427 0.54573
2.95831 31.0913 17.2175 -0.0138064 0.0598046 0.998115
-3.94784 29.2285 17.0012 0.0616581 0.174519 0.982721
-12.1663 28.8389 18.697 0.0183761 0.167217 0.985749
-21.105 27.5362 17.6776 -0.193793 0.132382 0.97207
-28.6405 25.7955 15.9178 -0.851139 -0.089231 0.5173
4.46234 23.3306 16.8619 0.0627611 0.0439933 0.997059
-2.78382 21.6148 18.6775 0.153271 0.180804 0.971503
-10.2226 21.0031 19.9932 -0.000933357 0.190086 0.981767
-18.882 19.7844 19.1185 -0.178595 0.115505 0.97712
-27.1344 17.7774 17.241 -0.824844 -0.105237 0.555479
5.76979 15.3714 17.0334 0.0405385 0.12868 0.990857
-0.993907 14.3833 19.6862 0.287714 0.203866 0.935767
-8.75635 13.5542 21.8338 -0.0378052 0.219253 0.974935
-16.6389 12.1124 20.2765 -0.200842 0.117237 0.972583
-24.7827 9.83948 18.6952 -0.796139 -0.146075 0.587217
7.42204 8.46458 18.8151 0.019942 0.210775 0.977331
1.06696 6.58813 20.6957 0.310569 0.255922 0.915451
-7.03281 5.38334 24.2386 -0.014557 0.222994 0.974711
-14.782 4.11876 21.5866 -0.273342 0.124447 0.953833
-22.4493 2.14831 20.0108 -0.818671 -0.128579 0.559684
9.47643 0.697536 20.6347 0.0658211 0.216535 0.974054
2.68935 -0.987773 22.4129 0.288662 0.216202 0.932701
-5.07017 -2.87775 26.1263 0.0352386 0.17293 0.984304
-13.0936 -4.02791 23.1704 -0.327531 0.115456 0.93776
-20.6733 -5.58089 21.1231 -0.848796 -0.109844 0.517185
11.7064 -6.89929 22.7671 0.154173 0.15065 0.976491
4.63055 -8.82155 23.3656 0.202975 0.172656 0.963842
-3.36565 -10.5671 26.5027 0.104845 0.0749884 0.991657
-11.3033 -12.229 24.9249 -0.283924 0.0640417 0.956706
-18.8234 -13.4339 22.3206 -0.871758 -0.0943954 0.480758
13.7778 -14.9219 22.6936 0.238722 0.10229 0.965685
6.40191 -16.5674 24.372 0.167017 0.126161 0.977849
-1.48616 -18.3364 26.5177 0.0882523 0.0426336 0.995185
-9.56419 -20.074 25.5146 -0.187629 0.00288444 0.982236
-17.2516 -21.5704 23.5572 -0.860682 -0.126405 0.493203
15.8318 -22.8296 23.0191 0.217228 0.112389 0.969629
8.19811 -24.3477 25.5361 0.184661 0.0904956 0.978627
0.346812 -26.1612 26.4194 0.0341244 0.0364756 0.998752
-7.61939 -27.9087 25.7237 -0.135669 -0.00148174 0.990753
-15.3572 -29.2361 24.2213 -0.816389 -0.148495 0.558084
17.5136 -30.4804 23.742 0.140772 0.107772 0.984159
10.0053 -32.2155 25.3114 0.179048 0.0394299 0.98305
2.11887 -33.983 26.4822 0.0463809 -0.00104889 0.998923
-5.82208 -35.6945 25.975 -0.0997473 0.0067659 0.99499
-13.4969 -36.9618 24.8836 -0.786936 -0.133616 0.602394
19.3509 -38.1989 24.2261 0.0703367 0.103209 0.99217
11.6533 -40.1167 25.3347 0.117407 0.0359661 0.992432
3.98468 -41.9814 26.1683 0.0697402 -0.00986188 0.997516
-3.98648 -43.5608 26.1453 -0.0485451 0.00590866 0.998803
-11.7362 -45.0116 25.3883 -0.757925 -0.118042 0.641573
21.4276 -46.0236 25.1283 0.0126288 0.119256 0.992783
13.5159 -47.7638 25.4548 0.0397845 0.0788952 0.996089
5.74795 -49.5176 25.8317 0.0467068 0.0312911 0.998418
-2.10199 -51.3218 26.2194 0.0050608 0.0256898 0.999657
-10.0262 -52.8068 26.0334 -0.720457 -0.113092 0.684217
23.0717 -53.7055 26.0567 0.145592 -0.604015 0.783562
15.2265 -55.6145 26.2139 0.159099 -0.615985 0.771525
7.44858 -57.3063 26.4069 0.160843 -0.630148 0.759633
-0.40073 -59.0102 26.5636 0.146974 -0.649768 0.745788
-8.3184 -60.575 26.6711 -0.329834 -0.440427 0.835005
-34.6324 57.3774 10.2964 -0.900989 0.301818 0.311648
-33.5814 56.4306 1.78475 -0.69188 0.685581 -0.226454
-32.1374 54.8786 -4.60409 -0.736403 0.610041 -0.292509
-30.3877 54.5576 -12.9093 -0.792342 0.559987 -0.242092
-28.7087 53.9072 -20.4605 -0.829894 0.540161 -0.139651
-27.1191 54.943 -29.3569 -0.421283 0.594116 -0.685234
-32.4525 49.5245 11.7368 -0.780545 0.00475397 0.625082
-32.9766 48.6377 2.51168 -0.987119 -0.156589 0.0327863
-32.8561 46.6673 -4.09064 -0.980736 -0.0528067 -0.188066
-30.5308 46.3958 -11.3821 -0.949893 -0.0531958 -0.308015
-27.5141 46.4399 -19.7393 -0.958426 -0.122418 -0.257746
-26.0247 46.1587 -27.1195 -0.597935 -0.239445 -0.764944
-31.3005 40.5548 4.72086 -0.975354 -0.214403 0.052123
-31.8915 38.8645 -3.12322 -0.957222 -0.276479 -0.0853549
-29.8046 38.1476 -11.032 -0.91743 -0.285798 -0.276842
-26.8684 38.1907 -18.8135 -0.937237 -0.22162 -0.269206
-29.1652 32.8718 6.47162 -0.965831 -0.258401 -0.0199643
-29.2107 31.3137 -1.85276 -0.93499 -0.331738 -0.125471
-26.205 30.964 -9.5934 -0.881543 -0.397328 -0.254976
-23.9365 30.4291 -17.0946 -0.926601 -0.345029 -0.149553
-27.0993 25.4176 7.68818 -0.961027 -0.265374 -0.0774803
-26.8529 23.7649 0.022155 -0.935053 -0.318363 -0.155952
-23.7318 23.5418 -7.6575 -0.89616 -0.341996 -0.28273
-21.5721 22.8774 -15.5056 -0.952881 -0.296744 -0.0629399
-25.1877 17.4227 9.44336 -0.955485 -0.261857 -0.135938
-24.4881 16.2457 1.6129 -0.928917 -0.32305 -0.180975
-21.5195 15.919 -6.12038 -0.901459 -0.337224 -0.271388
-19.3549 15.3722 -13.9803 -0.96448 -0.263187 -0.0226055
-23.2348 9.69888 10.8243 -0.946881 -0.291428 -0.135967
-22.0628 8.51377 3.29947 -0.922027 -0.303926 -0.239781
-18.831 8.36927 -4.73131 -0.905354 -0.343292 -0.24997
-17.1886 7.71207 -12.5026 -0.963504 -0.263394 0.0477743
-20.7812 2.22474 12.139 -0.940398 -0.317902 -0.120792
-20.2746 0.973525 4.3512 -0.918823 -0.320567 -0.230221
-16.4873 0.755033 -2.76565 -0.925638 -0.280594 -0.253894
-15.0748 0.120707 -11.1739 -0.978827 -0.194311 0.0643454
-18.6679 -5.52869 13.4672 -0.92971 -0.30178 -0.211113
-17.3888 -6.33114 5.57832 -0.912522 -0.37112 -0.171971
-14.284 -6.78773 -1.98101 -0.947495 -0.271561 -0.168844
-14.2722 -7.62569 -9.63972 -0.986911 -0.128817 0.0970157
-16.7394 -13.5166 14.5986 -0.92532 -0.236286 -0.296568
-13.7981 -13.9464 7.3087 -0.936189 -0.290172 -0.198367
-12.4249 -14.4535 -1.14348 -0.971567 -0.232701 -0.0436841
-13.2511 -15.3892 -8.91726 -0.97751 -0.127563 0.167935
-15.1271 -21.4733 15.4205 -0.940333 -0.192316 -0.280693
-12.397 -21.8671 7.99225 -0.958204 -0.1617 -0.236004
-11.2185 -22.3634 -0.245656 -0.991458 -0.130335 0.00495246
-12.2873 -23.2006 -8.28073 -0.979071 -0.100066 0.177219
-13.8037 -29.4134 16.1712 -0.952938 -0.191534 -0.234997
-11.5139 -29.7934 8.52246 -0.969242 -0.137843 -0.203887
-10.3197 -30.2895 0.446478 -0.995471 -0.0943305 0.0117558
-11.6525 -31.1046 -7.61999 -0.982995 -0.0869815 0.161725
-12.438 -37.3617 16.9086 -0.970716 -0.168123 -0.171594
-10.3196 -37.7112 9.09238 -0.983146 -0.0890387 -0.159675
-9.76514 -38.2341 1.0087 -0.998481 -0.0545466 0.00773094
-10.8791 -38.9885 -6.98508 -0.987197 -0.0863514 0.13411
-11.0486 -45.2284 17.4756 -0.982965 -0.164668 -0.0816352
-10.2528 -45.4089 9.67111 -0.993223 -0.0752561 -0.0885665
-9.9495 -46.0468 1.51675 -0.99929 -0.0353193 -0.0131235
-10.211 -46.7742 -6.39875 -0.994222 -0.0842527 0.0665141
-9.78408 -53.1169 18.0419 -0.98305 -0.181832 -0.0234485
-9.59661 -53.583 10.0933 -0.990337 -0.136652 -0.023651
-9.43417 -54.2242 2.08736 -0.993898 -0.109809 -0.0104364
-9.29137 -54.8084 -5.86339 -0.992709 -0.119377 0.0166595
-8.25526 -60.9938 18.6873 -0.558431 -0.828411 0.0434838
-8.23721 -61.5286 10.7195 -0.579893 -0.812725 0.056595
-8.17472 -62.1516 2.70251 -0.594088 -0.802476 0.0556041
-8.17878 -62.771 -5.18079 -0.60431 -0.794418 0.060897
-0.324903 -61.6826 -5.25533 0.147179 -0.985147 0.0884512
7.68571 -60.4166 -5.39077 0.171797 -0.980561 0.0947964
15.4205 -58.8648 -5.49857 0.171891 -0.979928 0.100965
23.3785 -57.7368 -5.65282 0.160881 -0.980955 0.108831
-0.289912 -60.9556 2.71151 0.162268 -0.983154 0.0841239
7.6592 -59.598 2.63231 0.17661 -0.97863 0.105315
15.4648 -58.1987 2.42188 0.176076 -0.978342 0.108827
23.3408 -56.8198 2.27131 0.170751 -0.979017 0.111223
-0.251895 -60.3655 10.6213 0.175692 -0.980519 0.0878293
7.66378 -58.755 10.5825 0.198593 -0.974705 0.102521
15.3792 -57.1134 10.3522 0.185329 -0.974702 0.124939
23.3133 -55.8609 10.2538 0.166966 -0.976577 0.135719
-0.302908 -59.5977 18.6153 0.189655 -0.978631 0.0794533
7.54166 -57.8592 18.4688 0.2097 -0.97359 0.0902651
15.3519 -56.2256 18.3021 0.210562 -0.972381 0.100687
23.1769 -54.613 18.1884 0.172621 -0.976411 0.129708
3 273 272 1
3 272 271 2
3 271 270 3
3 270 269 4
3 269 268 5
3 0 1 7
3 1 2 8
3 2 3 9
3 3 4 10
3 4 5 11
3 6 7 13
3 7 8 14
3 8 9 15
3 9 10 16
3 10 11 17
3 12 13 19
3 13 14 20
3 14 15 21
3 15 16 22
3 16 17 23
3 18 19 25
3 19 20 26
3 20 21 27
3 21 22 28
3 22 23 29
3 273 0 30
3 0 6 31
3 6 12 32
3 12 18 33
3 18 24 34
3 279 30 36
3 30 31 37
3 31 32 38
3 32 33 39
3 33 34 40
3 35 36 42
3 36 37 43
3 37 38 44
3 38 39 45
3 39 40 46
3 41 42 48
3 42 43 49
3 43 44 50
3 44 45 51
3 45 46 52
3 47 48 54
3 48 49 55
3 49 50 56
3 50 51 57
3 51 52 58
3 53 54 60
3 54 55 61
3 55 56 62
3 56 57 63
3 57 58 64
3 59 60 66
3 60 61 67
3 61 62 68
3 62 63 69
3 63 64 70
3 65 66 72
3 66 67 73
3 67 68 74
3 68 69 75
3 69 70 76
3 71 72 78
3 72 73 79
3 73 74 80
3 74 75 81
3 75 76 82
3 77 78 84
3 78 79 85
3 79 80 86
3 80 81 87
3 81 82 88
3 83 84 90
3 84 85 91
3 85 86 92
3 86 87 93
3 87 88 94
3 89 90 96
3 90 91 97
3 91 92 98
3 92 93 99
3 93 94 100
3 95 96 102
3 96 97 103
3 97 98 104
3 98 99 105
3 99 100 106
3 101 102 108
3 102 103 109
3 103 104 110
3 104 105 111
3 105 106 112
3 107 108 114
3 108 109 115
3 109 110 116
3 110 111 117
3 111 112 118
3 24 25 119
3 25 26 120
3 26 27 121
3 27 28 122
3 28 29 123
3 34 119 124
3 119 120 125
3 120 121 126
3 121 122 127
3 122 123 128
3 40 124 129
3 124 125 130
3 125 126 131
3 126 127 132
3 127 128 133
3 46 129 134
3 129 130 135
3 130 131 136
3 131 132 137
3 132 133 138
3 52 134 139
3 134 135 140
3 135 136 141
3 136 137 142
3 137 138 143
3 58 139 144
3 139 140 145
3 140 141 146
3 141 142 147
3 142 143 148
3 64 144 149
3 144 145 150
3 145 146 151
3 146 147 152
3 147 148 153
3 70 149 154
3 149 150 155
3 150 151 156
3 151 152 157
3 152 153 158
3 76 154 159
3 154 155 160
3 155 156 161
3 156 157 162
3 157 158 163
3 82 159 164
3 159 160 165
3 160 161 166
3 161 162 167
3 162 163 168
3 88 164 169
3 164 165 170
3 165 166 171
3 166 167 172
3 167 168 173
3 94 169 174
3 169 170 175
3 170 171 176
3 171 172 177
3 172 173 178
3 100 174 179
3 174 175 180
3 175 176 181
3 176 177 182
3 177 178 183
3 106 179 184
3 179 180 185
3 180 181 186
3 181 182 187
3 182 183 188
3 112 184 189
3 184 185 190
3 185 186 191
3 186 187 192
3 187 188 193
3 29 23 194
3 23 17 195
3 17 11 196
3 11 5 197
3 5 268 274
3 123 194 198
3 194 195 199
3 195 196 200
3 196 197 201
3 197 274 202
3 128 198 203
3 198 199 204
3 199 200 205
3 200 201 206
3 201 202 207
3 133 203 208
3 203 204 209
3 204 205 210
3 205 206 211
3 206 207 212
3 138 208 213
3 208 209 214
3 209 210 215
3 210 211 216
3 211 212 217
3 143 213 218
3 213 214 219
3 214 215 220
3 215 216 221
3 216 217 222
3 148 218 223
3 218 219 224
3 219 220 225
3 220 221 226
3 221 222 227
3 153 223 228
3 223 224 229
3 224 225 230
3 225 226 231
3 226 227 232
3 158 228 233
3 228 229 234
3 229 230 235
3 230 231 236
3 231 232 237
3 163 233 238
3 233 234 239
3 234 235 240
3 235 236 241
3 236 237 242
3 168 238 243
3 238 239 244
3 239 240 245
3 240 241 246
3 241 242 247
3 173 243 248
3 243 244 249
3 244 245 250
3 245 246 251
3 246 247 252
3 178 248 253
3 248 249 254
3 249 250 255
3 250 251 256
3 251 252 257
3 183 253 258
3 253 254 259
3 254 255 260
3 255 256 261
3 256 257 262
3 188 258 263
3 258 259 264
3 259 260 265
3 260 261 266
3 261 262 267
3 268 269 275
3 269 270 276
3 270 271 277
3 271 272 278
3 272 273 279
3 274 275 280
3 275 276 281
3 276 277 282
3 277 278 283
3 278 279 35
3 202 280 284
3 280 281 285
3 281 282 286
3 282 283 287
3 283 35 41
3 207 284 288
3 284 285 289
3 285 286 290
3 286 287 291
3 287 41 47
3 212 288 292
3 288 289 293
3 289 290 294
3 290 291 295
3 291 47 53
3 217 292 296
3 292 293 297
3 293 294 298
3 294 295 299
3 295 53 59
3 222 296 300
3 296 297 301
3 297 298 302
3 298 299 303
3 299 59 65
3 227 300 304
3 300 301 305
3 301 302 306
3 302 303 307
3 303 65 71
3 232 304 308
3 304 305 309
3 305 306 310
3 306 307 311
3 307 71 77
3 237 308 312
3 308 309 313
3 309 310 314
3 310 311 315
3 311 77 83
3 242 312 316
3 312 313 317
3 313 314 318
3 314 315 319
3 315 83 89
3 247 316 320
3 316 317 321
3 317 318 322
3 318 319 323
3 319 89 95
3 252 320 324
3 320 321 325
3 321 322 326
3 322 323 327
3 323 95 101
3 257 324 328
3 324 325 329
3 325 326 330
3 326 327 331
3 327 101 107
3 262 328 332
3 328 329 333
3 329 330 334
3 330 331 335
3 331 107 113
3 113 114 336
3 114 115 337
3 115 116 338
3 116 117 339
3 117 118 189
3 335 336 340
3 336 337 341
3 337 338 342
3 338 339 343
3 339 189 190
3 334 340 344
3 340 341 345
3 341 342 346
3 342 343 347
3 343 190 191
3 333 344 348
3 344 345 349
3 345 346 350
3 346 347 351
3 347 191 192
3 332 348 266
3 348 349 265
3 349 350 264
3 350 351 263
3 351 192 193
3 273 1 0
3 272 2 1
3 271 3 2
3 270 4 3
3 269 5 4
3 0 7 6
3 1 8 7
3 2 9 8
3 3 10 9
3 4 11 10
3 6 13 12
3 7 14 13
3 8 15 14
3 9 16 15
3 10 17 16
3 12 19 18
3 13 20 19
3 14 21 20
3 15 22 21
3 16 23 22
3 18 25 24
3 19 26 25
3 20 27 26
3 21 28 27
3 22 29 28
3 273 30 279
3 0 31 30
3 6 32 31
3 12 33 32
3 18 34 33
3 279 36 35
3 30 37 36
3 31 38 37
3 32 39 38
3 33 40 39
3 35 42 41
3 36 43 42
3 37 44 43
3 38 45 44
3 39 46 45
3 41 48 47
3 42 49 48
3 43 50 49
3 44 51 50
3 45 52 51
3 47 54 53
3 48 55 54
3 49 56 55
3 50 57 56
3 51 58 57
3 53 60 59
3 54 61 60
3 55 62 61
3 56 63 62
3 57 64 63
3 59 66 65
3 60 67 66
3 61 68 67
3 62 69 68
3 63 70 69
3 65 72 71
3 66 73 72
3 67 74 73
3 68 75 74
3 69 76 75
3 71 78 77
3 72 79 78
3 73 80 79
3 74 81 80
3 75 82 81
3 77 84 83
3 78 85 84
3 79 86 85
3 80 87 86
3 81 88 87
3 83 90 89
3 84 91 90
3 85 92 91
3 86 93 92
3 87 94 93
3 89 96 95
3 90 97 96
3 91 98 97
3 92 99 98
3 93 100 99
3 95 102 101
3 96 103 102
3 97 104 103
3 98 105 104
3 99 106 105
3 101 108 107
3 102 109 108
3 103 110 109
3 104 111 110
3 105 112 111
3 107 114 113
3 108 115 114
3 109 116 115
3 110 117 116
3 111 118 117
3 24 119 34
3 25 120 119
3 26 121 120
3 27 122 121
3 28 123 122
3 34 124 40
3 119 125 124
3 120 126 125
3 121 127 126
3 122 128 127
3 40 129 46
3 124 130 129
3 125 131 130
3 126 132 131
3 127 133 132
3 46 134 52
3 129 135 134
3 130 136 135
3 131 137 136
3 132 138 137
3 52 139 58
3 134 140 139
3 135 141 140
3 136 142 141
3 137 143 142
3 58 144 64
3 139 145 144
3 140 146 145
3 141 147 146
3 142 148 147
3 64 149 70
3 144 150 149
3 145 151 150
3 146 152 151
3 147 153 152
3 70 154 76
3 149 155 154
3 150 156 155
3 151 157 156
3 152 158 157
3 76 159 82
3 154 160 159
3 155 161 160
3 156 162 161
3 157 163 162
3 82 164 88
3 159 165 164
3 160 166 165
3 161 167 166
3 162 168 167
3 88 169 94
3 164 170 169
3 165 171 170
3 166 172 171
3 167 173 172
3 94 174 100
3 169 175 174
3 170 176 175
3 171 177 176
3 172 178 177
3 100 179 106
3 174 180 179
3 175 181 180
3 176 182 181
3 177 183 182
3 106 184 112
3 179 185 184
3 180 186 185
3 181 187 186
3 182 188 187
3 112 189 118
3 184 190 189
3 185 191 190
3 186 192 191
3 187 193 192
3 29 194 123
3 23 195 194
3 17 196 195
3 11 197 196
3 5 274 197
3 123 198 128
3 194 199 198
3 195 200 199
3 196 201 200
3 197 202 201
3 128 203 133
3 198 204 203
3 199 205 204
3 200 206 205
3 201 207 206
3 133 208 138
3 203 209 208
3 204 210 209
3 205 211 210
3 206 212 211
3 138 213 143
3 208 214 213
3 209 215 214
3 210 216 215
3 211 217 216
3 143 218 148
3 213 219 218
3 214 220 219
3 215 221 220
3 216 222 221
3 148 223 153
3 218 224 223
3 219 225 224
3 220 226 225
3 221 227 226
3 153 228 158
3 223 229 228
3 224 230 229
3 225 231 230
3 226 232 231
3 158 233 163
3 228 234 233
3 229 235 234
3 230 236 235
3 231 237 236
3 163 238 168
3 233 239 238
3 234 240 239
3 235 241 240
3 236 242 241
3 168 243 173
3 238 244 243
3 239 245 244
3 240 246 245
3 241 247 246
3 173 248 178
3 243 249 248
3 244 250 249
3 245 251 250
3 246 252 251
3 178 253 183
3 248 254 253
3 249 255 254
3 250 256 255
3 251 257 256
3 183 258 188
3 253 259 258
3 254 260 259
3 255 261 260
3 256 262 261
3 188 263 193
3 258 264 263
3 259 265 264
3 260 266 265
3 261 267 266
3 268 275 274
3 269 276 275
3 270 277 276
3 271 278 277
3 272 279 278
3 274 280 202
3 275 281 280
3 276 282 281
3 277 283 282
3 278 35 283
3 202 284 207
3 280 285 284
3 281 286 285
3 282 287 286
3 283 41 287
3 207 288 212
3 284 289 288
3 285 290 289
3 286 291 290
3 287 47 291
3 212 292 217
3 288 293 292
3 289 294 293
3 290 295 294
3 291 53 295
3 217 296 222
3 292 297 296
3 293 298 297
3 294 299 298
3 295 59 299
3 222 300 227
3 296 301 300
3 297 302 301
3 298 303 302
3 299 65 303
3 227 304 232
3 300 305 304
3 301 306 305
3 302 307 306
3 303 71 307
3 232 308 237
3 304 309 308
3 305 310 309
3 306 311 310
3 307 77 311
3 237 312 242
3 308 313 312
3 309 314 313
3 310 315 314
3 311 83 315
3 242 316 247
3 312 317 316
3 313 318 317
3 314 319 318
3 315 89 319
3 247 320 252
3 316 321 320
3 317 322 321
3 318 323 322
3 319 95 323
3 252 324 257
3 320 325 324
3 321 326 325
3 322 327 326
3 323 101 327
3 257 328 262
3 324 329 328
3 325 330 329
3 326 331 330
3 327 107 331
3 262 332 267
3 328 333 332
3 329 334 333
3 330 335 334
3 331 113 335
3 113 336 335
3 114 337 336
3 115 338 337
3 116 339 338
3 117 189 339
3 335 340 334
3 336 341 340
3 337 342 341
3 338 343 342
3 339 190 343
3 334 344 333
3 340 345 344
3 341 346 345
3 342 347 346
3 343 191 347
3 333 348 332
3 344 349 348
3 345 350 349
3 346 351 350
3 347 192 351
3 332 266 267
3 348 265 266
3 349 264 265
3 350 263 264
3 351 193 263
