ply
format ascii 1.0
element vertex 352
property float x
property float y
property float z
property float nx
property float ny
property float nz
element face 700
property list uchar int vertex_indices
end_header
-14.5951 56.777 -15.9051 0.0662652 0.976124 -0.206859
-15.6424 53.6901 -5.71938 0.174337 0.963166 0.204738
-21.5383 53.7523 2.54984 0.222623 0.965183 0.137338
-22.7088 54.1844 6.84665 0.670687 0.707651 -0.22228
-17.2582 55.1085 9.94754 0.508128 0.785769 -0.352666
-19.8954 57.6889 18.1238 0.008647 0.838069 0.545496
-4.68246 56.9788 -15.1148 0.0983286 0.980699 -0.169001
-6.67759 53.7909 -7.73307 0.01166 0.964435 0.264062
-6.63749 53.4708 -3.83872 0.0302756 0.996485 0.0781095
-15.1116 52.308 8.60049 0.0510963 0.998494 -0.0199877
-16.2402 53.3185 16.0124 0.18525 0.937571 -0.294351
-13.847 55.6332 21.9915 -0.133402 0.721236 0.679722
6.6602 55.3685 -12.8673 0.176041 0.90075 -0.397062
7.60123 53.6619 -7.71792 0.0474459 0.97125 0.233285
6.96225 52.5684 -0.139124 -0.0085797 0.998796 0.048299
1.79229 52.2426 11.9349 -0.0225627 0.998842 -0.0424861
-2.33493 54.1654 18.7368 -0.0199067 0.969417 -0.24461
-5.95132 56.0431 25.4938 -0.17483 0.847443 0.501274
12.7053 56.2052 -12.0089 -0.185531 0.807167 -0.560411
13.5946 52.3584 -6.79489 -0.381103 0.881859 0.277641
14.0844 52.7515 -1.07225 -0.185787 0.980495 -0.0641249
8.48485 53.5151 9.49735 -0.175404 0.972163 -0.155349
4.07225 54.1431 16.6201 -0.104337 0.976822 -0.1869
2.56722 56.6528 25.7184 -0.0398535 0.809916 0.58519
21.1784 57.7363 -11.6097 0.623791 0.73719 -0.259684
19.4528 57.2535 -4.33176 0.188706 0.931947 0.309621
17.5978 55.7279 1.49415 0.277383 0.92581 0.256779
16.4155 55.2712 10.2951 0.418165 0.903996 0.0890478
13.5458 56.3506 18.9499 0.463109 0.880765 0.0989061
11.1768 55.8119 28.9493 0.163112 0.784641 0.598108
-9.99496 50.7124 -16.8358 -0.044282 0.123454 -0.991362
-1.61903 51.3251 -18.4281 0.0507017 0.311857 -0.948775
6.55339 50.6617 -16.5037 0.301435 0.442744 -0.844461
16.659 50.1285 -13.2 0.277706 0.270594 -0.921769
24.4014 50.7051 -11.0343 0.807405 0.148615 -0.570973
-16.7063 44.4781 -16.7616 -0.51334 -0.00530425 -0.858169
-9.52402 43.4886 -17.8239 -0.196373 -0.0295647 -0.980083
-2.66493 43.9453 -19.7985 -0.0200972 0.0710404 -0.997271
9.4275 43.4565 -18.5208 0.306495 0.112121 -0.945246
18.2538 42.6661 -14.1086 0.368208 0.111102 -0.923082
23.232 42.9292 -11.7649 0.881389 -0.00655247 -0.472346
-15.0609 34.3747 -18.7105 -0.536644 -0.100338 -0.837822
-7.31661 34.2683 -17.3984 -0.129432 -0.0455994 -0.990539
-1.2903 36.2278 -19.8833 -0.058707 -0.0381317 -0.997547
9.9534 35.5961 -18.0909 0.321935 0.0238016 -0.946462
17.3055 35.9404 -13.1413 0.402459 -0.0511597 -0.914007
23.0571 34.0623 -12.6246 0.871311 -0.071617 -0.485478
-13.7636 26.6088 -19.161 -0.593141 0.0253515 -0.804699
-6.01658 27.0294 -16.5967 0.0382215 0.0232889 -0.998998
-0.0614664 27.8904 -19.136 -0.111335 -0.137032 -0.98429
9.57358 28.2582 -18.5936 0.297009 -0.0313726 -0.954359
16.7196 27.9293 -14.2994 0.473511 0.0193911 -0.880574
23.3385 26.6182 -10.9441 0.882442 0.0343877 -0.469162
-13.5841 18.3977 -20.0077 -0.62298 -0.0456507 -0.780904
-6.29623 19.6492 -18.265 0.103672 0.0676527 -0.992308
1.99021 19.839 -17.9107 -0.000576009 0.030128 -0.999546
11.015 18.5339 -17.5168 0.302186 -0.00553615 -0.953233
17.0498 18.1224 -13.4628 0.439378 -0.0196092 -0.898088
23.9135 19.0133 -11.2657 0.936791 -0.0793983 -0.340762
-12.8653 10.2409 -20.098 -0.848491 -0.0793755 -0.523223
-7.27919 9.70024 -17.6525 0.0706175 0.0532067 -0.996083
2.64666 10.7109 -18.7949 0.0112542 0.0880333 -0.996054
12.8159 9.98997 -17.9592 0.323177 0.0903199 -0.942019
18.1492 10.0495 -13.1347 0.491893 0.0685493 -0.867953
23.8361 12.0209 -11.3202 0.979671 -0.124719 -0.157128
-12.8269 2.48508 -19.9477 -0.593313 0.479562 -0.646529
-9.45766 2.60185 -18.9133 0.0410022 0.378392 -0.924737
0.0880983 3.21481 -19.9071 -0.0153777 0.403188 -0.914988
12.322 3.49044 -18.7015 0.264338 0.38254 -0.885319
17.3166 4.82553 -13.6704 0.453105 0.313844 -0.834385
23.3362 6.89196 -12.1073 0.907138 0.411325 -0.0889506
-14.8961 -1.12679 -22.3897 -0.659705 0.346105 -0.667083
-10.8989 -1.5186 -22.2583 -0.123985 0.544607 -0.829476
-1.77909 -1.50524 -23.4867 0.0233099 0.597176 -0.801772
14.5498 -1.32237 -22.4941 0.260173 0.533612 -0.804716
20.322 0.49911 -16.4453 0.460101 0.507402 -0.728595
25.9466 1.33183 -13.5215 0.866199 0.40451 -0.293379
-15.6757 -7.45179 -23.4084 -0.75233 0.0901813 -0.652584
-11.0033 -7.20152 -24.3378 -0.316958 0.151075 -0.93633
-2.22793 -6.66596 -28.2206 -0.0176612 0.331821 -0.943177
15.3935 -8.20423 -25.7504 0.331099 0.376888 -0.86506
22.462 -6.72838 -18.58 0.596188 0.316674 -0.737752
27.0586 -6.72266 -15.7932 0.930522 0.145641 -0.336033
-15.0821 -16.2661 -24.0296 -0.721251 -0.194372 -0.664844
-9.36007 -14.7933 -25.5668 -0.366282 -0.0708854 -0.9278
-1.80214 -14.7482 -28.6495 -0.104953 0.0463239 -0.993398
14.3013 -16.9181 -28.0292 0.278683 0.102944 -0.95485
22.6707 -15.1195 -21.29 0.633086 0.155609 -0.758279
26.7772 -15.0472 -18.0316 0.962226 -0.0708995 -0.262859
-12.3339 -23.7301 -22.8263 -0.660159 -0.203458 -0.723046
-5.91204 -23.0225 -24.4211 -0.40128 -0.263177 -0.877333
-0.530449 -22.4316 -29.2393 -0.209471 -0.162582 -0.964204
13.1734 -24.9405 -28.2092 0.2162 -0.0141667 -0.976246
21.3207 -24.2141 -23.8497 0.562497 0.0528957 -0.825106
25.3869 -23.3256 -19.6392 0.988469 0.0397491 -0.146116
-11.1898 -31.5849 -24.4915 -0.620456 0.113341 -0.776008
-4.35774 -31.3441 -23.5421 -0.158923 -0.0132768 -0.987202
2.05028 -30.5073 -26.8993 -0.26914 -0.281956 -0.920904
12.8906 -32.2894 -27.617 0.103195 -0.200317 -0.974281
19.8373 -32.2001 -24.3766 0.430391 -0.0381188 -0.901837
26.9189 -31.8697 -20.8259 0.973028 0.0853117 -0.214332
-12.7103 -38.7326 -26.0759 -0.608893 0.199497 -0.767756
-4.97325 -38.9462 -24.8252 0.090348 0.136158 -0.986559
3.27326 -39.2685 -24.9165 -0.0677517 -0.076952 -0.99473
11.7372 -39.9951 -25.2394 0.022071 -0.22325 -0.974512
19.7739 -40.2228 -23.8423 0.285874 -0.112929 -0.95159
27.7287 -40.1609 -20.7485 0.925103 0.0132293 -0.379485
-12.6854 -46.2991 -27.211 -0.609703 0.139161 -0.780318
-5.13582 -46.9659 -26.0613 0.150946 0.140186 -0.978551
2.87954 -47.5134 -25.162 0.111556 0.072112 -0.991138
11.1337 -47.1131 -23.9827 0.1037 -0.0254102 -0.994284
19.0252 -47.5603 -23.0683 0.169749 -0.0520841 -0.98411
26.969 -47.4201 -21.2365 0.868666 -0.0245135 -0.494791
-12.6708 -54.2414 -28.4811 -0.592358 -0.564911 -0.574445
-4.74368 -54.5991 -27.2139 0.120117 -0.606959 -0.785603
3.01899 -55.287 -25.8349 0.0876995 -0.654731 -0.750757
10.9236 -55.5802 -24.5275 0.121976 -0.650527 -0.749624
19.1101 -55.0256 -23.2019 0.156175 -0.680452 -0.715958
26.9051 -54.8505 -21.811 0.56529 -0.397312 -0.722904
22.8537 50.8123 -2.94053 0.929932 0.33007 0.162113
21.2482 50.052 4.43958 0.808151 0.445589 0.385153
17.8066 48.5592 12.3415 0.839902 0.308317 0.446661
14.2382 48.6249 18.3843 0.91102 0.0966108 0.400886
11.4285 49.533 25.2378 0.563123 -0.0686242 0.823519
23.5688 43.3409 -3.10586 0.998829 -0.017716 -0.0450157
24.3745 42.0805 5.30959 0.942718 0.0965168 0.319324
19.2765 40.6629 13.9572 0.804577 0.0461506 0.592052
14.3251 40.7035 19.3365 0.895674 -0.0204643 0.44424
11.92 41.1836 25.1005 0.506361 -0.0110298 0.862251
22.8243 34.0753 -4.94099 0.991787 -0.118407 -0.0483518
24.3281 34.029 4.16648 0.942989 -0.2371 0.233572
18.2353 33.5363 12.7378 0.773944 -0.260246 0.577307
12.5231 32.8474 17.2686 0.903902 -0.204096 0.375908
12.7097 32.4216 24.8768 0.609271 -0.103151 0.786224
21.8305 25.9657 -4.5204 0.987999 -0.0719418 0.136684
21.3327 26.115 2.55833 0.940905 -0.189746 0.280524
15.7933 26.651 10.0975 0.810053 -0.182989 0.557071
12.0569 25.4447 16.4653 0.939268 -0.117855 0.322312
11.4165 24.4901 24.5086 0.685039 -0.0661036 0.725501
21.4965 19.6469 -3.41546 0.96964 -0.131933 0.205894
19.6586 17.9715 3.30929 0.957593 -0.0993297 0.27046
17.0629 18.2981 10.2679 0.849919 0.00980883 0.526822
11.8802 17.3509 16.5716 0.927668 0.0338339 0.371871
11.2273 17.5198 25.0002 0.628471 -0.0899844 0.772611
18.6353 11.2214 -3.53176 0.955399 -0.214291 0.203207
19.0773 10.0823 3.17694 0.988089 -0.100918 0.116172
17.0088 9.81913 9.13579 0.90503 0.0387615 0.423578
12.735 10.9945 16.0376 0.90268 0.0936307 0.420003
10.8437 10.3748 24.4226 0.488538 -0.0806151 0.868811
17.2935 5.41222 -4.83653 0.848213 0.302377 0.434859
18.3302 2.57207 0.849473 0.945886 0.308114 0.10181
17.832 2.40806 9.67279 0.937521 0.202061 0.283242
14.1286 4.26608 16.5272 0.886637 0.202507 0.415771
11.459 4.11392 23.9635 0.378006 0.102253 0.920139
23.4402 0.70857 -6.15083 0.828308 0.48382 0.28253
23.875 -1.82782 0.413516 0.773067 0.554988 0.307174
20.4786 -3.8401 10.4958 0.809432 0.422508 0.407807
15.8164 -1.85508 17.2568 0.844981 0.247154 0.474259
12.3345 -2.33508 23.4514 0.382214 0.11763 0.916556
26.3479 -6.74765 -6.86329 0.984608 0.174648 0.00668539
27.44 -9.12041 -0.0814551 0.929015 0.285754 0.235107
23.9043 -11.3424 10.5542 0.837069 0.252507 0.485341
18.0591 -10.2347 16.4216 0.808338 0.197338 0.55466
14.0603 -9.79932 23.4056 0.455817 0.0452334 0.888923
26.3254 -14.724 -8.87822 0.977641 -0.147388 -0.14998
29.3642 -16.8262 -0.63818 0.984523 -0.169684 0.043839
25.4535 -19.2612 9.21232 0.899187 -0.13617 0.415837
20.375 -18.5175 15.7096 0.842174 0.00660538 0.539165
16.4693 -18.4681 22.2266 0.464079 -0.0257759 0.885418
23.5487 -22.6628 -10.3435 0.978833 -0.204646 0.00252332
25.9969 -24.2485 -3.01402 0.915236 -0.402662 -0.0143845
22.0434 -24.9505 6.86741 0.872501 -0.428904 0.234058
19.8215 -26.1301 12.8843 0.940016 -0.204062 0.273366
18.2741 -27.0923 20.1973 0.553119 -0.155409 0.818479
23.7634 -30.9809 -11.2937 0.962134 -0.00381859 0.272551
22.083 -31.9568 -4.13755 0.976182 -0.188502 0.107407
19.5826 -32.6831 3.80101 0.962074 -0.179929 0.205036
19.0765 -33.4183 11.1249 0.993049 -0.0706013 0.094172
18.7592 -34.59 18.6309 0.604139 -0.132175 0.785841
24.0551 -39.2888 -12.7686 0.934755 0.0665772 0.349001
21.1454 -39.4107 -5.31651 0.977051 0.0614915 0.203937
20.6886 -40.4533 3.16471 0.984665 0.0831717 0.153354
19.6896 -41.1739 10.7302 0.990168 0.0762749 0.117256
19.0226 -42.0157 18.1876 0.58214 -0.0285583 0.812587
24.8516 -46.9822 -13.2152 0.964291 0.0360259 0.262382
23.2633 -47.8619 -5.61995 0.969233 0.117231 0.216435
22.0824 -49.0684 2.68387 0.980283 0.108515 0.165136
20.3894 -49.4706 10.3587 0.981483 0.0766995 0.175522
19.2808 -50.0593 17.801 0.58822 -0.01554 0.808551
25.4658 -55.0804 -13.8988 0.731143 -0.674119 0.104848
23.8569 -55.7747 -6.176 0.754599 -0.650612 0.0853439
22.3692 -56.9022 1.76272 0.744665 -0.664426 0.0633408
20.9751 -57.4331 9.6734 0.722733 -0.684213 0.0975173
19.6957 -57.9339 17.3555 0.621644 -0.671236 0.403735
3.48783 49.9159 24.4042 -0.022039 -0.0465515 0.998673
-5.15426 48.7634 25.5307 -0.0989069 0.0938324 0.990663
-14.9269 48.4672 23.0778 -0.430747 0.122841 0.894074
-20.2422 48.427 19.9458 -0.258921 0.0649349 0.963713
3.60599 41.6798 25.7229 0.0472107 -0.0844762 0.995306
-4.33378 40.7146 27.2897 -0.0253396 -0.172422 0.984697
-15.129 40.3452 25.0007 -0.411596 -0.107916 0.904954
-19.7465 40.6957 19.3394 -0.369272 -0.0758014 0.926225
-25.9645 40.2058 19.189 -0.746172 -0.0898232 0.659666
4.66339 33.3058 24.4111 -0.0687824 -0.0590529 0.995882
-2.77044 33.3249 22.9642 -0.148304 -0.191764 0.970171
-12.0212 34.0977 21.6473 -0.28095 -0.347536 0.894587
-19.0697 33.3489 17.9766 -0.243509 -0.25692 0.935252
-25.9396 31.3337 18.5158 -0.681188 -0.175701 0.710713
4.69954 25.3956 23.9386 -0.0455042 -0.0585209 0.997249
-3.07101 25.5048 24.0347 -0.207455 0.0134795 0.978152
-11.2709 25.3376 20.6214 -0.393643 -0.00987749 0.91921
-18.4665 24.6149 16.912 -0.284666 -0.106907 0.952647
-25.7856 23.5319 16.4834 -0.706962 -0.193913 0.680149
3.9632 17.4005 23.5806 -0.0395424 -0.0823771 0.995816
-3.5539 17.0266 23.0645 -0.183454 -0.0220874 0.98278
-11.6333 16.7807 21.1172 -0.437159 -0.0346796 0.898715
-17.7249 16.7309 16.8503 -0.360442 -0.0650307 0.930512
-25.8517 16.7404 15.4099 -0.854542 -0.17631 0.488542
3.07135 9.87667 21.3912 0.0169182 -0.253026 0.967312
-4.46298 8.77652 23.7826 -0.0593262 -0.0940561 0.993798
-12.6684 7.65504 19.9593 -0.500793 0.0764191 0.862187
-17.2524 8.44267 15.8001 -0.421161 -0.0345328 0.906328
-24.4231 9.44914 14.7672 -0.887439 -0.162449 0.43135
3.31926 4.08737 19.6947 -0.178027 0.039659 0.983226
-3.8365 1.36346 21.1147 0.0876051 -0.0274546 0.995777
-13.3429 0.389824 21.1409 -0.393118 0.0417152 0.918541
-18.1477 2.26858 16.0287 -0.501627 0.10152 0.859107
-23.8679 2.58747 14.8768 -0.941658 0.109755 0.318174
3.77273 -2.3897 21.6736 -0.140605 0.117939 0.983016
-2.1727 -4.61538 23.1182 0.0325304 0.142728 0.989227
-12.5944 -6.02386 22.2115 -0.380632 0.150417 0.912411
-18.4807 -4.04191 16.7079 -0.53948 0.0661288 0.839397
-24.6683 -3.27328 14.3696 -0.923053 0.0917182 0.373579
5.16369 -9.90935 23.186 -0.0711165 0.0243113 0.997172
-1.49748 -11.8404 22.4387 0.0167951 -0.0402906 0.999047
-12.6401 -14.2813 23.5442 -0.273223 -0.0682411 0.959527
-18.1834 -12.3857 17.5297 -0.585377 0.043457 0.809596
-24.3071 -11.7442 14.6399 -0.878497 0.000227945 0.477748
6.83154 -18.2446 22.4224 0.0389982 -0.1085 0.993331
-0.659739 -19.7974 22.9149 -0.080383 -0.0991366 0.991822
-10.9965 -21.4309 21.4456 -0.217202 -0.259003 0.941138
-17.6732 -21.0185 17.8725 -0.442913 -0.200626 0.873829
-23.4118 -20.7418 15.2873 -0.869481 -0.0815802 0.487183
8.4209 -26.7224 21.3882 0.0375652 -0.245367 0.968702
0.43725 -27.7545 21.8632 -0.0274198 -0.318294 0.947596
-9.24806 -28.4135 19.4771 -0.288147 -0.278865 0.916082
-14.8512 -28.2179 15.6617 -0.298384 -0.254153 0.919985
-22.657 -29.4504 14.9025 -0.797569 -0.213552 0.564162
9.32663 -34.3883 19.3727 -0.0510724 -0.208886 0.976605
1.99711 -35.025 17.0828 -0.0870577 -0.314453 0.945273
-7.11863 -35.7165 17.0841 -0.120686 -0.343091 0.931517
-14.2725 -36.1888 14.8832 -0.258115 -0.177391 0.949689
-21.6361 -36.9847 13.6633 -0.779052 -0.176791 0.601518
10.0575 -42.3428 17.5492 -0.068853 -0.157773 0.985072
2.3058 -42.9686 16.68 -0.173221 -0.152829 0.972953
-5.30238 -43.3621 14.9754 -0.120966 -0.177775 0.976608
-13.344 -43.931 13.9154 -0.162514 -0.168925 0.972139
-21.0063 -44.7227 12.5176 -0.808851 -0.146996 0.569344
11.2075 -50.4775 16.7421 -0.145248 -0.092619 0.98505
3.28954 -50.4922 15.1905 -0.154173 -0.130329 0.97941
-4.6521 -50.995 13.9561 -0.149971 -0.132531 0.979768
-12.4874 -51.8555 12.8642 -0.13768 -0.13449 0.981304
-20.4513 -52.5859 11.5302 -0.801146 -0.145994 0.580389
11.7392 -58.0629 16.1056 -0.0604347 -0.771927 0.632832
3.93419 -58.8042 14.6055 -0.0658713 -0.765608 0.639926
-3.97046 -59.1202 13.3204 -0.0581525 -0.754086 0.654197
-11.9048 -59.6064 11.9785 -0.0471763 -0.771321 0.634696
-19.7496 -60.2103 10.6314 -0.477865 -0.537367 0.694896
-28.3195 56.4812 19.0281 -0.834958 0.418919 0.356864
-26.9225 56.6789 9.80184 -0.462417 0.843918 -0.271979
-22.862 55.4316 5.56062 -0.566054 0.669872 -0.480473
-21.0017 55.7726 -0.764323 -0.848378 0.438221 -0.297015
-18.2083 56.3255 -9.28205 -0.700054 0.703983 -0.11972
-15.1449 58.0648 -17.7949 -0.293131 0.68959 -0.662223
-27.0004 47.8907 19.9361 -0.746784 -0.014158 0.664916
-27.3977 49.7202 9.92503 -0.999347 0.0124016 -0.0339473
-26.8774 48.4489 3.79339 -0.865486 0.291427 -0.407435
-23.1142 49.3084 -2.03313 -0.857711 0.288945 -0.425256
-19.4216 50.0619 -9.99092 -0.925386 0.142428 -0.351249
-17.1306 49.7423 -17.7125 -0.615641 0.0803471 -0.78392
-27.6395 41.1382 10.4798 -0.997486 -0.0469674 0.0530561
-27.7534 40.7272 2.5694 -0.935236 -0.0686979 -0.347295
-24.0522 41.2381 -4.40703 -0.839615 -0.151662 -0.52158
-19.1737 42.209 -11.6903 -0.9004 -0.116709 -0.419116
-27.3715 31.7197 10.574 -0.99438 -0.0927146 0.0511172
-26.3985 32.8623 1.03086 -0.882397 -0.031062 -0.469479
-18.9346 33.8838 -4.38513 -0.744234 -0.174501 -0.644722
-15.3685 34.1291 -10.2428 -0.902049 -0.322804 -0.28654
-25.5717 24.1592 9.31765 -0.973091 -0.228319 0.0310469
-26.0307 25.1352 1.01675 -0.875635 -0.146706 -0.460153
-18.601 26.497 -4.95565 -0.719439 -0.0537803 -0.692471
-14.3763 27.0696 -10.9354 -0.954691 -0.0576939 -0.291952
-23.4836 17.4371 7.98576 -0.975407 -0.217449 -0.036021
-24.1353 18.4682 0.58818 -0.900898 -0.107169 -0.420591
-17.1249 18.903 -4.86486 -0.726161 -0.0373269 -0.686511
-13.6299 19.7059 -11.6889 -0.966679 -0.125667 -0.223023
-20.7723 9.95327 6.45672 -0.985126 -0.169405 -0.028791
-23.4271 10.0189 0.304137 -0.97867 -0.0358997 -0.20228
-18.0185 10.9289 -5.86017 -0.736692 0.250585 -0.628086
-12.1693 11.0808 -11.6383 -0.896108 0.197442 -0.397502
-20.2803 4.19348 6.828 -0.995543 0.0639333 -0.0693246
-23.6192 2.49406 1.29636 -0.993584 0.0926013 0.0649311
-20.6318 3.22943 -5.75129 -0.873427 0.253488 -0.415775
-16.9817 4.97734 -13.9874 -0.762275 0.439693 -0.474981
-22.2993 -2.3314 6.54783 -0.971372 0.19647 -0.133553
-23.8375 -4.54776 1.23544 -0.993054 0.0365236 0.111848
-23.4958 -4.28551 -6.51591 -0.927052 0.170949 -0.333694
-18.8341 -2.16773 -13.707 -0.891582 0.198637 -0.40697
-23.9845 -10.6627 6.13276 -0.988318 0.0568379 -0.141411
-23.7166 -12.3621 1.08199 -0.989567 -0.137759 -0.0421737
-23.4193 -11.8832 -7.96762 -0.94822 -0.171321 -0.267448
-19.3011 -9.7235 -14.6481 -0.901728 -0.0181172 -0.431924
-24.4993 -19.2432 6.08138 -0.993058 -0.0572689 -0.102741
-22.0719 -19.2136 -0.26222 -0.915712 -0.146275 -0.374267
-20.0014 -18.8059 -7.73078 -0.871728 -0.423504 -0.246443
-17.3394 -17.3437 -15.3894 -0.880938 -0.309867 -0.357673
-23.1578 -27.7046 6.08631 -0.974824 -0.192677 -0.112225
-21.481 -26.9683 -1.44963 -0.856358 -0.153804 -0.492945
-15.2173 -25.89 -7.91318 -0.886571 -0.259104 -0.38322
-14.5978 -24.6257 -15.1622 -0.927155 -0.278588 -0.250543
-21.384 -35.8438 5.68355 -0.976075 -0.117682 -0.182835
-18.1877 -34.7537 -1.77982 -0.900762 -0.0579407 -0.43043
-13.6154 -33.7996 -8.51666 -0.920094 0.00645728 -0.391644
-13.0417 -32.4403 -16.0953 -0.990366 -0.0126969 -0.137894
-20.1038 -43.8983 4.64811 -0.98319 -0.101848 -0.151538
-18.5999 -42.8103 -3.14587 -0.95331 0.0143588 -0.301652
-15.3043 -41.1486 -10.3422 -0.933853 0.176529 -0.311057
-13.7157 -39.8928 -17.8319 -0.984141 0.114401 -0.135571
-19.2161 -51.8825 3.65333 -0.98185 -0.0774737 -0.173116
-17.6536 -50.7056 -4.25361 -0.97574 -0.0698323 -0.207497
-15.9843 -49.4122 -11.9849 -0.970605 0.0250223 -0.239373
-14.2544 -47.9243 -19.403 -0.978508 0.0676212 -0.194805
-18.3838 -59.583 2.83369 -0.614249 -0.769845 -0.173314
-16.9654 -58.6621 -5.11072 -0.624361 -0.751067 -0.214641
-15.4651 -57.2925 -13.0233 -0.651527 -0.719984 -0.239031
-14.2145 -55.974 -20.6388 -0.683171 -0.685078 -0.252875
-6.35051 -56.3241 -19.3562 0.0280051 -0.984461 -0.173358
1.62291 -55.8318 -17.9584 0.0384066 -0.990583 -0.131418
9.33392 -55.8844 -16.5905 0.00465502 -0.997427 -0.0715373
17.425 -55.957 -15.262 0.0718825 -0.994925 -0.07041
-7.66148 -57.3045 -11.3848 0.0250962 -0.992529 -0.119397
0.323941 -57.2783 -10.0543 0.0622848 -0.992283 -0.107213
8.14359 -56.7257 -8.82288 0.0511725 -0.994022 -0.0964437
16.0269 -56.539 -7.44257 0.057236 -0.995056 -0.0811651
-8.89572 -58.2973 -3.73059 0.0680801 -0.992573 -0.100812
-0.993266 -57.8353 -2.17719 0.0637555 -0.996002 -0.0625664
6.77186 -57.3573 -0.903254 0.0565628 -0.99713 -0.0503318
14.7028 -57.1353 0.460959 0.0325128 -0.997925 -0.0555766
-10.3173 -59.0358 4.175 0.082969 -0.993672 -0.0757104
-2.42806 -58.3174 5.53881 0.0846657 -0.993407 -0.0772935
5.3767 -57.7371 6.93548 0.0770933 -0.994434 -0.071817
13.2586 -57.4158 8.40644 0.0294277 -0.998165 -0.0529182
3 273 272 1
3 272 271 2
3 271 270 3
3 270 269 4
3 269 268 5
3 0 1 7
3 1 2 8
3 2 3 9
3 3 4 10
3 4 5 11
3 6 7 13
3 7 8 14
3 8 9 15
3 9 10 16
3 10 11 17
3 12 13 19
3 13 14 20
3 14 15 21
3 15 16 22
3 16 17 23
3 18 19 25
3 19 20 26
3 20 21 27
3 21 22 28
3 22 23 29
3 273 0 30
3 0 6 31
3 6 12 32
3 12 18 33
3 18 24 34
3 279 30 36
3 30 31 37
3 31 32 38
3 32 33 39
3 33 34 40
3 35 36 42
3 36 37 43
3 37 38 44
3 38 39 45
3 39 40 46
3 41 42 48
3 42 43 49
3 43 44 50
3 44 45 51
3 45 46 52
3 47 48 54
3 48 49 55
3 49 50 56
3 50 51 57
3 51 52 58
3 53 54 60
3 54 55 61
3 55 56 62
3 56 57 63
3 57 58 64
3 59 60 66
3 60 61 67
3 61 62 68
3 62 63 69
3 63 64 70
3 65 66 72
3 66 67 73
3 67 68 74
3 68 69 75
3 69 70 76
3 71 72 78
3 72 73 79
3 73 74 80
3 74 75 81
3 75 76 82
3 77 78 84
3 78 79 85
3 79 80 86
3 80 81 87
3 81 82 88
3 83 84 90
3 84 85 91
3 85 86 92
3 86 87 93
3 87 88 94
3 89 90 96
3 90 91 97
3 91 92 98
3 92 93 99
3 93 94 100
3 95 96 102
3 96 97 103
3 97 98 104
3 98 99 105
3 99 100 106
3 101 102 108
3 102 103 109
3 103 104 110
3 104 105 111
3 105 106 112
3 107 108 114
3 108 109 115
3 109 110 116
3 110 111 117
3 111 112 118
3 24 25 119
3 25 26 120
3 26 27 121
3 27 28 122
3 28 29 123
3 34 119 124
3 119 120 125
3 120 121 126
3 121 122 127
3 122 123 128
3 40 124 129
3 124 125 130
3 125 126 131
3 126 127 132
3 127 128 133
3 46 129 134
3 129 130 135
3 130 131 136
3 131 132 137
3 132 133 138
3 52 134 139
3 134 135 140
3 135 136 141
3 136 137 142
3 137 138 143
3 58 139 144
3 139 140 145
3 140 141 146
3 141 142 147
3 142 143 148
3 64 144 149
3 144 145 150
3 145 146 151
3 146 147 152
3 147 148 153
3 70 149 154
3 149 150 155
3 150 151 156
3 151 152 157
3 152 153 158
3 76 154 159
3 154 155 160
3 155 156 161
3 156 157 162
3 157 158 163
3 82 159 164
3 159 160 165
3 160 161 166
3 161 162 167
3 162 163 168
3 88 164 169
3 164 165 170
3 165 166 171
3 166 167 172
3 167 168 173
3 94 169 174
3 169 170 175
3 170 171 176
3 171 172 177
3 172 173 178
3 100 174 179
3 174 175 180
3 175 176 181
3 176 177 182
3 177 178 183
3 106 179 184
3 179 180 185
3 180 181 186
3 181 182 187
3 182 183 188
3 112 184 189
3 184 185 190
3 185 186 191
3 186 187 192
3 187 188 193
3 29 23 194
3 23 17 195
3 17 11 196
3 11 5 197
3 5 268 274
3 123 194 198
3 194 195 199
3 195 196 200
3 196 197 201
3 197 274 202
3 128 198 203
3 198 199 204
3 199 200 205
3 200 201 206
3 201 202 207
3 133 203 208
3 203 204 209
3 204 205 210
3 205 206 211
3 206 207 212
3 138 208 213
3 208 209 214
3 209 210 215
3 210 211 216
3 211 212 217
3 143 213 218
3 213 214 219
3 214 215 220
3 215 216 221
3 216 217 222
3 148 218 223
3 218 219 224
3 219 220 225
3 220 221 226
3 221 222 227
3 153 223 228
3 223 224 229
3 224 225 230
3 225 226 231
3 226 227 232
3 158 228 233
3 228 229 234
3 229 230 235
3 230 231 236
3 231 232 237
3 163 233 238
3 233 234 239
3 234 235 240
3 235 236 241
3 236 237 242
3 168 238 243
3 238 239 244
3 239 240 245
3 240 241 246
3 241 242 247
3 173 243 248
3 243 244 249
3 244 245 250
3 245 246 251
3 246 247 252
3 178 248 253
3 248 249 254
3 249 250 255
3 250 251 256
3 251 252 257
3 183 253 258
3 253 254 259
3 254 255 260
3 255 256 261
3 256 257 262
3 188 258 263
3 258 259 264
3 259 260 265
3 260 261 266
3 261 262 267
3 268 269 275
3 269 270 276
3 270 271 277
3 271 272 278
3 272 273 279
3 274 275 280
3 275 276 281
3 276 277 282
3 277 278 283
3 278 279 35
3 202 280 284
3 280 281 285
3 281 282 286
3 282 283 287
3 283 35 41
3 207 284 288
3 284 285 289
3 285 286 290
3 286 287 291
3 287 41 47
3 212 288 292
3 288 289 293
3 289 290 294
3 290 291 295
3 291 47 53
3 217 292 296
3 292 293 297
3 293 294 298
3 294 295 299
3 295 53 59
3 222 296 300
3 296 297 301
3 297 298 302
3 298 299 303
3 299 59 65
3 227 300 304
3 300 301 305
3 301 302 306
3 302 303 307
3 303 65 71
3 232 304 308
3 304 305 309
3 305 306 310
3 306 307 311
3 307 71 77
3 237 308 312
3 308 309 313
3 309 310 314
3 310 311 315
3 311 77 83
3 242 312 316
3 312 313 317
3 313 314 318
3 314 315 319
3 315 83 89
3 247 316 320
3 316 317 321
3 317 318 322
3 318 319 323
3 319 89 95
3 252 320 324
3 320 321 325
3 321 322 326
3 322 323 327
3 323 95 101
3 257 324 328
3 324 325 329
3 325 326 330
3 326 327 331
3 327 101 107
3 262 328 332
3 328 329 333
3 329 330 334
3 330 331 335
3 331 107 113
3 113 114 336
3 114 115 337
3 115 116 338
3 116 117 339
3 117 118 189
3 335 336 340
3 336 337 341
3 337 338 342
3 338 339 343
3 339 189 190
3 334 340 344
3 340 341 345
3 341 342 346
3 342 343 347
3 343 190 191
3 333 344 348
3 344 345 349
3 345 346 350
3 346 347 351
3 347 191 192
3 332 348 266
3 348 349 265
3 349 350 264
3 350 351 263
3 351 192 193
3 273 1 0
3 272 2 1
3 271 3 2
3 270 4 3
3 269 5 4
3 0 7 6
3 1 8 7
3 2 9 8
3 3 10 9
3 4 11 10
3 6 13 12
3 7 14 13
3 8 15 14
3 9 16 15
3 10 17 16
3 12 19 18
3 13 20 19
3 14 21 20
3 15 22 21
3 16 23 22
3 18 25 24
3 19 26 25
3 20 27 26
3 21 28 27
3 22 29 28
3 273 30 279
3 0 31 30
3 6 32 31
3 12 33 32
3 18 34 33
3 279 36 35
3 30 37 36
3 31 38 37
3 32 39 38
3 33 40 39
3 35 42 41
3 36 43 42
3 37 44 43
3 38 45 44
3 39 46 45
3 41 48 47
3 42 49 48
3 43 50 49
3 44 51 50
3 45 52 51
3 47 54 53
3 48 55 54
3 49 56 55
3 50 57 56
3 51 58 57
3 53 60 59
3 54 61 60
3 55 62 61
3 56 63 62
3 57 64 63
3 59 66 65
3 60 67 66
3 61 68 67
3 62 69 68
3 63 70 69
3 65 72 71
3 66 73 72
3 67 74 73
3 68 75 74
3 69 76 75
3 71 78 77
3 72 79 78
3 73 80 79
3 74 81 80
3 75 82 81
3 77 84 83
3 78 85 84
3 79 86 85
3 80 87 86
3 81 88 87
3 83 90 89
3 84 91 90
3 85 92 91
3 86 93 92
3 87 94 93
3 89 96 95
3 90 97 96
3 91 98 97
3 92 99 98
3 93 100 99
3 95 102 101
3 96 103 102
3 97 104 103
3 98 105 104
3 99 106 105
3 101 108 107
3 102 109 108
3 103 110 109
3 104 111 110
3 105 112 111
3 107 114 113
3 108 115 114
3 109 116 115
3 110 117 116
3 111 118 117
3 24 119 34
3 25 120 119
3 26 121 120
3 27 122 121
3 28 123 122
3 34 124 40
3 119 125 124
3 120 126 125
3 121 127 126
3 122 128 127
3 40 129 46
3 124 130 129
3 125 131 130
3 126 132 131
3 127 133 132
3 46 134 52
3 129 135 134
3 130 136 135
3 131 137 136
3 132 138 137
3 52 139 58
3 134 140 139
3 135 141 140
3 136 142 141
3 137 143 142
3 58 144 64
3 139 145 144
3 140 146 145
3 141 147 146
3 142 148 147
3 64 149 70
3 144 150 149
3 145 151 150
3 146 152 151
3 147 153 152
3 70 154 76
3 149 155 154
3 150 156 155
3 151 157 156
3 152 158 157
3 76 159 82
3 154 160 159
3 155 161 160
3 156 162 161
3 157 163 162
3 82 164 88
3 159 165 164
3 160 166 165
3 161 167 166
3 162 168 167
3 88 169 94
3 164 170 169
3 165 171 170
3 166 172 171
3 167 173 172
3 94 174 100
3 169 175 174
3 170 176 175
3 171 177 176
3 172 178 177
3 100 179 106
3 174 180 179
3 175 181 180
3 176 182 181
3 177 183 182
3 106 184 112
3 179 185 184
3 180 186 185
3 181 187 186
3 182 188 187
3 112 189 118
3 184 190 189
3 185 191 190
3 186 192 191
3 187 193 192
3 29 194 123
3 23 195 194
3 17 196 195
3 11 197 196
3 5 274 197
3 123 198 128
3 194 199 198
3 195 200 199
3 196 201 200
3 197 202 201
3 128 203 133
3 198 204 203
3 199 205 204
3 200 206 205
3 201 207 206
3 133 208 138
3 203 209 208
3 204 210 209
3 205 211 210
3 206 212 211
3 138 213 143
3 208 214 213
3 209 215 214
3 210 216 215
3 211 217 216
3 143 218 148
3 213 219 218
3 214 220 219
3 215 221 220
3 216 222 221
3 148 223 153
3 218 224 223
3 219 225 224
3 220 226 225
3 221 227 226
3 153 228 158
3 223 229 228
3 224 230 229
3 225 231 230
3 226 232 231
3 158 233 163
3 228 234 233
3 229 235 234
3 230 236 235
3 231 237 236
3 163 238 168
3 233 239 238
3 234 240 239
3 235 241 240
3 236 242 241
3 168 243 173
3 238 244 243
3 239 245 244
3 240 246 245
3 241 247 246
3 173 248 178
3 243 249 248
3 244 250 249
3 245 251 250
3 246 252 251
3 178 253 183
3 248 254 253
3 249 255 254
3 250 256 255
3 251 257 256
3 183 258 188
3 253 259 258
3 254 260 259
3 255 261 260
3 256 262 261
3 188 263 193
3 258 264 263
3 259 265 264
3 260 266 265
3 261 267 266
3 268 275 274
3 269 276 275
3 270 277 276
3 271 278 277
3 272 279 278
3 274 280 202
3 275 281 280
3 276 282 281
3 277 283 282
3 278 35 283
3 202 284 207
3 280 285 284
3 281 286 285
3 282 287 286
3 283 41 287
3 207 288 212
3 284 289 288
3 285 290 289
3 286 291 290
3 287 47 291
3 212 292 217
3 288 293 292
3 289 294 293
3 290 295 294
3 291 53 295
3 217 296 222
3 292 297 296
3 293 298 297
3 294 299 298
3 295 59 299
3 222 300 227
3 296 301 300
3 297 302 301
3 298 303 302
3 299 65 303
3 227 304 232
3 300 305 304
3 301 306 305
3 302 307 306
3 303 71 307
3 232 308 237
3 304 309 308
3 305 310 309
3 306 311 310
3 307 77 311
3 237 312 242
3 308 313 312
3 309 314 313
3 310 315 314
3 311 83 315
3 242 316 247
3 312 317 316
3 313 318 317
3 314 319 318
3 315 89 319
3 247 320 252
3 316 321 320
3 317 322 321
3 318 323 322
3 319 95 323
3 252 324 257
3 320 325 324
3 321 326 325
3 322 327 326
3 323 101 327
3 257 328 262
3 324 329 328
3 325 330 329
3 326 331 330
3 327 107 331
3 262 332 267
3 328 333 332
3 329 334 333
3 330 335 334
3 331 113 335
3 113 336 335
3 114 337 336
3 115 338 337
3 116 339 338
3 117 189 339
3 335 340 334
3 336 341 340
3 337 342 341
3 338 343 342
3 339 190 343
3 334 344 333
3 340 345 344
3 341 346 345
3 342 347 346
3 343 191 347
3 333 348 332
3 344 349 348
3 345 350 349
3 346 351 350
3 347 192 351
3 332 266 267
3 348 265 266
3 349 264 265
3 350 263 264
3 351 193 263
