ply
format ascii 1.0
element vertex 352
property float x
property float y
property float z
property float nx
property float ny
property float nz
element face 700
property list uchar int vertex_indices
end_header
-20.9765 48.96 -37.6465 -0.143913 0.560026 -0.81588
-22.5084 51.5327 -28.9336 -0.180411 0.95678 -0.228087
-23.4588 52.9511 -21.1077 -0.122751 0.980349 -0.154428
-23.6854 54.129 -12.9903 -0.0153072 0.960123 -0.27916
-23.4021 56.5438 -7.05141 -0.0187487 0.919207 -0.393327
-26.2283 59.4674 0.779314 -0.11539 0.851121 0.512132
-12.025 50.0942 -38.411 -0.0118365 0.639046 -0.769077
-13.6657 52.125 -30.5023 -0.0025081 0.983203 -0.182498
-14.6778 53.0434 -22.9333 0.0385183 0.996336 -0.0763555
-15.7293 53.2383 -13.2119 0.0479182 0.969558 -0.240125
-16.328 56.1946 -6.26662 0.0035687 0.897052 -0.441911
-16.449 60.1553 0.572958 -0.0679853 0.923894 0.376561
-3.87628 51.4784 -37.221 0.0295213 0.68314 -0.72969
-3.33866 51.4477 -29.0077 0.00200382 0.999215 -0.0395534
-4.31183 51.8475 -21.472 0.0864401 0.991753 -0.0946227
-6.39065 52.5351 -12.4256 0.00812168 0.957898 -0.286995
-7.41234 56.9855 -6.28727 -0.0661346 0.860084 -0.505847
-8.65901 60.6967 0.905458 -0.106907 0.944344 0.311103
2.9198 52.7202 -35.9626 -0.046546 0.69662 -0.715929
3.10214 52.0426 -27.4558 -0.243129 0.968193 0.0590841
3.40407 50.7001 -21.4734 -0.247449 0.957818 -0.146127
1.0089 53.2624 -13.5082 -0.268603 0.881271 -0.388862
0.950677 57.6142 -6.82306 -0.231596 0.838157 -0.493817
0.0288415 62.1449 0.813782 -0.0876901 0.953218 0.289285
9.82695 52.8863 -36.6731 0.683296 0.569105 -0.457412
9.68625 53.5159 -28.1169 0.404163 0.911936 -0.0708853
8.88312 54.91 -21.2327 0.28726 0.956351 -0.0536172
8.04038 56.8643 -14.8723 0.258636 0.90372 -0.341171
7.57003 61.2951 -7.00515 0.44344 0.805733 -0.392626
7.67245 63.5421 0.967559 0.00813287 0.9404 0.339973
-20.125 40.735 -36.3641 -0.121821 -0.236629 -0.963933
-12.0234 41.5894 -38.1186 -0.0431209 -0.127738 -0.99087
-3.17107 42.7927 -37.4889 0.173803 -0.0412971 -0.983914
4.90566 44.4006 -35.7196 0.193289 -0.0720199 -0.978495
11.7678 45.7198 -34.7071 0.693682 0.0298121 -0.719664
-25.9158 32.1109 -32.9679 -0.752206 -0.338199 -0.565516
-19.1166 33.0352 -34.2206 -0.165397 -0.348588 -0.922567
-10.9162 33.6896 -36.4636 -0.0831366 -0.313776 -0.94585
-1.55008 35.2838 -36.571 0.19096 -0.227261 -0.954928
6.15774 36.6088 -34.0864 0.231281 -0.219122 -0.94789
12.942 37.9643 -32.9658 0.773949 -0.121414 -0.621499
-24.1927 24.4339 -30.409 -0.76313 -0.3532 -0.541185
-16.9698 25.5187 -31.4605 -0.149915 -0.34323 -0.92721
-9.24291 25.6774 -33.1404 -0.0952851 -0.346128 -0.933336
-0.632268 27.4452 -33.6539 0.193339 -0.290113 -0.937259
7.01128 29.7997 -31.1135 0.245034 -0.303702 -0.920719
13.6275 29.7921 -30.8811 0.820266 -0.0983977 -0.563455
-22.9948 16.8077 -28.033 -0.780301 -0.380985 -0.495964
-15.6846 17.8804 -29.0008 -0.156385 -0.364707 -0.917896
-7.92273 18.2117 -30.8831 -0.0875849 -0.34301 -0.93524
0.396218 19.5379 -31.4375 0.17662 -0.321456 -0.930307
7.74518 21.2034 -28.8269 0.267815 -0.26902 -0.92515
15.2573 22.9644 -27.8659 0.790262 -0.0499073 -0.610733
-20.2437 9.28149 -25.2315 -0.731108 -0.329435 -0.597456
-13.8297 10.1728 -25.6249 -0.132196 -0.426427 -0.89481
-6.57479 10.8081 -28.289 -0.10717 -0.417104 -0.902518
1.00893 12.4231 -28.0545 0.228818 -0.334267 -0.91428
8.72831 13.9175 -25.7459 0.235982 -0.392346 -0.889032
16.4176 15.0679 -25.378 0.809797 -0.196145 -0.552952
-20.307 2.19616 -23.8617 -0.705998 -0.174291 -0.686432
-13.7112 2.3728 -22.2537 -0.00218236 -0.2728 -0.962068
-5.02992 3.07438 -23.8239 -0.139743 -0.385104 -0.912232
3.2798 3.46657 -24.9945 0.20409 -0.295433 -0.933309
9.32577 6.80315 -22.2987 0.301075 -0.292233 -0.907719
17.3362 8.42689 -21.8561 0.88981 -0.108527 -0.443237
-20.4667 -5.96457 -19.9032 -0.665018 -0.328143 -0.670875
-13.3632 -4.56343 -21.147 -0.0737043 -0.350693 -0.933586
-5.31884 -3.76027 -21.9078 -0.0659749 -0.257703 -0.963969
4.5773 -4.18293 -22.6592 0.122631 -0.259824 -0.957838
10.6003 -0.583992 -20.2953 0.351308 -0.159251 -0.922617
18.1329 1.82158 -19.1485 0.894128 0.0716185 -0.442048
-18.1994 -13.8401 -17.8323 -0.550258 -0.422367 -0.720293
-12.7119 -12.1066 -16.8068 -0.0463738 -0.52313 -0.85099
-4.94849 -10.6665 -20.4203 -0.0682964 -0.543679 -0.83651
7.62012 -10.8631 -19.9081 0.0780429 -0.444309 -0.892468
13.6174 -7.8802 -18.7589 0.316166 -0.148532 -0.937004
20.1395 -5.23238 -16.4754 0.775495 0.300507 -0.555251
-16.2964 -21.4716 -14.9633 -0.443235 -0.408376 -0.79798
-9.20443 -18.4794 -12.4634 0.190707 -0.414901 -0.889656
-3.33795 -16.3255 -14.7386 -0.047393 -0.640617 -0.766397
8.41666 -15.6713 -15.066 -0.00933995 -0.639215 -0.768971
15.7733 -14.616 -16.1238 0.110358 -0.432418 -0.894894
22.4648 -11.9429 -15.5551 0.716534 0.0413351 -0.696326
-14.3626 -28.2047 -11.8901 -0.420328 -0.438683 -0.79428
-7.10148 -24.9036 -9.81631 0.270364 -0.295868 -0.916169
-0.847898 -22.3242 -10.2252 -0.0154757 -0.487673 -0.872889
9.66 -21.5349 -11.1262 -0.0653777 -0.501487 -0.862691
16.4856 -20.8919 -12.446 -0.0611824 -0.438754 -0.896522
24.7049 -19.0338 -13.285 0.637661 -0.11877 -0.761106
-12.8375 -34.7685 -9.25259 -0.478039 -0.382449 -0.790703
-5.37408 -32.0063 -7.4369 0.25462 -0.20489 -0.945086
1.67643 -29.548 -6.5803 0.019887 -0.317829 -0.947939
10.9521 -28.295 -8.21037 -0.119849 -0.37899 -0.917607
18.152 -27.6618 -9.77106 -0.123178 -0.360805 -0.924471
26.104 -26.7393 -10.933 0.582889 -0.173959 -0.793712
-11.3093 -41.9802 -6.83468 -0.547173 -0.346208 -0.762064
-3.81283 -39.3971 -5.9055 0.179161 -0.170924 -0.968858
3.64512 -37.3164 -4.95733 0.0396206 -0.153923 -0.987288
12.0294 -35.9168 -5.82842 -0.111699 -0.237003 -0.965066
20.0474 -34.8147 -7.55902 -0.117753 -0.302799 -0.945752
27.7699 -34.1166 -8.53176 0.62089 -0.133444 -0.772456
-9.97225 -49.0848 -4.68131 -0.604696 -0.333332 -0.723349
-2.28405 -47.0064 -4.27909 0.0954433 -0.190975 -0.976944
5.4085 -45.0752 -4.01332 0.02141 -0.152762 -0.988031
13.6266 -43.7582 -4.81128 -0.056351 -0.18467 -0.981184
21.4433 -42.5069 -5.59389 -0.0599973 -0.251243 -0.966063
29.2902 -41.2372 -6.15135 0.651619 -0.107771 -0.750852
-8.34805 -56.604 -2.6295 -0.646272 -0.331691 -0.687251
-0.681436 -54.679 -2.66643 0.0486128 -0.222189 -0.973791
7.03187 -53.0354 -2.83134 0.0190024 -0.202779 -0.97904
15.1609 -51.5677 -3.22628 -0.00633539 -0.223336 -0.974721
22.9675 -50.0869 -3.47957 -0.00468571 -0.261227 -0.965266
30.8054 -48.808 -3.92246 0.684337 -0.076145 -0.725179
-6.69582 -64.2605 -0.500447 -0.482119 -0.860365 -0.165327
1.0426 -62.3242 -0.775175 0.181953 -0.834984 -0.519322
8.76784 -60.6975 -0.94119 0.151978 -0.840561 -0.519961
16.6947 -59.2678 -1.13759 0.149826 -0.843216 -0.516274
24.5593 -57.6443 -1.3873 0.140434 -0.856289 -0.497038
32.4304 -56.277 -1.63648 0.476603 -0.536664 -0.696305
12.536 48.0624 -27.3928 0.9257 0.343649 -0.158065
12.6781 49.8784 -19.436 0.840299 0.541081 0.0336117
10.5844 50.9391 -11.9292 0.858232 0.506994 0.0799587
8.80744 53.6333 -6.3696 0.95277 0.30202 -0.0318271
9.27139 57.1146 2.86724 0.737095 0.379786 0.558975
14.8468 40.9682 -24.9493 0.984103 -0.0741055 -0.161402
16.9986 42.6265 -17.2085 0.997297 0.0671489 -0.02984
14.2907 44.4046 -8.45618 0.91979 0.364239 0.146004
12.561 46.5451 -2.05602 0.919277 0.385096 0.0814306
10.9514 49.3301 4.29378 0.697407 0.403403 0.592359
13.225 32.4898 -23.264 0.999754 -0.0199227 0.00971182
13.0136 34.8613 -15.4562 0.964833 -0.262035 -0.0208695
14.7565 37.1255 -6.41546 0.983656 -0.179945 -0.00644858
14.3839 38.5089 1.14869 0.98594 0.13897 0.0927886
13.2316 40.6725 7.30572 0.630663 0.376832 0.678426
13.9253 25.1616 -20.6527 0.978629 0.173658 0.110124
12.9707 27.4897 -12.9339 0.997361 0.0662305 0.0297451
12.2192 29.8027 -5.28653 0.994598 -0.0709507 -0.0757739
14.6121 31.0211 2.69229 0.993219 -0.0933745 -0.069261
13.8403 32.6826 10.8846 0.666644 0.267478 0.695731
15.4551 18.0383 -18.1907 0.985278 0.119247 0.122504
12.9033 20.0712 -10.7239 0.981399 0.189019 -0.0335854
14.2051 22.8295 -3.13586 0.963213 0.266556 -0.0341762
13.481 23.6161 4.80208 0.99566 0.0676404 -0.063927
14.7094 25.5667 12.8183 0.717478 0.191136 0.669846
13.9405 10.8434 -15.7028 0.996233 0.0355505 0.0790902
15.1399 13.034 -7.59889 0.980677 0.0482629 -0.189585
17.2586 15.7294 -0.532267 0.963553 0.260755 -0.0597805
15.475 17.3861 7.41383 0.961889 0.25895 0.0878277
14.6018 18.848 15.5836 0.656354 0.30524 0.689948
14.6019 2.33672 -11.2935 0.967774 0.219615 0.123222
15.8151 4.5834 -4.16451 0.954255 -0.0102974 -0.298816
19.1417 8.51414 2.96423 0.985914 0.14135 -0.0894076
16.4014 9.76686 9.15731 0.960354 0.232791 0.153389
15.7171 12.251 17.2065 0.641258 0.25436 0.72394
16.8454 -4.83499 -8.30002 0.800032 0.577574 0.162347
16.918 -3.08778 -1.01623 0.940582 0.186036 -0.284071
20.2025 0.429039 4.81098 0.992015 0.085287 -0.0929132
17.8147 3.2481 12.1713 0.974016 0.173659 0.145382
16.9151 5.45964 18.832 0.530576 0.341031 0.776008
23.9364 -9.42847 -8.09911 0.795283 0.605542 -0.0290625
19.976 -8.1803 -0.264695 0.722956 0.689926 -0.0365601
21.5869 -6.24672 7.68632 0.894703 0.445627 -0.0303896
18.1176 -4.79489 12.6502 0.948755 0.299249 0.101556
18.5876 -0.971732 21.3116 0.608255 0.412998 0.677833
26.2568 -16.7627 -5.9312 0.948317 0.217562 -0.231
27.2826 -13.9613 2.08712 0.861507 0.507746 0.000636171
25.2995 -12.3905 10.6911 0.822296 0.559994 0.101173
21.6747 -10.2329 16.9767 0.83993 0.521864 0.148917
20.6105 -7.77237 24.0466 0.579935 0.530522 0.618241
28.4059 -24.0804 -3.53408 0.971696 0.0820869 -0.221514
29.5023 -21.562 4.217 0.990505 0.136987 -0.0116365
28.0846 -19.174 13.5585 0.955195 0.244863 0.166263
25.0828 -17.2782 20.5789 0.891194 0.407901 0.198472
23.1018 -15.0923 26.7857 0.551972 0.478675 0.682786
29.0076 -31.649 -1.08934 0.98722 0.0620602 -0.146781
29.7077 -29.2944 6.49891 0.99802 0.0522747 0.0349913
27.7805 -26.8835 14.972 0.988246 0.0792482 0.130729
26.9873 -24.8387 22.5537 0.977131 0.186932 0.101345
25.8358 -22.6607 29.7037 0.569862 0.387653 0.724556
30.1059 -39.4507 1.43296 0.990383 0.116991 -0.0738514
29.7516 -36.9918 9.14902 0.993987 0.105952 0.0276328
28.6475 -34.4164 16.926 0.984812 0.15546 0.077307
27.974 -32.2244 24.2197 0.985075 0.171991 0.00682629
27.8725 -30.0579 32.1078 0.628289 0.345044 0.697278
30.9974 -46.9697 3.79398 0.988146 0.1462 -0.0468357
30.7353 -44.728 11.5065 0.987566 0.157083 0.00624732
30.0038 -41.9151 19.2593 0.981152 0.192726 0.0140262
29.6274 -39.5846 26.7087 0.97777 0.209085 -0.0157846
29.4067 -37.4753 34.3223 0.655672 0.354371 0.66672
32.3185 -54.2299 6.11407 0.808408 -0.564212 0.167756
32.0105 -51.9722 13.8317 0.801605 -0.565593 0.193738
31.7125 -49.7284 21.5601 0.826658 -0.52307 0.207448
31.3344 -47.0754 29.0914 0.835545 -0.511823 0.199756
31.0862 -44.8304 36.7244 0.773816 -0.388466 0.500303
1.81674 55.3356 1.42063 -0.0171292 0.387095 0.921881
-6.43378 53.9594 3.4088 -0.00783774 0.413536 0.910454
-15.4022 53.0434 3.4452 -0.149978 0.354147 0.923085
-21.6337 51.2634 2.62019 -0.0623603 0.265045 0.962217
2.87585 48.9455 5.91701 0.00553496 0.309959 0.950734
-4.58716 47.6538 7.90023 0.0453009 0.19591 0.979575
-13.8673 45.6175 7.11878 -0.171217 0.183405 0.968012
-20.7011 43.9489 4.65386 -0.098051 0.238207 0.966252
-27.7297 42.9338 5.30857 -0.673211 0.0976411 0.732975
4.45264 41.1298 9.00977 -0.0824267 0.366211 0.926874
-3.0363 38.7528 5.94438 -0.189968 0.169122 0.967114
-10.7897 37.6968 5.97346 -0.0203779 0.00833277 0.999758
-17.9591 36.5614 5.58762 0.0386845 0.161108 0.986178
-26.4676 35.5639 7.84345 -0.59441 0.0805492 0.800118
5.65215 32.8544 11.8717 0.00694463 0.309946 0.950729
-2.0754 31.7215 10.546 -0.327873 0.410056 0.85109
-9.22291 29.8498 7.47756 -0.206567 0.411985 0.887468
-16.9168 28.8021 7.98028 0.0397905 0.312908 0.94895
-25.1401 27.7022 9.61941 -0.585584 0.114297 0.802513
6.12812 24.6088 13.6169 0.0438726 0.248637 0.967603
-1.69355 23.8921 13.5977 -0.0791939 0.34749 0.934333
-8.98693 23.1204 12.6785 -0.286614 0.488448 0.824179
-16.4185 21.5363 11.2377 -0.113196 0.431494 0.894986
-24.6545 20.3264 11.5326 -0.698624 0.156637 0.698133
6.52725 16.6026 15.6041 -0.00085309 0.234491 0.972118
-1.0087 16.1542 16.2314 0.107813 0.243407 0.963914
-8.86903 16.1876 17.0521 -0.167233 0.39387 0.903825
-16.1432 14.81 14.3295 -0.241678 0.412349 0.878385
-23.7454 13.6289 13.9646 -0.791052 0.137788 0.59603
7.40413 10.0471 17.1308 -0.037841 0.227894 0.97295
0.117172 8.17584 16.9166 0.133952 0.264299 0.955093
-7.58512 8.69658 19.5169 0.0264473 0.289544 0.956799
-15.754 7.62958 17.7331 -0.239736 0.370494 0.897363
-23.1917 6.4748 16.7986 -0.855833 0.132212 0.500071
8.30793 3.09694 18.2349 0.0482695 0.27194 0.961103
1.84632 1.77525 19.7202 0.114899 0.450344 0.885431
-5.58887 1.35978 21.5376 0.0424485 0.418817 0.907078
-15.0562 0.597792 21.0294 -0.175 0.362919 0.91524
-22.3187 -1.07076 20.0779 -0.866172 0.0771531 0.493754
10.0663 -3.25885 19.8848 0.0419792 0.392263 0.918895
3.62431 -4.45487 23.5149 0.237567 0.460524 0.855266
-4.16814 -5.5793 25.7693 -0.00983051 0.46204 0.886804
-13.0503 -6.93502 24.7976 -0.194704 0.387697 0.900989
-20.5019 -8.52057 23.1397 -0.842423 0.0464852 0.536808
12.3996 -9.73199 23.5992 -0.0419261 0.435774 0.899079
5.47144 -11.228 26.3739 0.272939 0.372519 0.88698
-2.62731 -12.7376 29.052 0.0383911 0.344363 0.938051
-10.6143 -14.5544 28.1223 -0.194722 0.319372 0.927408
-18.5182 -16.3707 26.7273 -0.820186 0.0273152 0.571444
14.6777 -16.4235 27.8388 -0.0696851 0.388976 0.918608
7.43565 -18.6751 27.9214 0.15364 0.326145 0.932751
-0.545832 -20.1247 30.7932 0.105259 0.24577 0.963596
-8.63165 -22.1305 30.7154 -0.115072 0.22832 0.966762
-16.1415 -24.0639 29.8453 -0.791952 -0.0243725 0.610097
16.984 -23.7903 30.7038 -0.00814565 0.304194 0.952575
9.34195 -26.0755 30.1148 0.0183037 0.314507 0.949079
1.42611 -27.617 32.5964 0.0913773 0.246179 0.964907
-5.87119 -29.6117 32.2209 -0.0671192 0.202439 0.976992
-14.0272 -31.6744 32.1837 -0.747345 -0.0496013 0.662583
19.3229 -31.5307 32.1627 0.0161379 0.257731 0.966082
11.4421 -33.4072 33.0686 0.00692422 0.271359 0.962453
3.51829 -35.3879 34.0539 0.0389442 0.237171 0.970687
-4.00695 -37.1409 33.951 -0.0504764 0.211601 0.976052
-11.7856 -39.0945 34.1432 -0.723895 -0.0222068 0.689553
21.2249 -38.8283 34.441 -0.0293326 0.291505 0.956119
13.5738 -40.8206 34.9271 -0.00136823 0.272278 0.962218
5.69059 -42.8978 35.4979 0.00210802 0.236952 0.971519
-2.09576 -44.5907 35.7329 -0.0284934 0.234902 0.971601
-9.8472 -46.4726 36.0282 -0.710032 0.00419669 0.704157
23.1451 -46.3558 36.8701 0.121196 -0.435216 0.892131
15.3832 -48.2337 37.1964 0.154984 -0.456044 0.876358
7.63655 -50.3243 37.5372 0.156234 -0.472317 0.867472
-0.153286 -52.1331 37.8077 0.139766 -0.48031 0.865891
-7.97158 -53.9693 38.0875 -0.320967 -0.263723 0.909632
-31.165 58.0217 0.33469 -0.940975 0.253405 0.224392
-30.5181 55.8076 -7.61139 -0.782297 0.5734 -0.24336
-30.0599 53.12 -14.63 -0.770735 0.572594 -0.27947
-29.7925 50.9329 -21.9833 -0.832851 0.495855 -0.245941
-27.9888 49.0438 -30.0242 -0.8758 0.428444 -0.222284
-27.0479 47.5571 -38.0612 -0.528958 0.375676 -0.760967
-29.6252 50.0898 2.58981 -0.697318 0.0578077 0.714427
-30.8658 47.724 -5.40614 -0.993389 -0.0780201 0.084203
-30.9562 45.1421 -12.7629 -0.994858 -0.0424772 -0.0919364
-29.5817 43.198 -19.588 -0.975254 -0.123511 -0.183369
-27.6186 41.4426 -27.5494 -0.980347 -0.154708 -0.122413
-26.5588 39.586 -35.5254 -0.748377 -0.244367 -0.616617
-29.2617 40.5141 -2.51304 -0.968902 -0.154881 0.192978
-30.0699 37.9144 -9.98393 -0.973148 -0.227883 -0.0324304
-28.4916 35.779 -18.2441 -0.935218 -0.309198 -0.172523
-25.789 34.2263 -25.0772 -0.963013 -0.26174 -0.0640176
-27.5153 32.9693 0.0342512 -0.969212 -0.163107 0.184455
-28.5114 30.4994 -8.0452 -0.959623 -0.268367 -0.0842848
-25.2019 28.6981 -15.8013 -0.915498 -0.364899 -0.169446
-23.3714 26.984 -22.9264 -0.962773 -0.270305 0.00188418
-25.7311 25.1318 1.69957 -0.973981 -0.149146 0.170636
-26.5944 23.0346 -5.66883 -0.970783 -0.20565 -0.123649
-22.7631 21.4158 -12.9177 -0.936137 -0.254051 -0.243115
-21.7941 19.5719 -20.479 -0.976377 -0.214858 0.0229083
-24.0134 18.155 4.08865 -0.980123 -0.125697 0.153491
-25.8086 15.5985 -2.9323 -0.992254 -0.119229 -0.0348772
-22.5652 13.7095 -10.2675 -0.948151 -0.0724982 -0.30944
-20.8443 11.8846 -18.1192 -0.989548 -0.0510054 -0.134883
-22.6259 10.8694 6.57209 -0.985073 -0.099446 0.140504
-24.4529 7.7808 0.106926 -0.995252 -0.0260777 0.0937678
-23.4522 5.54999 -8.01775 -0.97105 -0.0153314 -0.238384
-21.6072 3.81987 -15.4767 -0.979999 -0.00109918 -0.199
-21.2323 4.16556 9.04932 -0.984666 -0.10086 0.14234
-24.3254 0.314441 3.50008 -0.971377 -0.0138285 0.237142
-24.6828 -2.36498 -4.84963 -0.980829 -0.0851192 -0.175295
-21.9209 -3.85851 -13.0525 -0.962986 -0.160002 -0.216926
-20.3368 -2.96638 11.8985 -0.985351 -0.161281 0.0554329
-22.9973 -6.93294 5.7347 -0.91191 -0.149853 0.382053
-24.1442 -10.0739 -1.34714 -0.969773 -0.221795 -0.10172
-20.0417 -11.5672 -10.3027 -0.925641 -0.269178 -0.265956
-19.3435 -10.4664 14.9898 -0.974026 -0.223833 -0.0342385
-19.5262 -13.6481 8.12214 -0.915512 -0.237607 0.324624
-21.736 -17.1242 1.10009 -0.937056 -0.336231 0.0942053
-19.1122 -19.1775 -7.00969 -0.912969 -0.322674 -0.24974
-17.7904 -18.0914 17.9937 -0.96332 -0.259909 -0.0667969
-16.7434 -20.5758 11.1372 -0.949556 -0.243415 0.197716
-18.7745 -23.8549 3.62237 -0.945635 -0.296069 0.134599
-17.057 -26.0973 -4.15162 -0.918521 -0.357701 -0.168432
-16.0521 -25.8289 21.0205 -0.956901 -0.28565 -0.0523919
-14.1649 -27.7708 13.8477 -0.960839 -0.251098 0.117211
-16.5539 -30.8922 6.23786 -0.952218 -0.268166 0.146177
-14.8625 -33.065 -1.47796 -0.938929 -0.316021 -0.136174
-13.5542 -33.3639 23.7088 -0.957602 -0.287518 -0.0182189
-12.3004 -35.3077 16.3267 -0.967955 -0.243677 0.060706
-13.8954 -38.0599 8.3279 -0.951133 -0.268883 0.151815
-12.8834 -40.2238 0.918539 -0.951691 -0.295687 -0.0827884
-11.3292 -40.7975 25.8951 -0.967206 -0.253983 -0.00242301
-10.7091 -42.5854 18.5328 -0.975044 -0.219834 0.0310194
-11.2413 -45.4496 10.6841 -0.961123 -0.25343 0.109617
-10.7487 -47.4797 3.07754 -0.961712 -0.273503 -0.0174739
-9.53961 -48.2516 28.259 -0.973544 -0.227878 0.0168377
-9.2483 -50.3362 20.6615 -0.977841 -0.208508 0.0187566
-9.04258 -52.7991 12.8837 -0.971669 -0.228795 0.0592574
-8.84396 -54.889 5.23627 -0.970327 -0.241373 0.0143197
-7.7667 -55.8503 30.4674 -0.53306 -0.823002 0.196253
-7.5204 -58.0015 22.7855 -0.534976 -0.818189 0.210637
-7.20815 -60.2795 15.0229 -0.527743 -0.821685 0.215223
-7.01172 -62.3471 7.33496 -0.518665 -0.830465 0.203256
0.739411 -60.4935 7.0369 0.224127 -0.942188 0.249096
8.56056 -58.7771 6.7905 0.201627 -0.946846 0.250658
16.4461 -57.2928 6.59689 0.200527 -0.944243 0.261138
24.3024 -55.5415 6.32183 0.188853 -0.944517 0.268743
0.586071 -58.3156 14.7644 0.222309 -0.938182 0.265319
8.37312 -56.7076 14.553 0.209971 -0.9397 0.269954
16.2327 -55.0763 14.291 0.204734 -0.937566 0.281164
24.0502 -53.3439 13.9934 0.193049 -0.940778 0.278691
0.367626 -56.2172 22.424 0.223194 -0.936597 0.27013
8.16485 -54.5692 22.1687 0.219514 -0.935447 0.277043
15.9401 -52.6992 21.9227 0.21328 -0.933002 0.289861
23.8028 -51.0851 21.7017 0.19239 -0.934696 0.298882
0.116031 -54.111 30.1737 0.225001 -0.939713 0.257515
7.9283 -52.259 29.8841 0.233729 -0.934929 0.266982
15.7175 -50.3955 29.5611 0.226567 -0.931382 0.284947
23.4948 -48.709 29.3452 0.20236 -0.933905 0.294741
3 273 272 1
3 272 271 2
3 271 270 3
3 270 269 4
3 269 268 5
3 0 1 7
3 1 2 8
3 2 3 9
3 3 4 10
3 4 5 11
3 6 7 13
3 7 8 14
3 8 9 15
3 9 10 16
3 10 11 17
3 12 13 19
3 13 14 20
3 14 15 21
3 15 16 22
3 16 17 23
3 18 19 25
3 19 20 26
3 20 21 27
3 21 22 28
3 22 23 29
3 273 0 30
3 0 6 31
3 6 12 32
3 12 18 33
3 18 24 34
3 279 30 36
3 30 31 37
3 31 32 38
3 32 33 39
3 33 34 40
3 35 36 42
3 36 37 43
3 37 38 44
3 38 39 45
3 39 40 46
3 41 42 48
3 42 43 49
3 43 44 50
3 44 45 51
3 45 46 52
3 47 48 54
3 48 49 55
3 49 50 56
3 50 51 57
3 51 52 58
3 53 54 60
3 54 55 61
3 55 56 62
3 56 57 63
3 57 58 64
3 59 60 66
3 60 61 67
3 61 62 68
3 62 63 69
3 63 64 70
3 65 66 72
3 66 67 73
3 67 68 74
3 68 69 75
3 69 70 76
3 71 72 78
3 72 73 79
3 73 74 80
3 74 75 81
3 75 76 82
3 77 78 84
3 78 79 85
3 79 80 86
3 80 81 87
3 81 82 88
3 83 84 90
3 84 85 91
3 85 86 92
3 86 87 93
3 87 88 94
3 89 90 96
3 90 91 97
3 91 92 98
3 92 93 99
3 93 94 100
3 95 96 102
3 96 97 103
3 97 98 104
3 98 99 105
3 99 100 106
3 101 102 108
3 102 103 109
3 103 104 110
3 104 105 111
3 105 106 112
3 107 108 114
3 108 109 115
3 109 110 116
3 110 111 117
3 111 112 118
3 24 25 119
3 25 26 120
3 26 27 121
3 27 28 122
3 28 29 123
3 34 119 124
3 119 120 125
3 120 121 126
3 121 122 127
3 122 123 128
3 40 124 129
3 124 125 130
3 125 126 131
3 126 127 132
3 127 128 133
3 46 129 134
3 129 130 135
3 130 131 136
3 131 132 137
3 132 133 138
3 52 134 139
3 134 135 140
3 135 136 141
3 136 137 142
3 137 138 143
3 58 139 144
3 139 140 145
3 140 141 146
3 141 142 147
3 142 143 148
3 64 144 149
3 144 145 150
3 145 146 151
3 146 147 152
3 147 148 153
3 70 149 154
3 149 150 155
3 150 151 156
3 151 152 157
3 152 153 158
3 76 154 159
3 154 155 160
3 155 156 161
3 156 157 162
3 157 158 163
3 82 159 164
3 159 160 165
3 160 161 166
3 161 162 167
3 162 163 168
3 88 164 169
3 164 165 170
3 165 166 171
3 166 167 172
3 167 168 173
3 94 169 174
3 169 170 175
3 170 171 176
3 171 172 177
3 172 173 178
3 100 174 179
3 174 175 180
3 175 176 181
3 176 177 182
3 177 178 183
3 106 179 184
3 179 180 185
3 180 181 186
3 181 182 187
3 182 183 188
3 112 184 189
3 184 185 190
3 185 186 191
3 186 187 192
3 187 188 193
3 29 23 194
3 23 17 195
3 17 11 196
3 11 5 197
3 5 268 274
3 123 194 198
3 194 195 199
3 195 196 200
3 196 197 201
3 197 274 202
3 128 198 203
3 198 199 204
3 199 200 205
3 200 201 206
3 201 202 207
3 133 203 208
3 203 204 209
3 204 205 210
3 205 206 211
3 206 207 212
3 138 208 213
3 208 209 214
3 209 210 215
3 210 211 216
3 211 212 217
3 143 213 218
3 213 214 219
3 214 215 220
3 215 216 221
3 216 217 222
3 148 218 223
3 218 219 224
3 219 220 225
3 220 221 226
3 221 222 227
3 153 223 228
3 223 224 229
3 224 225 230
3 225 226 231
3 226 227 232
3 158 228 233
3 228 229 234
3 229 230 235
3 230 231 236
3 231 232 237
3 163 233 238
3 233 234 239
3 234 235 240
3 235 236 241
3 236 237 242
3 168 238 243
3 238 239 244
3 239 240 245
3 240 241 246
3 241 242 247
3 173 243 248
3 243 244 249
3 244 245 250
3 245 246 251
3 246 247 252
3 178 248 253
3 248 249 254
3 249 250 255
3 250 251 256
3 251 252 257
3 183 253 258
3 253 254 259
3 254 255 260
3 255 256 261
3 256 257 262
3 188 258 263
3 258 259 264
3 259 260 265
3 260 261 266
3 261 262 267
3 268 269 275
3 269 270 276
3 270 271 277
3 271 272 278
3 272 273 279
3 274 275 280
3 275 276 281
3 276 277 282
3 277 278 283
3 278 279 35
3 202 280 284
3 280 281 285
3 281 282 286
3 282 283 287
3 283 35 41
3 207 284 288
3 284 285 289
3 285 286 290
3 286 287 291
3 287 41 47
3 212 288 292
3 288 289 293
3 289 290 294
3 290 291 295
3 291 47 53
3 217 292 296
3 292 293 297
3 293 294 298
3 294 295 299
3 295 53 59
3 222 296 300
3 296 297 301
3 297 298 302
3 298 299 303
3 299 59 65
3 227 300 304
3 300 301 305
3 301 302 306
3 302 303 307
3 303 65 71
3 232 304 308
3 304 305 309
3 305 306 310
3 306 307 311
3 307 71 77
3 237 308 312
3 308 309 313
3 309 310 314
3 310 311 315
3 311 77 83
3 242 312 316
3 312 313 317
3 313 314 318
3 314 315 319
3 315 83 89
3 247 316 320
3 316 317 321
3 317 318 322
3 318 319 323
3 319 89 95
3 252 320 324
3 320 321 325
3 321 322 326
3 322 323 327
3 323 95 101
3 257 324 328
3 324 325 329
3 325 326 330
3 326 327 331
3 327 101 107
3 262 328 332
3 328 329 333
3 329 330 334
3 330 331 335
3 331 107 113
3 113 114 336
3 114 115 337
3 115 116 338
3 116 117 339
3 117 118 189
3 335 336 340
3 336 337 341
3 337 338 342
3 338 339 343
3 339 189 190
3 334 340 344
3 340 341 345
3 341 342 346
3 342 343 347
3 343 190 191
3 333 344 348
3 344 345 349
3 345 346 350
3 346 347 351
3 347 191 192
3 332 348 266
3 348 349 265
3 349 350 264
3 350 351 263
3 351 192 193
3 273 1 0
3 272 2 1
3 271 3 2
3 270 4 3
3 269 5 4
3 0 7 6
3 1 8 7
3 2 9 8
3 3 10 9
3 4 11 10
3 6 13 12
3 7 14 13
3 8 15 14
3 9 16 15
3 10 17 16
3 12 19 18
3 13 20 19
3 14 21 20
3 15 22 21
3 16 23 22
3 18 25 24
3 19 26 25
3 20 27 26
3 21 28 27
3 22 29 28
3 273 30 279
3 0 31 30
3 6 32 31
3 12 33 32
3 18 34 33
3 279 36 35
3 30 37 36
3 31 38 37
3 32 39 38
3 33 40 39
3 35 42 41
3 36 43 42
3 37 44 43
3 38 45 44
3 39 46 45
3 41 48 47
3 42 49 48
3 43 50 49
3 44 51 50
3 45 52 51
3 47 54 53
3 48 55 54
3 49 56 55
3 50 57 56
3 51 58 57
3 53 60 59
3 54 61 60
3 55 62 61
3 56 63 62
3 57 64 63
3 59 66 65
3 60 67 66
3 61 68 67
3 62 69 68
3 63 70 69
3 65 72 71
3 66 73 72
3 67 74 73
3 68 75 74
3 69 76 75
3 71 78 77
3 72 79 78
3 73 80 79
3 74 81 80
3 75 82 81
3 77 84 83
3 78 85 84
3 79 86 85
3 80 87 86
3 81 88 87
3 83 90 89
3 84 91 90
3 85 92 91
3 86 93 92
3 87 94 93
3 89 96 95
3 90 97 96
3 91 98 97
3 92 99 98
3 93 100 99
3 95 102 101
3 96 103 102
3 97 104 103
3 98 105 104
3 99 106 105
3 101 108 107
3 102 109 108
3 103 110 109
3 104 111 110
3 105 112 111
3 107 114 113
3 108 115 114
3 109 116 115
3 110 117 116
3 111 118 117
3 24 119 34
3 25 120 119
3 26 121 120
3 27 122 121
3 28 123 122
3 34 124 40
3 119 125 124
3 120 126 125
3 121 127 126
3 122 128 127
3 40 129 46
3 124 130 129
3 125 131 130
3 126 132 131
3 127 133 132
3 46 134 52
3 129 135 134
3 130 136 135
3 131 137 136
3 132 138 137
3 52 139 58
3 134 140 139
3 135 141 140
3 136 142 141
3 137 143 142
3 58 144 64
3 139 145 144
3 140 146 145
3 141 147 146
3 142 148 147
3 64 149 70
3 144 150 149
3 145 151 150
3 146 152 151
3 147 153 152
3 70 154 76
3 149 155 154
3 150 156 155
3 151 157 156
3 152 158 157
3 76 159 82
3 154 160 159
3 155 161 160
3 156 162 161
3 157 163 162
3 82 164 88
3 159 165 164
3 160 166 165
3 161 167 166
3 162 168 167
3 88 169 94
3 164 170 169
3 165 171 170
3 166 172 171
3 167 173 172
3 94 174 100
3 169 175 174
3 170 176 175
3 171 177 176
3 172 178 177
3 100 179 106
3 174 180 179
3 175 181 180
3 176 182 181
3 177 183 182
3 106 184 112
3 179 185 184
3 180 186 185
3 181 187 186
3 182 188 187
3 112 189 118
3 184 190 189
3 185 191 190
3 186 192 191
3 187 193 192
3 29 194 123
3 23 195 194
3 17 196 195
3 11 197 196
3 5 274 197
3 123 198 128
3 194 199 198
3 195 200 199
3 196 201 200
3 197 202 201
3 128 203 133
3 198 204 203
3 199 205 204
3 200 206 205
3 201 207 206
3 133 208 138
3 203 209 208
3 204 210 209
3 205 211 210
3 206 212 211
3 138 213 143
3 208 214 213
3 209 215 214
3 210 216 215
3 211 217 216
3 143 218 148
3 213 219 218
3 214 220 219
3 215 221 220
3 216 222 221
3 148 223 153
3 218 224 223
3 219 225 224
3 220 226 225
3 221 227 226
3 153 228 158
3 223 229 228
3 224 230 229
3 225 231 230
3 226 232 231
3 158 233 163
3 228 234 233
3 229 235 234
3 230 236 235
3 231 237 236
3 163 238 168
3 233 239 238
3 234 240 239
3 235 241 240
3 236 242 241
3 168 243 173
3 238 244 243
3 239 245 244
3 240 246 245
3 241 247 246
3 173 248 178
3 243 249 248
3 244 250 249
3 245 251 250
3 246 252 251
3 178 253 183
3 248 254 253
3 249 255 254
3 250 256 255
3 251 257 256
3 183 258 188
3 253 259 258
3 254 260 259
3 255 261 260
3 256 262 261
3 188 263 193
3 258 264 263
3 259 265 264
3 260 266 265
3 261 267 266
3 268 275 274
3 269 276 275
3 270 277 276
3 271 278 277
3 272 279 278
3 274 280 202
3 275 281 280
3 276 282 281
3 277 283 282
3 278 35 283
3 202 284 207
3 280 285 284
3 281 286 285
3 282 287 286
3 283 41 287
3 207 288 212
3 284 289 288
3 285 290 289
3 286 291 290
3 287 47 291
3 212 292 217
3 288 293 292
3 289 294 293
3 290 295 294
3 291 53 295
3 217 296 222
3 292 297 296
3 293 298 297
3 294 299 298
3 295 59 299
3 222 300 227
3 296 301 300
3 297 302 301
3 298 303 302
3 299 65 303
3 227 304 232
3 300 305 304
3 301 306 305
3 302 307 306
3 303 71 307
3 232 308 237
3 304 309 308
3 305 310 309
3 306 311 310
3 307 77 311
3 237 312 242
3 308 313 312
3 309 314 313
3 310 315 314
3 311 83 315
3 242 316 247
3 312 317 316
3 313 318 317
3 314 319 318
3 315 89 319
3 247 320 252
3 316 321 320
3 317 322 321
3 318 323 322
3 319 95 323
3 252 324 257
3 320 325 324
3 321 326 325
3 322 327 326
3 323 101 327
3 257 328 262
3 324 329 328
3 325 330 329
3 326 331 330
3 327 107 331
3 262 332 267
3 328 333 332
3 329 334 333
3 330 335 334
3 331 113 335
3 113 336 335
3 114 337 336
3 115 338 337
3 116 339 338
3 117 189 339
3 335 340 334
3 336 341 340
3 337 342 341
3 338 343 342
3 339 190 343
3 334 344 333
3 340 345 344
3 341 346 345
3 342 347 346
3 343 191 347
3 333 348 332
3 344 349 348
3 345 350 349
3 346 351 350
3 347 192 351
3 332 266 267
3 348 265 266
3 349 264 265
3 350 263 264
3 351 193 263
