ply
format ascii 1.0
element vertex 352
property float x
property float y
property float z
property float nx
property float ny
property float nz
element face 700
property list uchar int vertex_indices
end_header
-17.4269 56.3856 -25.5924 0.0282809 0.695158 -0.7183
-17.7973 56.8111 -17.3709 -0.0848247 0.99637 0.00715864
-18.1619 56.3953 -8.12529 0.024343 0.997387 -0.0680181
-19.4929 57.1805 -2.5144 -0.00557166 0.995797 -0.0914236
-19.0925 57.7074 6.22006 -0.0200554 0.995818 -0.089125
-20.1625 58.7136 14.4095 -0.081573 0.803406 0.589818
-9.00575 57.4708 -24.1955 0.0101635 0.704839 -0.709295
-10.3598 57.3178 -16.2151 -0.134351 0.988836 0.0644436
-10.3393 55.3761 -8.36284 -0.0998068 0.994851 0.0175971
-11.0999 57.0539 -1.95924 -0.000383953 0.989645 -0.143539
-12.0482 58.0214 6.78508 -0.0165281 0.995575 -0.0925054
-13.7977 58.8995 16.5278 -0.091317 0.812361 0.57596
-1.85216 57.789 -23.9177 -0.0220792 0.66372 -0.747655
-2.28988 58.0614 -16.8584 -0.108422 0.994064 -0.00899785
-3.66975 57.9276 -8.51731 -0.183606 0.982581 0.028714
-4.34603 57.8142 -0.480996 -0.156574 0.985425 -0.066504
-3.84896 58.2335 7.25476 -0.0697094 0.99634 -0.049471
-4.43453 58.9762 16.2276 -0.0522134 0.841972 0.536989
7.01331 58.8262 -23.6579 -0.044955 0.665528 -0.745018
5.60797 59.2456 -15.2474 -0.129646 0.990922 -0.0355696
5.7624 59.0898 -7.71236 -0.134596 0.990411 0.031164
4.44913 58.9541 0.432828 -0.0803615 0.996207 -0.0333773
3.3633 59.5199 8.91587 -0.119768 0.992605 -0.0197624
3.99608 58.8115 17.7014 -0.112183 0.777995 0.618173
16.2721 58.9963 -23.8782 0.7481 0.528272 -0.401591
14.1663 60.1148 -15.1325 0.550149 0.834487 0.0310915
13.333 60.535 -6.39819 0.597724 0.799025 0.0654664
14.3941 59.4173 1.21258 0.579154 0.81229 0.0690348
12.4051 59.7916 9.12898 0.605419 0.794057 0.0542374
10.7505 60.3874 17.9205 0.259288 0.723786 0.639456
-16.9491 48.8322 -25.2193 0.113595 -0.120631 -0.986177
-8.29745 49.4801 -24.5186 0.108474 -0.0157579 -0.993974
-0.162082 50.2684 -23.6583 0.119042 -0.0294148 -0.992453
7.46542 50.9273 -22.6528 0.0568281 -0.0904582 -0.994278
15.8455 52.1373 -22.4985 0.663728 -0.0810067 -0.743574
-23.4802 39.0514 -23.5572 -0.652703 -0.24606 -0.716543
-16 40.6626 -23.7362 0.00847641 -0.221039 -0.975228
-7.63975 41.5135 -24.049 0.0897688 -0.15359 -0.984049
0.758128 42.4539 -23.1358 0.130978 -0.147495 -0.980352
8.29575 43.1172 -21.7294 0.0586877 -0.107199 -0.992504
16.3923 44.03 -22.0119 0.688528 0.0181145 -0.724983
-22.2404 31.1428 -21.9295 -0.669752 -0.261087 -0.695173
-14.4636 32.6265 -21.5909 -0.0327232 -0.18488 -0.982216
-6.42492 33.775 -22.5401 0.0799705 -0.118986 -0.98967
1.32975 34.9059 -20.7097 0.134277 -0.146178 -0.980103
9.14115 35.5631 -20.5325 -0.00641242 -0.159347 -0.987202
17.3182 36.021 -21.4386 0.646028 0.00158576 -0.763312
-21.1907 23.5577 -20.4708 -0.692828 -0.250692 -0.676123
-13.3632 25.2336 -20.4616 -0.0966844 -0.163685 -0.981763
-5.39984 26.1501 -22.1901 -0.0072991 -0.0347349 -0.99937
2.55181 27.1514 -20.4735 0.19717 0.0348879 -0.979748
10.2107 27.7772 -19.7138 -0.0153135 -0.0997079 -0.994899
18.4125 28.5715 -20.5681 0.626714 -0.0010876 -0.779249
-19.2907 15.4632 -19.1265 -0.705974 -0.290343 -0.645989
-11.6534 17.198 -19.0555 -0.167651 -0.188789 -0.967601
-4.1998 18.2915 -21.8232 -0.145294 -0.061558 -0.987472
3.94412 19.4057 -21.4523 0.226351 0.10744 -0.968102
11.4586 19.8435 -18.7019 0.0779785 -0.027243 -0.996583
19.595 20.7727 -19.8709 0.637673 0.0055681 -0.770287
-17.507 8.62722 -18.2191 -0.771862 -0.219675 -0.596634
-9.67528 9.18082 -17.4239 -0.219719 -0.130195 -0.966837
-3.10565 10.3879 -21.5371 -0.260903 -0.108658 -0.959231
5.074 11.766 -22.3061 0.176677 0.021047 -0.984044
12.8618 12.3721 -18.7053 0.186609 0.0456179 -0.981375
20.9303 13.0284 -19.0578 0.683457 0.0445291 -0.728631
-16.7085 1.57325 -17.0026 -0.806812 0.0444487 -0.589133
-9.68 1.78781 -17.1618 -0.255586 0.0300208 -0.96632
-2.66588 2.62754 -21.1366 -0.314805 0.0667767 -0.946804
5.42057 3.92566 -21.6333 0.134618 0.127856 -0.982614
13.8084 5.10326 -18.7271 0.197933 0.0869566 -0.976351
22.0075 6.06028 -18.945 0.764122 0.0511733 -0.643038
-18.3622 -5.43789 -18.2379 -0.732573 0.31614 -0.602821
-9.8459 -4.97835 -18.2175 -0.195859 0.258452 -0.945961
-2.96655 -4.81277 -21.9242 -0.32394 0.103964 -0.940348
6.86401 -3.95305 -24.1662 0.0436957 0.198673 -0.979091
15.3021 -2.52922 -20.4264 0.28829 0.281848 -0.915123
22.8052 -1.49138 -19.058 0.85321 0.114323 -0.508884
-18.2602 -12.2335 -19.2848 -0.817311 -0.00647663 -0.576161
-11.1355 -11.6907 -21.2924 -0.182442 0.156844 -0.970626
-2.83749 -12.107 -22.9665 -0.165999 0.0457076 -0.985066
7.26977 -11.8103 -24.3776 -0.0326946 -0.0900478 -0.995401
17.031 -10.3865 -23.0567 0.294829 0.107482 -0.949486
22.9568 -9.34948 -19.4449 0.898243 0.232293 -0.373096
-17.6129 -20.8244 -18.8733 -0.846909 -0.265152 -0.460912
-10.4128 -19.8045 -21.3673 -0.233308 -0.147318 -0.961179
-1.75087 -19.4772 -22.8115 -0.0551738 -0.0883927 -0.994556
7.05568 -19.36 -22.0368 0.0336203 -0.180855 -0.982935
16.3864 -18.3732 -22.1351 0.128062 -0.192799 -0.972846
24.073 -17.2392 -20.1388 0.874552 0.0189806 -0.484559
-15.9578 -29.2004 -17.7406 -0.852098 -0.176355 -0.492776
-8.69813 -28.4917 -19.2027 -0.193723 -0.237771 -0.951807
-0.682378 -27.322 -21.4037 -0.0955929 -0.256907 -0.961697
8.03532 -26.6633 -21.3353 0.079477 -0.15734 -0.984341
15.6666 -26.057 -20.098 0.07443 -0.142662 -0.986969
24.0054 -25.2441 -19.6664 0.793658 -0.0461544 -0.606611
-15.1557 -36.7775 -17.5805 -0.782488 -0.0735951 -0.618301
-7.38679 -35.9973 -18.0861 -0.0829608 -0.0910288 -0.992387
0.518679 -35.2292 -18.8574 -0.085008 -0.190301 -0.978038
8.45471 -34.3874 -19.3432 -0.00856138 -0.1763 -0.984299
16.3688 -33.5931 -19.2762 0.0274964 -0.0928116 -0.995304
24.4132 -33.0592 -19.4372 0.725544 0.033842 -0.687343
-14.6377 -44.5567 -17.4477 -0.748768 -0.0658006 -0.659558
-6.60949 -43.7433 -17.8058 -0.0438805 -0.0183258 -0.998869
1.46387 -42.9149 -18.1286 -0.0479807 -0.0457857 -0.997798
9.17092 -42.3866 -18.5534 -0.0494438 -0.0692213 -0.996375
17.1893 -41.6579 -19.0163 -0.0215967 -0.0452841 -0.998741
25.2951 -40.8298 -19.1041 0.698741 0.0559446 -0.713184
-13.7349 -52.2702 -17.5799 -0.734823 -0.0623841 -0.675383
-5.85408 -51.7008 -17.806 -0.0349198 0.0018887 -0.999388
2.16165 -50.9804 -18.1389 -0.033693 -0.00578528 -0.999416
10.0844 -50.0965 -18.3502 -0.0371637 -0.0169599 -0.999165
18.0041 -49.5591 -18.7169 -0.0363283 -0.0305724 -0.998872
26.036 -48.81 -18.9384 0.688543 0.0485596 -0.723568
-12.9435 -60.2469 -17.7096 -0.611544 -0.719883 -0.328301
-4.98589 -59.4866 -17.8985 0.0452906 -0.70331 -0.709439
2.95409 -58.9396 -18.0833 0.0400132 -0.711198 -0.701852
10.8804 -58.145 -18.3146 0.0485137 -0.707456 -0.705091
18.8331 -57.3542 -18.5649 0.0445263 -0.716248 -0.696423
26.7694 -56.6198 -18.791 0.418748 -0.388879 -0.820623
16.0896 52.6404 -14.8874 0.986928 0.141163 0.0777545
14.6303 52.8282 -6.40374 0.96187 0.209026 0.176392
13.0992 52.7453 1.73889 0.991547 0.018646 0.128402
12.3741 52.0742 9.3035 0.995675 -0.0382665 0.0846551
11.7796 52.3467 17.4988 0.647242 0.0362878 0.76142
16.3988 44.8599 -13.9884 0.995316 0.0939223 -0.0229177
16.7252 44.9594 -6.11165 0.973482 0.146087 0.176041
14.2736 44.7611 2.06687 0.950108 0.108727 0.292359
11.8393 44.394 9.54275 0.995932 -0.000356128 0.0901018
12.2505 44.3713 17.5861 0.668745 -0.00837441 0.743445
17.6689 36.7749 -13.534 0.988235 0.150104 -0.0293446
17.5831 37.2178 -5.41175 0.968534 0.167993 0.183632
14.6519 36.8829 2.10784 0.92028 0.104949 0.376921
11.7273 36.6296 9.31076 0.990747 0.0255322 0.133299
12.3592 36.9571 17.8292 0.671499 0.0396522 0.739944
18.8191 28.8908 -12.9569 0.990399 0.122078 -0.0648655
19.1594 29.4308 -4.82435 0.965422 0.191415 0.176975
15.8378 29.3119 2.81537 0.869621 0.198916 0.451876
12.0608 28.8838 9.4698 0.978082 0.10239 0.181304
12.7515 29.388 18.0064 0.673535 0.0652999 0.736265
19.5238 21.0451 -12.1477 0.991723 0.104784 -0.0741947
20.4252 21.4541 -3.97422 0.979351 0.170327 0.108906
17.5735 21.4378 3.63191 0.847815 0.244174 0.470732
12.9065 21.0798 10.2532 0.9461 0.181072 0.268527
13.4663 21.7129 18.4534 0.647541 0.096284 0.755923
20.313 13.2417 -11.4635 0.991592 0.102617 -0.0788386
21.6387 13.1333 -2.91236 0.989251 0.131983 0.0629446
19.8562 13.1012 4.49937 0.895206 0.176568 0.409181
14.7807 13.0394 11.108 0.899657 0.262256 0.349055
14.0738 13.9872 19.2812 0.596552 0.19871 0.777586
20.4391 6.05976 -11.4456 0.980404 0.0943889 -0.172915
23.0423 6.54661 -3.14315 0.94443 0.32451 0.0523878
19.8352 5.99001 4.3703 0.876432 0.298181 0.378094
16.9456 5.81 11.4284 0.916181 0.274479 0.292017
15.649 6.95672 19.6141 0.579017 0.203469 0.789519
20.105 -1.72329 -11.487 0.972951 -0.013668 -0.230608
26.5562 -0.863812 -3.01148 0.946537 0.203269 -0.2505
24.0241 -1.23718 5.70089 0.786882 0.475654 0.393154
19.3211 -0.92695 13.3225 0.849922 0.412777 0.327486
17.9992 -0.69742 19.9628 0.469178 0.290262 0.834039
20.2256 -9.36965 -11.1248 0.995153 0.0852814 -0.0489545
25.4813 -8.72045 -3.39359 0.864093 -0.121517 -0.488443
29.0759 -9.38358 6.1723 0.952012 0.201353 0.230499
22.6512 -8.5642 14.1271 0.846977 0.300741 0.438389
20.1892 -7.97483 22.0443 0.497841 0.196395 0.844738
23.2059 -16.6459 -11.2353 0.982101 0.174633 0.0705718
23.0853 -16.7963 -3.60363 0.939819 -0.0431181 -0.338942
28.759 -16.688 5.9192 0.977488 -0.19133 -0.0889345
24.4541 -16.6519 13.6189 0.903819 0.0565573 0.424161
21.5991 -16.1367 20.8476 0.504389 0.0158331 0.863331
23.2727 -24.6792 -10.9839 0.999165 0.039324 -0.0110827
24.3133 -24.3928 -3.3486 0.986484 0.0762725 -0.145022
25.9265 -24.4905 4.77441 0.996138 -0.054312 -0.0689883
24.0638 -24.2932 13.1795 0.976202 -0.0322673 0.21445
23.1807 -24.2568 20.7946 0.48828 0.0423799 0.871657
24.0021 -32.8269 -11.1731 0.99466 0.102964 -0.00701878
24.7018 -32.3722 -3.1083 0.987801 0.0590839 -0.144078
26.4502 -32.3413 4.94883 0.998268 0.0482167 -0.0337027
24.9446 -32.2082 12.9342 0.984719 0.112341 0.133072
24.275 -31.8473 20.7786 0.590491 0.108204 0.799758
25.1556 -40.4842 -10.9876 0.991261 0.131799 -0.00558653
25.4468 -40.4202 -3.08404 0.992016 0.101311 -0.0751022
26.4149 -40.3372 5.00803 0.997313 0.0455965 -0.0573419
25.9208 -40.1943 13.1046 0.99234 0.102508 0.0689439
25.4599 -39.7475 20.9349 0.640309 0.126833 0.757574
26.2005 -48.4757 -10.8673 0.993494 0.111791 -0.0217278
26.4149 -48.3191 -2.8974 0.992778 0.115061 -0.0339443
26.7449 -48.3607 5.09563 0.99565 0.0842127 -0.0398606
26.7973 -48.147 13.2183 0.994675 0.102883 0.00608344
26.6971 -47.7804 21.1606 0.683994 0.111876 0.720858
27.0509 -56.5514 -10.787 0.776074 -0.630478 -0.0143552
27.3081 -56.2763 -2.76193 0.777953 -0.628285 -0.00684653
27.5205 -56.2107 5.21944 0.770508 -0.63731 -0.0124127
27.6709 -56.0244 13.2515 0.772435 -0.635035 0.00870985
27.7885 -55.6664 21.2868 0.735423 -0.57893 0.352125
3.55878 52.2697 16.9576 0.021551 -0.0308766 0.999291
-3.9737 51.7989 17.7782 -0.0313235 0.0863452 0.995773
-12.2141 51.2527 16.7013 -0.112497 0.126416 0.985578
-19.853 50.8839 15.7045 -0.120728 0.133464 0.983673
4.04308 44.1436 17.2178 0.00788537 -0.0230283 0.999704
-3.78287 43.6903 17.7456 0.117614 0.0160988 0.992929
-11.9082 43.3949 18.2984 -0.0933814 0.149801 0.984297
-19.6638 42.8332 16.9738 -0.109576 0.153519 0.982051
-27.4755 42.6446 16.7079 -0.741145 0.0615414 0.668518
4.1923 36.0461 16.6352 0.00929251 0.0403378 0.999143
-3.46764 35.4996 17.1554 0.194356 0.0945059 0.976368
-11.3854 35.3874 19.8005 0.0134162 0.162178 0.98667
-19.4707 34.7481 18.3083 -0.15679 0.163638 0.973981
-27.1313 34.0818 17.6739 -0.745008 0.0274632 0.66649
4.13072 27.892 17.0489 0.116257 0.0779416 0.990156
-3.23701 27.0787 19.2758 0.247385 0.231084 0.940957
-10.8116 27.1682 21.7467 0.036113 0.241615 0.9697
-18.971 26.4881 20.0172 -0.210055 0.192371 0.958577
-26.3603 25.8624 18.7232 -0.782183 0.0350433 0.622062
4.5983 20.1157 17.1704 0.176564 0.013739 0.984193
-3.08199 18.7346 21.7903 0.37659 0.0789068 0.923013
-10.0773 18.8279 23.9536 0.0556829 0.12681 0.990363
-18.4363 18.4238 21.9256 -0.244975 0.145752 0.958511
-25.8023 17.8272 20.0298 -0.810967 0.0145979 0.58491
5.75269 13.0519 17.1032 0.0914642 0.142266 0.985594
-1.90633 12.0412 20.6784 0.365612 0.128795 0.921813
-8.8003 11.6913 23.0307 0.132681 0.0689188 0.98876
-16.9954 11.0259 22.8244 -0.174635 0.12143 0.977117
-24.9274 10.1591 20.7542 -0.802559 -0.00752519 0.596526
7.23063 5.87883 18.4853 0.145579 0.14802 0.978211
0.0344229 4.64442 22.4437 0.316277 0.231038 0.920103
-7.58816 3.69456 24.4131 0.131255 0.174021 0.975955
-16.5469 2.67287 24.7664 -0.0695211 0.172378 0.982575
-22.5931 1.96172 23.6093 -0.779676 0.0287871 0.625521
9.3849 -1.60638 19.0003 0.148336 0.109853 0.982817
1.58138 -2.70602 23.4436 0.380068 0.131976 0.915495
-5.93392 -4.25256 25.2279 0.0725218 0.0939127 0.992935
-14.7466 -5.55183 25.8695 0.0284258 -0.0165901 0.999458
-20.7023 -5.93235 25.3484 -0.747629 -0.0566919 0.661693
11.9938 -9.20201 20.2675 0.0112594 0.081452 0.996614
3.38481 -10.3504 22.6721 0.389087 0.00172193 0.9212
-5.23218 -11.9767 26.7205 0.0727896 -0.00985847 0.997299
-12.5712 -12.9213 24.1222 -0.064518 -0.0972605 0.993165
-20.6673 -14.2784 24.714 -0.664865 -0.248829 0.7043
13.0103 -16.7162 20.4735 0.0187582 -0.0744507 0.997048
5.42034 -18.3106 21.0737 0.291738 -0.0364614 0.955803
-3.13467 -19.6932 25.171 0.200428 -0.121094 0.972196
-10.9718 -20.625 23.8459 -0.119113 -0.0990355 0.987929
-18.9141 -22.05 23.3735 -0.684213 -0.202753 0.700531
14.2758 -24.8341 19.1249 0.0206517 -0.0538979 0.998333
6.56821 -25.9583 20.9797 0.259336 -0.037589 0.965055
-1.20934 -27.5172 23.6415 0.187872 -0.0766252 0.9792
-9.34208 -28.4862 23.2838 -0.0323006 -0.0876968 0.995623
-17.1988 -29.7239 23.1839 -0.70835 -0.159323 0.687645
15.9208 -32.8417 19.4761 -0.0516171 0.0539757 0.997207
7.94119 -33.9051 20.2276 0.199174 0.026307 0.979611
0.0892544 -35.1547 22.7903 0.179551 -0.0522064 0.982362
-7.7094 -36.4379 22.8169 0.010293 -0.055761 0.998391
-15.7947 -37.6531 22.9424 -0.683984 -0.153906 0.713077
17.2733 -40.4551 20.306 -0.0346269 0.0797206 0.996216
9.56764 -41.7941 20.8387 0.0911493 0.0800723 0.992613
1.48302 -43.1903 22.1823 0.127981 -0.00532381 0.991762
-6.47278 -44.2974 22.4996 0.0294328 -0.0389709 0.998807
-14.283 -45.5835 22.6424 -0.678948 -0.144631 0.7198
18.6617 -48.466 21.1141 -0.00266889 0.0551414 0.998475
10.7759 -49.6733 21.4531 0.0404435 0.0558356 0.997621
2.85663 -51.1778 21.9335 0.0621571 0.00484675 0.998055
-5.13863 -52.2933 22.2118 0.0322303 -0.0242643 0.999186
-13.0315 -53.3941 22.3749 -0.68629 -0.125817 0.716363
19.8436 -56.5703 21.4341 0.0994518 -0.670582 0.735139
11.91 -57.665 21.6609 0.118742 -0.672251 0.730739
4.00171 -58.9091 21.8521 0.128089 -0.699139 0.703419
-3.86932 -60.2015 22.0118 0.126061 -0.716262 0.686351
-11.8016 -61.3928 22.1857 -0.327415 -0.483969 0.811526
-28.4375 57.4151 16.0037 -0.819905 0.463226 0.336418
-27.4322 57.6601 6.58956 -0.691625 0.716133 -0.0938519
-26.8023 56.9603 -2.29549 -0.696842 0.712907 -0.0785797
-27.2082 56.4968 -9.10974 -0.725103 0.675801 -0.132358
-25.8267 55.7199 -18.4095 -0.719243 0.680362 -0.140699
-24.5371 54.5193 -27.9173 -0.371827 0.61182 -0.698156
-27.8412 50.6967 15.1809 -0.687657 0.0182884 0.725805
-27.9475 49.9104 7.5579 -0.999736 -0.00669058 -0.0219921
-27.5316 49.1017 -0.976911 -0.995497 0.0387246 -0.0865255
-26.7418 48.7475 -8.88489 -0.990438 -0.044265 -0.130663
-25.4017 48.0156 -16.9743 -0.984326 -0.102918 -0.143215
-23.9137 47.4054 -25.7945 -0.680687 -0.215612 -0.700126
-27.4112 41.8796 8.64087 -0.997401 -0.0619699 0.036753
-27.8407 40.9848 0.605359 -0.99541 -0.0607282 -0.0739664
-26.686 40.2299 -7.86169 -0.96772 -0.132413 -0.214441
-24.3117 39.8097 -15.7413 -0.972778 -0.184327 -0.140452
-26.7192 33.4213 9.95533 -0.995935 -0.0836169 0.0334974
-27.3205 32.4631 1.84721 -0.988523 -0.114418 -0.098646
-25.2477 32.0772 -6.43899 -0.936895 -0.207753 -0.281187
-22.0474 32.0035 -13.9604 -0.961269 -0.233119 -0.147026
-25.732 25.6922 11.2778 -0.991909 -0.126306 0.0127874
-26.6113 24.5532 3.42763 -0.974038 -0.189062 -0.12452
-23.695 24.363 -4.7344 -0.907752 -0.268936 -0.321961
-20.5538 24.1887 -12.541 -0.95946 -0.249086 -0.131881
-24.8684 17.4211 12.8638 -0.988312 -0.142052 -0.0553207
-24.9014 16.8077 4.59651 -0.960454 -0.226708 -0.161656
-21.5986 16.6697 -3.01224 -0.888397 -0.278748 -0.364761
-18.4807 16.7328 -10.7155 -0.953343 -0.275801 -0.122766
-23.6493 9.51473 13.7111 -0.979094 -0.136174 -0.151101
-23.0716 8.70582 7.05427 -0.975741 -0.172532 -0.134768
-19.91 9.05628 -1.98772 -0.904902 -0.121862 -0.407801
-16.6778 9.00257 -9.15573 -0.972597 -0.183721 -0.142483
-23.4761 1.91521 14.7324 -0.976748 -0.121984 -0.176307
-21.2399 1.56438 8.29981 -0.947459 -0.298287 -0.115524
-21.6647 1.36576 -0.132397 -0.968517 -0.12059 -0.217792
-15.9363 1.64842 -8.407 -0.94805 0.17301 -0.266961
-23.5475 -5.92312 16.4264 -0.983683 -0.123837 -0.130507
-18.8396 -5.58914 8.15271 -0.917919 -0.163128 -0.361683
-17.3065 -5.72313 1.41245 -0.945153 -0.309164 0.105372
-19.3937 -5.53649 -8.66931 -0.993905 0.0697983 -0.085328
-21.8461 -14.1165 16.5987 -0.975513 -0.204549 -0.0808286
-17.8043 -13.359 7.22616 -0.918945 -0.0774534 -0.386704
-15.528 -13.1413 0.353955 -0.974536 -0.216391 0.0587752
-19.6932 -12.7066 -8.77124 -0.9691 -0.20053 0.143642
-18.5877 -21.871 15.6154 -0.971974 -0.233603 -0.026393
-17.5385 -21.3923 7.07831 -0.964942 -0.0415969 -0.259146
-14.805 -20.7184 -0.521505 -0.989512 0.0101979 -0.144088
-15.8658 -20.2584 -8.18476 -0.952424 -0.240949 0.186635
-17.0864 -29.3305 15.1044 -0.98332 -0.180787 0.0199674
-17.7264 -29.2668 7.36456 -0.991086 -0.0980306 -0.090212
-16.0752 -28.6621 -0.948629 -0.985048 0.0160522 -0.171532
-15.1052 -28.0855 -8.76918 -0.998752 -0.0410513 0.0284338
-15.8949 -37.2872 14.8965 -0.984748 -0.173224 0.0162808
-16.3642 -37.0556 6.93506 -0.984024 -0.175716 -0.0286445
-15.2248 -36.7202 -1.12992 -0.987458 -0.116242 -0.106842
-14.7404 -36.3318 -9.13006 -0.99758 -0.068293 -0.013057
-14.4748 -45.3699 14.658 -0.984895 -0.172907 0.00921668
-14.5679 -45.0985 6.52898 -0.984305 -0.176272 -0.00853089
-14.1694 -44.6124 -1.5009 -0.990742 -0.128029 -0.0451444
-14.1089 -44.348 -9.34908 -0.995496 -0.0938543 0.0133632
-13.174 -53.0953 14.3382 -0.988907 -0.148086 0.0115988
-13.2353 -52.8401 6.38438 -0.989783 -0.142407 0.00709976
-13.3224 -52.5092 -1.59715 -0.993348 -0.115113 0.00307028
-13.4834 -52.2908 -9.59867 -0.995528 -0.092514 0.0191135
-12.06 -61.0926 14.1718 -0.604824 -0.796241 -0.0137327
-12.2694 -60.7551 6.16318 -0.612386 -0.790442 -0.0135887
-12.4621 -60.5356 -1.79636 -0.626438 -0.779465 -0.00301311
-12.708 -60.4112 -9.75796 -0.639107 -0.76909 0.00657565
-4.74038 -59.6402 -9.92185 0.102322 -0.994688 -0.0112138
3.23353 -58.8054 -10.1146 0.0938801 -0.995555 0.00758807
11.1512 -58.0727 -10.3074 0.0953003 -0.995335 0.0150179
19.1203 -57.3319 -10.5487 0.0974553 -0.99513 0.0147994
-4.52448 -59.6573 -1.92122 0.109555 -0.993828 -0.0174118
3.43305 -58.7006 -2.10386 0.111776 -0.993679 -0.0104413
11.3477 -57.9001 -2.31271 0.101829 -0.994777 0.00703724
19.3248 -57.0962 -2.51506 0.0998811 -0.994874 0.0158253
-4.33999 -59.7983 6.02813 0.112924 -0.993356 -0.022187
3.60267 -58.9642 5.85736 0.118699 -0.99274 -0.0194311
11.5512 -57.9385 5.64036 0.121874 -0.992519 -0.007298
19.5059 -57.0099 5.45929 0.10523 -0.994373 0.0122271
-4.14788 -59.9911 14.04 0.132977 -0.990799 -0.0251888
3.79102 -59.0182 13.874 0.127471 -0.991841 0.0015375
11.772 -57.9665 13.6677 0.135826 -0.990657 0.0122714
19.6733 -56.8199 13.4614 0.119493 -0.992581 0.0224697
3 273 272 1
3 272 271 2
3 271 270 3
3 270 269 4
3 269 268 5
3 0 1 7
3 1 2 8
3 2 3 9
3 3 4 10
3 4 5 11
3 6 7 13
3 7 8 14
3 8 9 15
3 9 10 16
3 10 11 17
3 12 13 19
3 13 14 20
3 14 15 21
3 15 16 22
3 16 17 23
3 18 19 25
3 19 20 26
3 20 21 27
3 21 22 28
3 22 23 29
3 273 0 30
3 0 6 31
3 6 12 32
3 12 18 33
3 18 24 34
3 279 30 36
3 30 31 37
3 31 32 38
3 32 33 39
3 33 34 40
3 35 36 42
3 36 37 43
3 37 38 44
3 38 39 45
3 39 40 46
3 41 42 48
3 42 43 49
3 43 44 50
3 44 45 51
3 45 46 52
3 47 48 54
3 48 49 55
3 49 50 56
3 50 51 57
3 51 52 58
3 53 54 60
3 54 55 61
3 55 56 62
3 56 57 63
3 57 58 64
3 59 60 66
3 60 61 67
3 61 62 68
3 62 63 69
3 63 64 70
3 65 66 72
3 66 67 73
3 67 68 74
3 68 69 75
3 69 70 76
3 71 72 78
3 72 73 79
3 73 74 80
3 74 75 81
3 75 76 82
3 77 78 84
3 78 79 85
3 79 80 86
3 80 81 87
3 81 82 88
3 83 84 90
3 84 85 91
3 85 86 92
3 86 87 93
3 87 88 94
3 89 90 96
3 90 91 97
3 91 92 98
3 92 93 99
3 93 94 100
3 95 96 102
3 96 97 103
3 97 98 104
3 98 99 105
3 99 100 106
3 101 102 108
3 102 103 109
3 103 104 110
3 104 105 111
3 105 106 112
3 107 108 114
3 108 109 115
3 109 110 116
3 110 111 117
3 111 112 118
3 24 25 119
3 25 26 120
3 26 27 121
3 27 28 122
3 28 29 123
3 34 119 124
3 119 120 125
3 120 121 126
3 121 122 127
3 122 123 128
3 40 124 129
3 124 125 130
3 125 126 131
3 126 127 132
3 127 128 133
3 46 129 134
3 129 130 135
3 130 131 136
3 131 132 137
3 132 133 138
3 52 134 139
3 134 135 140
3 135 136 141
3 136 137 142
3 137 138 143
3 58 139 144
3 139 140 145
3 140 141 146
3 141 142 147
3 142 143 148
3 64 144 149
3 144 145 150
3 145 146 151
3 146 147 152
3 147 148 153
3 70 149 154
3 149 150 155
3 150 151 156
3 151 152 157
3 152 153 158
3 76 154 159
3 154 155 160
3 155 156 161
3 156 157 162
3 157 158 163
3 82 159 164
3 159 160 165
3 160 161 166
3 161 162 167
3 162 163 168
3 88 164 169
3 164 165 170
3 165 166 171
3 166 167 172
3 167 168 173
3 94 169 174
3 169 170 175
3 170 171 176
3 171 172 177
3 172 173 178
3 100 174 179
3 174 175 180
3 175 176 181
3 176 177 182
3 177 178 183
3 106 179 184
3 179 180 185
3 180 181 186
3 181 182 187
3 182 183 188
3 112 184 189
3 184 185 190
3 185 186 191
3 186 187 192
3 187 188 193
3 29 23 194
3 23 17 195
3 17 11 196
3 11 5 197
3 5 268 274
3 123 194 198
3 194 195 199
3 195 196 200
3 196 197 201
3 197 274 202
3 128 198 203
3 198 199 204
3 199 200 205
3 200 201 206
3 201 202 207
3 133 203 208
3 203 204 209
3 204 205 210
3 205 206 211
3 206 207 212
3 138 208 213
3 208 209 214
3 209 210 215
3 210 211 216
3 211 212 217
3 143 213 218
3 213 214 219
3 214 215 220
3 215 216 221
3 216 217 222
3 148 218 223
3 218 219 224
3 219 220 225
3 220 221 226
3 221 222 227
3 153 223 228
3 223 224 229
3 224 225 230
3 225 226 231
3 226 227 232
3 158 228 233
3 228 229 234
3 229 230 235
3 230 231 236
3 231 232 237
3 163 233 238
3 233 234 239
3 234 235 240
3 235 236 241
3 236 237 242
3 168 238 243
3 238 239 244
3 239 240 245
3 240 241 246
3 241 242 247
3 173 243 248
3 243 244 249
3 244 245 250
3 245 246 251
3 246 247 252
3 178 248 253
3 248 249 254
3 249 250 255
3 250 251 256
3 251 252 257
3 183 253 258
3 253 254 259
3 254 255 260
3 255 256 261
3 256 257 262
3 188 258 263
3 258 259 264
3 259 260 265
3 260 261 266
3 261 262 267
3 268 269 275
3 269 270 276
3 270 271 277
3 271 272 278
3 272 273 279
3 274 275 280
3 275 276 281
3 276 277 282
3 277 278 283
3 278 279 35
3 202 280 284
3 280 281 285
3 281 282 286
3 282 283 287
3 283 35 41
3 207 284 288
3 284 285 289
3 285 286 290
3 286 287 291
3 287 41 47
3 212 288 292
3 288 289 293
3 289 290 294
3 290 291 295
3 291 47 53
3 217 292 296
3 292 293 297
3 293 294 298
3 294 295 299
3 295 53 59
3 222 296 300
3 296 297 301
3 297 298 302
3 298 299 303
3 299 59 65
3 227 300 304
3 300 301 305
3 301 302 306
3 302 303 307
3 303 65 71
3 232 304 308
3 304 305 309
3 305 306 310
3 306 307 311
3 307 71 77
3 237 308 312
3 308 309 313
3 309 310 314
3 310 311 315
3 311 77 83
3 242 312 316
3 312 313 317
3 313 314 318
3 314 315 319
3 315 83 89
3 247 316 320
3 316 317 321
3 317 318 322
3 318 319 323
3 319 89 95
3 252 320 324
3 320 321 325
3 321 322 326
3 322 323 327
3 323 95 101
3 257 324 328
3 324 325 329
3 325 326 330
3 326 327 331
3 327 101 107
3 262 328 332
3 328 329 333
3 329 330 334
3 330 331 335
3 331 107 113
3 113 114 336
3 114 115 337
3 115 116 338
3 116 117 339
3 117 118 189
3 335 336 340
3 336 337 341
3 337 338 342
3 338 339 343
3 339 189 190
3 334 340 344
3 340 341 345
3 341 342 346
3 342 343 347
3 343 190 191
3 333 344 348
3 344 345 349
3 345 346 350
3 346 347 351
3 347 191 192
3 332 348 266
3 348 349 265
3 349 350 264
3 350 351 263
3 351 192 193
3 273 1 0
3 272 2 1
3 271 3 2
3 270 4 3
3 269 5 4
3 0 7 6
3 1 8 7
3 2 9 8
3 3 10 9
3 4 11 10
3 6 13 12
3 7 14 13
3 8 15 14
3 9 16 15
3 10 17 16
3 12 19 18
3 13 20 19
3 14 21 20
3 15 22 21
3 16 23 22
3 18 25 24
3 19 26 25
3 20 27 26
3 21 28 27
3 22 29 28
3 273 30 279
3 0 31 30
3 6 32 31
3 12 33 32
3 18 34 33
3 279 36 35
3 30 37 36
3 31 38 37
3 32 39 38
3 33 40 39
3 35 42 41
3 36 43 42
3 37 44 43
3 38 45 44
3 39 46 45
3 41 48 47
3 42 49 48
3 43 50 49
3 44 51 50
3 45 52 51
3 47 54 53
3 48 55 54
3 49 56 55
3 50 57 56
3 51 58 57
3 53 60 59
3 54 61 60
3 55 62 61
3 56 63 62
3 57 64 63
3 59 66 65
3 60 67 66
3 61 68 67
3 62 69 68
3 63 70 69
3 65 72 71
3 66 73 72
3 67 74 73
3 68 75 74
3 69 76 75
3 71 78 77
3 72 79 78
3 73 80 79
3 74 81 80
3 75 82 81
3 77 84 83
3 78 85 84
3 79 86 85
3 80 87 86
3 81 88 87
3 83 90 89
3 84 91 90
3 85 92 91
3 86 93 92
3 87 94 93
3 89 96 95
3 90 97 96
3 91 98 97
3 92 99 98
3 93 100 99
3 95 102 101
3 96 103 102
3 97 104 103
3 98 105 104
3 99 106 105
3 101 108 107
3 102 109 108
3 103 110 109
3 104 111 110
3 105 112 111
3 107 114 113
3 108 115 114
3 109 116 115
3 110 117 116
3 111 118 117
3 24 119 34
3 25 120 119
3 26 121 120
3 27 122 121
3 28 123 122
3 34 124 40
3 119 125 124
3 120 126 125
3 121 127 126
3 122 128 127
3 40 129 46
3 124 130 129
3 125 131 130
3 126 132 131
3 127 133 132
3 46 134 52
3 129 135 134
3 130 136 135
3 131 137 136
3 132 138 137
3 52 139 58
3 134 140 139
3 135 141 140
3 136 142 141
3 137 143 142
3 58 144 64
3 139 145 144
3 140 146 145
3 141 147 146
3 142 148 147
3 64 149 70
3 144 150 149
3 145 151 150
3 146 152 151
3 147 153 152
3 70 154 76
3 149 155 154
3 150 156 155
3 151 157 156
3 152 158 157
3 76 159 82
3 154 160 159
3 155 161 160
3 156 162 161
3 157 163 162
3 82 164 88
3 159 165 164
3 160 166 165
3 161 167 166
3 162 168 167
3 88 169 94
3 164 170 169
3 165 171 170
3 166 172 171
3 167 173 172
3 94 174 100
3 169 175 174
3 170 176 175
3 171 177 176
3 172 178 177
3 100 179 106
3 174 180 179
3 175 181 180
3 176 182 181
3 177 183 182
3 106 184 112
3 179 185 184
3 180 186 185
3 181 187 186
3 182 188 187
3 112 189 118
3 184 190 189
3 185 191 190
3 186 192 191
3 187 193 192
3 29 194 123
3 23 195 194
3 17 196 195
3 11 197 196
3 5 274 197
3 123 198 128
3 194 199 198
3 195 200 199
3 196 201 200
3 197 202 201
3 128 203 133
3 198 204 203
3 199 205 204
3 200 206 205
3 201 207 206
3 133 208 138
3 203 209 208
3 204 210 209
3 205 211 210
3 206 212 211
3 138 213 143
3 208 214 213
3 209 215 214
3 210 216 215
3 211 217 216
3 143 218 148
3 213 219 218
3 214 220 219
3 215 221 220
3 216 222 221
3 148 223 153
3 218 224 223
3 219 225 224
3 220 226 225
3 221 227 226
3 153 228 158
3 223 229 228
3 224 230 229
3 225 231 230
3 226 232 231
3 158 233 163
3 228 234 233
3 229 235 234
3 230 236 235
3 231 237 236
3 163 238 168
3 233 239 238
3 234 240 239
3 235 241 240
3 236 242 241
3 168 243 173
3 238 244 243
3 239 245 244
3 240 246 245
3 241 247 246
3 173 248 178
3 243 249 248
3 244 250 249
3 245 251 250
3 246 252 251
3 178 253 183
3 248 254 253
3 249 255 254
3 250 256 255
3 251 257 256
3 183 258 188
3 253 259 258
3 254 260 259
3 255 261 260
3 256 262 261
3 188 263 193
3 258 264 263
3 259 265 264
3 260 266 265
3 261 267 266
3 268 275 274
3 269 276 275
3 270 277 276
3 271 278 277
3 272 279 278
3 274 280 202
3 275 281 280
3 276 282 281
3 277 283 282
3 278 35 283
3 202 284 207
3 280 285 284
3 281 286 285
3 282 287 286
3 283 41 287
3 207 288 212
3 284 289 288
3 285 290 289
3 286 291 290
3 287 47 291
3 212 292 217
3 288 293 292
3 289 294 293
3 290 295 294
3 291 53 295
3 217 296 222
3 292 297 296
3 293 298 297
3 294 299 298
3 295 59 299
3 222 300 227
3 296 301 300
3 297 302 301
3 298 303 302
3 299 65 303
3 227 304 232
3 300 305 304
3 301 306 305
3 302 307 306
3 303 71 307
3 232 308 237
3 304 309 308
3 305 310 309
3 306 311 310
3 307 77 311
3 237 312 242
3 308 313 312
3 309 314 313
3 310 315 314
3 311 83 315
3 242 316 247
3 312 317 316
3 313 318 317
3 314 319 318
3 315 89 319
3 247 320 252
3 316 321 320
3 317 322 321
3 318 323 322
3 319 95 323
3 252 324 257
3 320 325 324
3 321 326 325
3 322 327 326
3 323 101 327
3 257 328 262
3 324 329 328
3 325 330 329
3 326 331 330
3 327 107 331
3 262 332 267
3 328 333 332
3 329 334 333
3 330 335 334
3 331 113 335
3 113 336 335
3 114 337 336
3 115 338 337
3 116 339 338
3 117 189 339
3 335 340 334
3 336 341 340
3 337 342 341
3 338 343 342
3 339 190 343
3 334 344 333
3 340 345 344
3 341 346 345
3 342 347 346
3 343 191 347
3 333 348 332
3 344 349 348
3 345 350 349
3 346 351 350
3 347 192 351
3 332 266 267
3 348 265 266
3 349 264 265
3 350 263 264
3 351 193 263
