ply
format ascii 1.0
element vertex 352
property float x
property float y
property float z
property float nx
property float ny
property float nz
element face 700
property list uchar int vertex_indices
end_header
-20.0173 49.9767 -36.5348 -0.14747 0.581591 -0.800003
-21.2291 52.3219 -27.7297 -0.169204 0.962532 -0.211901
-22.3566 53.6267 -20.0006 -0.111398 0.983534 -0.14231
-22.343 54.7143 -11.9538 -0.005053 0.962427 -0.271494
-21.6356 57.1088 -6.01016 -0.00646278 0.908782 -0.417222
-24.4778 60.4198 2.08603 -0.125637 0.876522 0.464676
-11.5008 50.8019 -37.0871 0.0120649 0.667818 -0.744227
-12.8498 52.5459 -29.1537 0.0162422 0.986066 -0.165562
-13.575 53.4595 -22.0247 0.0499838 0.995982 -0.0743124
-14.3487 53.5703 -12.247 0.0548419 0.972707 -0.225464
-14.6591 56.4256 -5.13606 0.0267121 0.887424 -0.46018
-14.5086 60.9294 1.55665 -0.0252265 0.953192 0.301312
-3.17111 51.8116 -36.032 0.0483684 0.679637 -0.731952
-2.54863 51.8956 -27.8185 -0.00016881 0.999355 -0.035915
-3.43095 52.3218 -20.1372 0.0833768 0.991441 -0.100465
-5.19923 53.0874 -11.252 0.00174686 0.958784 -0.284132
-5.83462 57.2667 -5.19462 -0.0761598 0.863357 -0.498812
-6.77945 61.1099 1.81375 -0.0771498 0.963081 0.257922
4.1339 53.0033 -34.6114 -0.060981 0.664117 -0.745138
4.21329 52.6652 -26.4659 -0.225638 0.973241 0.0434616
4.4695 51.2814 -20.2669 -0.239306 0.962086 -0.130854
2.22602 53.7042 -12.3148 -0.253471 0.88842 -0.382705
2.44752 58.2039 -5.64016 -0.222692 0.844876 -0.486408
1.88879 62.4342 1.74994 -0.0912834 0.951215 0.294716
10.7209 53.2557 -35.7533 0.68027 0.568782 -0.462299
10.7725 53.8682 -27.1646 0.428595 0.900297 -0.0759676
10.0183 55.2729 -20.0842 0.320153 0.946285 -0.0452429
9.3005 57.1373 -13.7759 0.2908 0.897097 -0.332644
9.08767 61.4238 -5.86091 0.483715 0.773474 -0.409582
9.54201 63.8303 2.02512 0.0500195 0.935469 0.349852
-19.1311 41.7729 -35.2532 -0.160343 -0.206136 -0.965297
-11.2888 42.4529 -37.2518 -0.035337 -0.0869379 -0.995587
-2.4849 43.3768 -36.2371 0.207182 -0.0191129 -0.978116
5.65739 44.6508 -34.2096 0.161702 -0.0994972 -0.981811
12.676 46.1889 -33.8117 0.662757 0.0097623 -0.748771
-25.0875 33.2003 -31.9044 -0.798064 -0.303809 -0.520379
-18.3997 33.9701 -33.6751 -0.207454 -0.289879 -0.934309
-10.1335 34.5556 -35.9654 -0.0643628 -0.267643 -0.961366
-0.795611 36.0397 -35.6759 0.252177 -0.200758 -0.946627
6.81278 37.0642 -32.3003 0.20544 -0.233566 -0.95039
13.5169 38.3825 -32.1648 0.718289 -0.139136 -0.68169
-23.3165 25.2437 -29.5825 -0.82413 -0.346917 -0.447725
-16.2844 26.1544 -31.4132 -0.210098 -0.311073 -0.926873
-8.48599 26.3213 -33.1747 -0.0441628 -0.287872 -0.95665
0.171494 28.2944 -32.6317 0.278852 -0.253453 -0.926284
7.57136 30.572 -29.3069 0.222601 -0.301204 -0.927214
14.2848 30.2929 -30.0895 0.734496 -0.130602 -0.665927
-21.9662 17.9924 -27.3701 -0.852397 -0.366816 -0.372647
-14.9843 18.5125 -29.1119 -0.226625 -0.363566 -0.903582
-7.23323 18.585 -31.1822 -0.044928 -0.316612 -0.947491
1.21642 20.3332 -30.7066 0.277531 -0.25573 -0.926056
8.11503 22.1424 -27.3547 0.245016 -0.232822 -0.941149
15.9124 23.1333 -27.4079 0.707169 -0.091833 -0.701056
-19.0421 9.92949 -24.7349 -0.82588 -0.292668 -0.481941
-12.9258 10.8294 -25.9876 -0.188519 -0.41813 -0.88861
-5.49526 11.1476 -28.4907 -0.0830367 -0.408018 -0.90919
1.78714 12.7448 -27.6424 0.312935 -0.285346 -0.905897
9.36949 14.7808 -24.7967 0.222758 -0.345367 -0.911647
17.2087 15.3 -25.166 0.747139 -0.197531 -0.634637
-19.6704 3.75822 -23.879 -0.768612 -0.0811311 -0.63455
-13.3821 2.94461 -22.5565 -0.0511279 -0.261269 -0.963911
-4.1653 3.38429 -24.0408 -0.12052 -0.360919 -0.924777
4.10315 3.59213 -24.785 0.257461 -0.252607 -0.932686
9.67053 7.13941 -21.5879 0.290155 -0.246999 -0.924555
17.8853 8.38389 -21.9166 0.811813 -0.164677 -0.560215
-20.3285 -4.48711 -19.7274 -0.730207 -0.260556 -0.631592
-13.1409 -3.66121 -21.5198 -0.143124 -0.328081 -0.933744
-5.13918 -3.34054 -22.4513 -0.0546415 -0.219341 -0.974117
5.13098 -3.9433 -22.7743 0.144914 -0.216688 -0.965426
11.0041 -0.336716 -20.2285 0.336759 -0.111731 -0.934938
18.4488 1.62426 -19.4465 0.85744 0.0477894 -0.51236
-18.6487 -12.4355 -17.8984 -0.636296 -0.372484 -0.675561
-13.1237 -11.2832 -17.529 -0.125803 -0.507622 -0.852346
-5.16375 -10.1782 -21.2448 -0.0787021 -0.522483 -0.84901
8.02279 -10.7134 -20.3286 0.0820967 -0.412318 -0.907334
13.8659 -7.85837 -19.1387 0.29776 -0.117276 -0.94741
20.4787 -5.64059 -17.0027 0.772046 0.269249 -0.575717
-17.1343 -20.219 -15.1619 -0.515693 -0.376125 -0.769799
-9.71501 -17.9222 -13.2645 0.117603 -0.439618 -0.890452
-3.74114 -15.8924 -15.589 -0.0622953 -0.627828 -0.775855
8.39028 -15.449 -15.729 -0.0232776 -0.620128 -0.784155
15.5174 -14.8358 -16.8211 0.0658204 -0.409369 -0.909992
22.2284 -12.7168 -16.4001 0.712057 0.00476712 -0.702106
-15.4495 -26.9884 -12.2772 -0.478425 -0.409592 -0.776752
-7.93486 -24.4084 -10.4305 0.208045 -0.322896 -0.923285
-1.73149 -22.1061 -11.0433 -0.0443937 -0.463464 -0.885003
8.83712 -21.5422 -11.9862 -0.0861911 -0.457982 -0.884773
15.5747 -21.1952 -13.3375 -0.102124 -0.39343 -0.913665
24.0289 -20.0787 -14.3606 0.623084 -0.149722 -0.767691
-14.4415 -33.582 -9.73034 -0.516774 -0.338828 -0.786219
-6.74977 -31.5593 -8.01221 0.190735 -0.237646 -0.952441
0.230273 -29.6541 -7.73674 -0.0418543 -0.290159 -0.956063
9.53741 -28.5735 -9.45753 -0.144238 -0.31067 -0.93951
16.8623 -28.3352 -11.1457 -0.146191 -0.299469 -0.94284
24.8184 -27.9203 -12.1467 0.570386 -0.181216 -0.801137
-13.572 -40.7898 -7.44899 -0.586147 -0.271151 -0.763484
-5.83121 -39.0169 -6.3688 0.117047 -0.176705 -0.97728
1.49764 -37.6057 -6.23059 -0.048179 -0.152005 -0.987205
9.96738 -36.5443 -7.67978 -0.135649 -0.195636 -0.97125
18.1925 -35.7811 -9.19525 -0.126654 -0.260196 -0.957213
25.8898 -35.6213 -10.0546 0.624042 -0.163569 -0.764079
-13.1397 -47.8157 -5.66492 -0.646433 -0.235136 -0.725834
-5.41125 -46.4288 -5.16698 0.0474656 -0.171189 -0.984094
2.45494 -45.6336 -5.52599 -0.0537662 -0.156897 -0.98615
10.8619 -44.8474 -6.63193 -0.0825641 -0.181119 -0.979989
18.7626 -43.8169 -7.21147 -0.0616981 -0.232668 -0.970597
26.6783 -43.0478 -7.7562 0.647773 -0.155448 -0.745806
-12.2143 -55.609 -3.84059 -0.692058 -0.240281 -0.680677
-4.52592 -54.3899 -3.89603 0.0201395 -0.186375 -0.982272
3.32778 -53.5821 -4.14669 -0.0307874 -0.196204 -0.98008
11.6259 -52.7063 -4.80001 -0.0423261 -0.229811 -0.972314
19.6108 -51.6898 -5.15979 -0.0228694 -0.251841 -0.967498
27.4903 -50.8509 -5.65325 0.674516 -0.114093 -0.729391
-11.2445 -63.4113 -2.03815 -0.560106 -0.805971 -0.191552
-3.34299 -62.2033 -2.37244 0.102883 -0.828859 -0.549916
4.44851 -61.3138 -2.51107 0.0812742 -0.835908 -0.542818
12.5206 -60.4083 -2.87769 0.0863689 -0.845748 -0.526546
20.5692 -59.3384 -3.21082 0.0762273 -0.865902 -0.494371
28.5639 -58.5691 -3.47657 0.439788 -0.56055 -0.70169
13.4821 48.4733 -26.4291 0.922406 0.352435 -0.157973
13.475 50.107 -18.4701 0.836736 0.546506 0.0347124
11.5541 51.0845 -11.0056 0.865186 0.496777 0.0683127
10.1125 53.5934 -5.311 0.960939 0.269219 -0.0641737
11.1371 57.1928 3.89593 0.775248 0.35626 0.521602
15.8041 41.4006 -24.3023 0.967835 -0.0135649 -0.251222
18.1343 43.0163 -16.5058 0.976493 0.213852 -0.0270088
15.5571 44.7005 -7.72698 0.907414 0.396723 0.138604
13.8268 46.7011 -0.965637 0.920297 0.385871 0.0644812
12.5211 49.2144 5.33743 0.730215 0.380138 0.567698
14.7618 32.8309 -22.6257 0.981383 -0.0323702 -0.189315
16.9223 35.0024 -14.9055 0.993209 -0.0772226 -0.0870226
16.5635 37.1995 -5.80842 0.994035 0.0392551 0.10175
15.7243 38.6172 1.97574 0.983487 0.152339 0.0977086
14.749 40.5598 8.34534 0.659997 0.33975 0.670055
15.6237 25.4811 -20.2223 0.98212 0.0936231 -0.163325
17.3372 27.5901 -12.6639 0.9912 0.109241 -0.0747648
16.4513 30.0043 -4.2209 0.993821 0.0459628 0.101033
16.0112 30.951 3.26794 0.999273 -0.0149089 0.0350982
15.4511 32.3406 11.178 0.678478 0.20572 0.705228
16.2975 18.0919 -17.9945 0.987759 -0.0412111 -0.150449
19.0462 20.281 -10.6678 0.98673 0.109341 -0.120033
17.3599 22.4439 -2.59487 0.94749 0.266347 0.176982
14.9002 23.068 5.19659 0.994503 0.0804849 0.0669744
16.1961 25.0699 12.7517 0.694303 0.175182 0.698037
15.2043 10.9377 -15.6821 0.994824 -0.065158 -0.0779756
19.2234 13.107 -7.70267 0.955547 -0.142216 -0.258271
19.519 15.1394 -0.338176 0.964842 0.216761 0.14864
16.9573 16.694 7.54109 0.954689 0.244645 0.169461
16.0279 17.8604 15.4708 0.622301 0.295846 0.724718
15.7284 2.44057 -11.6744 0.989733 0.137733 0.0381923
17.8826 4.50341 -4.64536 0.936623 -0.137233 -0.322343
20.7526 7.78955 2.87641 0.996885 0.0749571 0.0245251
17.7066 9.0259 9.23572 0.959129 0.196747 0.203376
16.8826 11.241 17.0862 0.615047 0.247127 0.748763
17.6598 -5.03527 -8.89048 0.852135 0.508695 0.122865
18.1742 -3.39062 -1.71981 0.953744 0.111206 -0.279296
21.1859 -0.507214 4.36298 0.998779 0.0330245 -0.036741
18.739 2.28286 11.9193 0.978088 0.122587 0.168277
17.8663 4.33679 18.6695 0.548257 0.299633 0.780791
24.2511 -10.3922 -8.741 0.857965 0.510097 -0.0608042
20.7655 -8.94562 -0.89243 0.782592 0.622323 -0.0162446
22.1437 -7.50061 7.02622 0.923731 0.382856 0.0119731
18.7567 -5.84922 12.1652 0.963502 0.238768 0.12105
19.336 -2.27775 21.0078 0.633695 0.349592 0.690084
25.6763 -18.1466 -6.87054 0.959204 0.114262 -0.258594
27.6344 -15.4941 1.23674 0.914648 0.404251 1.39871e-05
25.4599 -14.0114 9.92127 0.862971 0.484362 0.143787
21.9274 -11.7813 16.1917 0.876469 0.447333 0.178034
20.7605 -9.45958 23.4555 0.619532 0.45566 0.639182
27.1127 -25.7279 -4.7093 0.973137 0.00931246 -0.230038
28.8171 -23.5064 3.04238 0.999691 0.0181341 -0.0169897
27.4795 -21.2673 12.5919 0.974997 0.125415 0.183447
24.5782 -19.3793 19.6008 0.92174 0.321293 0.217179
22.8217 -17.21 25.8853 0.597963 0.413156 0.686835
27.3121 -33.3076 -2.48917 0.989383 -0.0219175 -0.143672
28.2892 -31.2406 5.08807 0.997797 -0.0428111 0.0506869
26.0829 -28.9288 13.6504 0.990066 -0.0383989 0.135261
25.9441 -27.1002 21.4351 0.993132 0.0785958 0.0866738
24.9456 -25.0454 28.5927 0.614013 0.319984 0.721525
27.5168 -41.3515 -0.125156 0.997959 0.0191504 -0.0609212
27.3557 -39.0699 7.60939 0.9991 0.000888184 0.0424077
26.2404 -36.5114 15.3651 0.994074 0.0669703 0.0856235
26.0007 -34.5715 22.6504 0.997098 0.0727849 -0.0223066
26.3317 -32.6661 30.7547 0.67997 0.259328 0.68585
27.7089 -48.9605 2.03728 0.996021 0.0802861 -0.0386707
27.5171 -46.8073 9.70305 0.995959 0.0895847 0.00630959
27.0399 -44.0308 17.4407 0.991873 0.127228 0.0007581
27.1393 -41.978 24.9613 0.989357 0.138911 -0.0433118
27.2964 -40.078 32.7258 0.703153 0.288284 0.649975
28.6515 -56.2983 4.18805 0.76944 -0.615074 0.17218
28.5541 -54.1586 11.8712 0.771145 -0.611946 0.175663
28.4943 -52.0814 19.6313 0.809159 -0.560465 0.176467
28.452 -49.6122 27.2244 0.818881 -0.5532 0.152983
28.5034 -47.5525 34.9678 0.771436 -0.439481 0.460156
3.5913 55.6744 2.632 -0.000174499 0.406521 0.913642
-4.62166 54.5228 4.67745 0.0284211 0.455951 0.889551
-13.5075 54.1895 5.0133 -0.112377 0.419187 0.900918
-20.0929 52.4198 4.44853 -0.0946414 0.306681 0.947095
4.77933 49.1764 7.25254 0.0673411 0.326792 0.942694
-2.68748 48.1342 9.38323 0.0938009 0.293283 0.951413
-11.7926 46.8343 9.08544 -0.147462 0.30281 0.941574
-19.215 45.1607 6.90376 -0.179196 0.291126 0.939752
-26.2396 43.4117 6.59264 -0.731543 0.0708175 0.678107
6.32173 41.0977 10.0744 0.0256002 0.335725 0.941612
-1.33731 39.5602 8.33166 0.00940263 0.251021 0.967936
-9.27214 39.1736 9.64625 -0.0472505 0.166441 0.984919
-16.7146 37.7953 8.85365 -0.100176 0.195221 0.97563
-25.0036 36.291 9.27694 -0.725492 0.00244009 0.688227
7.56263 32.7422 12.2418 0.115309 0.221977 0.96821
-0.206513 32.3664 12.3649 -0.000916563 0.356268 0.934384
-8.41516 31.6027 12.9435 -0.128916 0.403444 0.905877
-15.395 30.1874 10.9805 -0.186927 0.299785 0.935514
-23.1779 28.7183 10.9019 -0.776442 0.00193766 0.630186
7.6847 24.1432 13.1199 0.0933737 0.168446 0.981278
0.0406523 24.1078 14.5093 0.21064 0.193535 0.958214
-7.4836 24.1004 16.3423 -0.0870996 0.332182 0.939185
-15.0791 22.6387 14.018 -0.272517 0.325882 0.905282
-22.7636 21.5708 12.6206 -0.866578 0.109361 0.486912
7.65404 15.9064 15.1511 -0.0275127 0.247577 0.968478
0.538879 15.6152 15.4086 0.275836 0.186834 0.942872
-6.98746 16.7707 18.8333 0.0461405 0.254966 0.965849
-14.6105 15.7379 16.371 -0.271064 0.29967 0.914725
-22.2188 14.9164 14.9025 -0.887371 0.0907046 0.452046
8.46628 9.32015 16.7192 -0.0238696 0.264804 0.964007
1.25754 7.92374 16.8437 0.20567 0.325276 0.922982
-6.03731 8.98476 20.5606 0.14804 0.261109 0.95389
-14.2557 8.34777 18.9226 -0.224907 0.303922 0.925769
-21.8535 7.6765 17.4922 -0.891021 0.104279 0.441823
9.15465 2.28942 18.2426 0.0769155 0.23548 0.968831
2.76562 1.55993 20.3744 0.229996 0.401617 0.886457
-4.49564 1.4394 22.3609 0.0845136 0.396881 0.913971
-13.7544 1.16446 21.7129 -0.158573 0.323582 0.932818
-21.094 0.0893574 20.568 -0.875932 0.0922767 0.473528
10.7167 -3.99133 19.5859 0.0318542 0.367412 0.929513
4.25645 -5.22894 22.236 0.32363 0.397367 0.858699
-3.36504 -5.76748 26.2331 0.0844148 0.400567 0.912371
-12.1012 -6.49129 24.9986 -0.175946 0.358663 0.916735
-19.7159 -7.47293 23.4137 -0.837321 0.0809396 0.540688
12.5743 -10.9604 22.9967 0.00639862 0.395247 0.918553
5.74419 -11.8734 25.9516 0.314075 0.356528 0.879912
-2.24266 -13.1914 29.1577 0.107181 0.335776 0.935824
-10.2217 -14.4127 28.1162 -0.179192 0.304231 0.935593
-18.2605 -15.4701 26.676 -0.806081 0.0864806 0.585453
14.4858 -18.0145 26.9481 -0.0377863 0.364808 0.930316
6.99046 -19.6699 27.1474 0.225722 0.26517 0.937408
-0.880237 -20.8337 30.6789 0.175457 0.18307 0.967316
-8.88168 -22.2922 30.5957 -0.0944118 0.204914 0.974216
-16.4794 -23.4681 29.6225 -0.779506 0.040183 0.625105
16.2579 -25.5769 29.8152 0.0121868 0.285946 0.958168
8.35106 -27.2861 28.982 0.0445952 0.284021 0.95778
0.539302 -28.4692 31.6763 0.164075 0.184554 0.96903
-6.7179 -29.9704 31.6311 -0.0156225 0.161831 0.986695
-15.1758 -31.3832 31.8153 -0.730847 0.00421051 0.682528
17.8924 -33.5943 31.0612 0.0463148 0.226378 0.972938
9.89306 -34.8623 31.8018 0.0182413 0.251252 0.96775
1.96274 -36.2994 32.7215 0.0824519 0.215208 0.973081
-5.56547 -37.511 33.052 0.0120821 0.189185 0.981867
-13.539 -38.9125 33.5315 -0.695352 0.0249908 0.718234
19.2098 -41.044 33.0333 0.00718819 0.265729 0.964021
11.4813 -42.447 33.507 0.0273521 0.252499 0.96721
3.48844 -43.969 34.1956 0.0349293 0.231429 0.972225
-4.38497 -45.0226 34.6096 0.021442 0.22649 0.973777
-12.255 -46.3481 35.1589 -0.683985 0.0519316 0.727645
20.6261 -48.7402 35.2263 0.11186 -0.461786 0.87991
12.7448 -49.9621 35.6161 0.133808 -0.471661 0.871568
4.79933 -51.6045 36.1805 0.141345 -0.48381 0.863683
-3.10122 -52.7465 36.6025 0.116226 -0.486858 0.865714
-11.0166 -53.9228 37.0392 -0.31314 -0.240722 0.918693
-29.6536 58.6809 1.82759 -0.939732 0.25515 0.227603
-28.8783 56.5011 -6.21382 -0.7826 0.573292 -0.242636
-28.7954 53.7317 -13.0729 -0.782608 0.566253 -0.258616
-28.5999 51.5923 -20.4216 -0.846527 0.483184 -0.22344
-26.9332 49.8402 -28.4892 -0.879877 0.432697 -0.196442
-26.2707 48.4279 -36.5597 -0.559557 0.384383 -0.734265
-27.9677 50.6747 4.07761 -0.708465 0.043713 0.704391
-29.2377 48.2988 -3.97899 -0.989752 -0.107516 0.0939703
-29.4294 45.7511 -11.2516 -0.995438 -0.0789572 -0.0535644
-28.1987 43.9169 -18.0337 -0.977395 -0.146388 -0.152545
-26.4417 42.3694 -26.1044 -0.982989 -0.158047 -0.0935644
-25.6269 40.6229 -34.1486 -0.773689 -0.220581 -0.593926
-27.2149 41.1818 -1.0514 -0.956822 -0.242104 0.160865
-27.931 38.6438 -8.41938 -0.933534 -0.356674 0.0360192
-26.7322 36.5961 -16.9087 -0.917409 -0.39003 -0.0789766
-24.4731 35.0379 -23.8818 -0.961331 -0.275393 0.00130673
-25.0851 33.9058 1.18501 -0.953085 -0.296497 0.060982
-24.593 31.8635 -6.78275 -0.913979 -0.404173 -0.0358612
-22.0411 30.0908 -14.6785 -0.900788 -0.433753 -0.0209458
-21.6716 28.1577 -22.0888 -0.943719 -0.297186 0.145174
-22.2667 26.4131 2.52296 -0.957042 -0.289442 -0.0171216
-21.1374 24.5921 -4.61315 -0.945102 -0.318386 -0.0735727
-19.433 22.754 -11.9501 -0.964351 -0.26217 -0.0359694
-19.8613 20.8965 -19.92 -0.966958 -0.190288 0.169654
-20.2231 19.2693 4.71358 -0.982914 -0.145726 -0.112443
-19.5243 17.0288 -2.02397 -0.995948 -0.0550753 -0.0710954
-18.4595 15.0478 -9.28969 -0.995355 0.0431878 -0.0860446
-18.7208 13.1406 -17.6077 -0.999424 0.0328411 0.00854873
-19.7919 12.2102 6.96452 -0.996675 -0.038427 -0.0718468
-20.0718 9.35151 0.805634 -0.980804 0.194901 0.00603451
-20.8747 7.07901 -7.52448 -0.968663 0.225451 -0.104227
-20.6325 5.33533 -15.1937 -0.984394 0.144876 -0.0998945
-19.1519 5.50443 9.33948 -0.99725 -0.0465381 0.0576792
-22.3564 1.96368 4.05257 -0.964698 0.143559 0.220791
-24.0187 -0.739605 -4.25417 -0.98872 0.0938853 -0.1167
-21.4645 -2.21473 -12.7459 -0.983174 -0.0486466 -0.176077
-18.8903 -1.59631 12.056 -0.994514 -0.103686 0.0138533
-21.8776 -5.33276 6.11985 -0.906481 -0.0790611 0.41478
-23.7172 -8.34797 -0.877427 -0.988848 -0.143387 -0.0402546
-20.066 -10.0928 -10.2354 -0.950741 -0.199711 -0.23708
-18.6973 -9.13971 15.0621 -0.987383 -0.143804 -0.0662966
-18.7446 -12.2243 8.18145 -0.930037 -0.161058 0.330291
-21.6541 -15.5364 1.26359 -0.953098 -0.264293 0.147492
-19.6775 -17.8211 -6.99301 -0.941669 -0.256997 -0.217282
-17.7671 -17.0173 17.9108 -0.981321 -0.173198 -0.0837378
-16.8311 -19.467 11.0971 -0.968508 -0.156647 0.193532
-19.278 -22.4595 3.59866 -0.967724 -0.200115 0.153178
-17.9556 -24.8236 -4.24945 -0.946887 -0.284845 -0.149224
-16.9792 -25.0453 20.7697 -0.980059 -0.187888 -0.0646716
-14.7699 -26.9283 13.6623 -0.982672 -0.150813 0.107757
-17.7893 -29.6799 5.98941 -0.973461 -0.171832 0.15115
-16.338 -31.8692 -1.76582 -0.963509 -0.23303 -0.131712
-15.1015 -32.8608 23.3014 -0.98165 -0.190391 -0.0106809
-13.8822 -34.6986 15.9389 -0.989246 -0.136403 0.0527846
-16.0779 -37.156 7.85622 -0.976063 -0.163578 0.143329
-14.8804 -39.163 0.397758 -0.975581 -0.195756 -0.0996088
-13.5494 -40.5955 25.274 -0.985715 -0.167268 0.0196704
-13.1904 -42.2706 17.8718 -0.991462 -0.12551 0.0353698
-14.111 -44.9173 10.0202 -0.980431 -0.164655 0.107908
-13.61 -46.5638 2.32444 -0.983907 -0.175021 -0.0359733
-12.3221 -48.2252 27.4127 -0.988258 -0.147093 0.0413383
-12.3404 -50.2491 19.7467 -0.990821 -0.131047 0.0331595
-12.4629 -52.5144 11.944 -0.985866 -0.153038 0.0681672
-12.4737 -54.2112 4.25842 -0.988087 -0.153631 0.00902843
-11.1126 -55.936 29.4569 -0.590018 -0.778664 0.21345
-11.1807 -57.9577 21.6847 -0.590691 -0.779765 0.207486
-11.1669 -60.0864 13.8493 -0.584082 -0.785539 0.204394
-11.2864 -61.8542 6.08944 -0.584465 -0.792229 0.175428
-3.40927 -60.744 5.65827 0.141512 -0.969534 0.199944
4.48188 -59.6342 5.30955 0.137912 -0.970287 0.198805
12.4669 -58.6143 4.89037 0.16668 -0.961004 0.220658
20.442 -57.1408 4.40974 0.141553 -0.955701 0.258067
-3.22062 -58.8371 13.4788 0.135785 -0.961702 0.238101
4.67569 -58.0355 13.1764 0.138345 -0.96189 0.235855
12.6464 -56.8621 12.7565 0.187636 -0.953954 0.234019
20.517 -55.0936 12.1362 0.168432 -0.954135 0.247502
-3.13018 -56.8775 21.1957 0.146838 -0.955685 0.255154
4.7786 -55.9155 20.8354 0.14318 -0.950591 0.275457
12.7067 -54.6611 20.4834 0.182149 -0.944532 0.273279
20.5958 -52.9778 19.8588 0.18087 -0.947375 0.264134
-3.05879 -54.8562 28.98 0.155164 -0.955241 0.251871
4.86736 -53.5196 28.5323 0.171758 -0.948538 0.266036
12.7463 -52.2397 28.079 0.167313 -0.942571 0.289077
20.6604 -50.9445 27.6203 0.177879 -0.947457 0.265864
3 273 272 1
3 272 271 2
3 271 270 3
3 270 269 4
3 269 268 5
3 0 1 7
3 1 2 8
3 2 3 9
3 3 4 10
3 4 5 11
3 6 7 13
3 7 8 14
3 8 9 15
3 9 10 16
3 10 11 17
3 12 13 19
3 13 14 20
3 14 15 21
3 15 16 22
3 16 17 23
3 18 19 25
3 19 20 26
3 20 21 27
3 21 22 28
3 22 23 29
3 273 0 30
3 0 6 31
3 6 12 32
3 12 18 33
3 18 24 34
3 279 30 36
3 30 31 37
3 31 32 38
3 32 33 39
3 33 34 40
3 35 36 42
3 36 37 43
3 37 38 44
3 38 39 45
3 39 40 46
3 41 42 48
3 42 43 49
3 43 44 50
3 44 45 51
3 45 46 52
3 47 48 54
3 48 49 55
3 49 50 56
3 50 51 57
3 51 52 58
3 53 54 60
3 54 55 61
3 55 56 62
3 56 57 63
3 57 58 64
3 59 60 66
3 60 61 67
3 61 62 68
3 62 63 69
3 63 64 70
3 65 66 72
3 66 67 73
3 67 68 74
3 68 69 75
3 69 70 76
3 71 72 78
3 72 73 79
3 73 74 80
3 74 75 81
3 75 76 82
3 77 78 84
3 78 79 85
3 79 80 86
3 80 81 87
3 81 82 88
3 83 84 90
3 84 85 91
3 85 86 92
3 86 87 93
3 87 88 94
3 89 90 96
3 90 91 97
3 91 92 98
3 92 93 99
3 93 94 100
3 95 96 102
3 96 97 103
3 97 98 104
3 98 99 105
3 99 100 106
3 101 102 108
3 102 103 109
3 103 104 110
3 104 105 111
3 105 106 112
3 107 108 114
3 108 109 115
3 109 110 116
3 110 111 117
3 111 112 118
3 24 25 119
3 25 26 120
3 26 27 121
3 27 28 122
3 28 29 123
3 34 119 124
3 119 120 125
3 120 121 126
3 121 122 127
3 122 123 128
3 40 124 129
3 124 125 130
3 125 126 131
3 126 127 132
3 127 128 133
3 46 129 134
3 129 130 135
3 130 131 136
3 131 132 137
3 132 133 138
3 52 134 139
3 134 135 140
3 135 136 141
3 136 137 142
3 137 138 143
3 58 139 144
3 139 140 145
3 140 141 146
3 141 142 147
3 142 143 148
3 64 144 149
3 144 145 150
3 145 146 151
3 146 147 152
3 147 148 153
3 70 149 154
3 149 150 155
3 150 151 156
3 151 152 157
3 152 153 158
3 76 154 159
3 154 155 160
3 155 156 161
3 156 157 162
3 157 158 163
3 82 159 164
3 159 160 165
3 160 161 166
3 161 162 167
3 162 163 168
3 88 164 169
3 164 165 170
3 165 166 171
3 166 167 172
3 167 168 173
3 94 169 174
3 169 170 175
3 170 171 176
3 171 172 177
3 172 173 178
3 100 174 179
3 174 175 180
3 175 176 181
3 176 177 182
3 177 178 183
3 106 179 184
3 179 180 185
3 180 181 186
3 181 182 187
3 182 183 188
3 112 184 189
3 184 185 190
3 185 186 191
3 186 187 192
3 187 188 193
3 29 23 194
3 23 17 195
3 17 11 196
3 11 5 197
3 5 268 274
3 123 194 198
3 194 195 199
3 195 196 200
3 196 197 201
3 197 274 202
3 128 198 203
3 198 199 204
3 199 200 205
3 200 201 206
3 201 202 207
3 133 203 208
3 203 204 209
3 204 205 210
3 205 206 211
3 206 207 212
3 138 208 213
3 208 209 214
3 209 210 215
3 210 211 216
3 211 212 217
3 143 213 218
3 213 214 219
3 214 215 220
3 215 216 221
3 216 217 222
3 148 218 223
3 218 219 224
3 219 220 225
3 220 221 226
3 221 222 227
3 153 223 228
3 223 224 229
3 224 225 230
3 225 226 231
3 226 227 232
3 158 228 233
3 228 229 234
3 229 230 235
3 230 231 236
3 231 232 237
3 163 233 238
3 233 234 239
3 234 235 240
3 235 236 241
3 236 237 242
3 168 238 243
3 238 239 244
3 239 240 245
3 240 241 246
3 241 242 247
3 173 243 248
3 243 244 249
3 244 245 250
3 245 246 251
3 246 247 252
3 178 248 253
3 248 249 254
3 249 250 255
3 250 251 256
3 251 252 257
3 183 253 258
3 253 254 259
3 254 255 260
3 255 256 261
3 256 257 262
3 188 258 263
3 258 259 264
3 259 260 265
3 260 261 266
3 261 262 267
3 268 269 275
3 269 270 276
3 270 271 277
3 271 272 278
3 272 273 279
3 274 275 280
3 275 276 281
3 276 277 282
3 277 278 283
3 278 279 35
3 202 280 284
3 280 281 285
3 281 282 286
3 282 283 287
3 283 35 41
3 207 284 288
3 284 285 289
3 285 286 290
3 286 287 291
3 287 41 47
3 212 288 292
3 288 289 293
3 289 290 294
3 290 291 295
3 291 47 53
3 217 292 296
3 292 293 297
3 293 294 298
3 294 295 299
3 295 53 59
3 222 296 300
3 296 297 301
3 297 298 302
3 298 299 303
3 299 59 65
3 227 300 304
3 300 301 305
3 301 302 306
3 302 303 307
3 303 65 71
3 232 304 308
3 304 305 309
3 305 306 310
3 306 307 311
3 307 71 77
3 237 308 312
3 308 309 313
3 309 310 314
3 310 311 315
3 311 77 83
3 242 312 316
3 312 313 317
3 313 314 318
3 314 315 319
3 315 83 89
3 247 316 320
3 316 317 321
3 317 318 322
3 318 319 323
3 319 89 95
3 252 320 324
3 320 321 325
3 321 322 326
3 322 323 327
3 323 95 101
3 257 324 328
3 324 325 329
3 325 326 330
3 326 327 331
3 327 101 107
3 262 328 332
3 328 329 333
3 329 330 334
3 330 331 335
3 331 107 113
3 113 114 336
3 114 115 337
3 115 116 338
3 116 117 339
3 117 118 189
3 335 336 340
3 336 337 341
3 337 338 342
3 338 339 343
3 339 189 190
3 334 340 344
3 340 341 345
3 341 342 346
3 342 343 347
3 343 190 191
3 333 344 348
3 344 345 349
3 345 346 350
3 346 347 351
3 347 191 192
3 332 348 266
3 348 349 265
3 349 350 264
3 350 351 263
3 351 192 193
3 273 1 0
3 272 2 1
3 271 3 2
3 270 4 3
3 269 5 4
3 0 7 6
3 1 8 7
3 2 9 8
3 3 10 9
3 4 11 10
3 6 13 12
3 7 14 13
3 8 15 14
3 9 16 15
3 10 17 16
3 12 19 18
3 13 20 19
3 14 21 20
3 15 22 21
3 16 23 22
3 18 25 24
3 19 26 25
3 20 27 26
3 21 28 27
3 22 29 28
3 273 30 279
3 0 31 30
3 6 32 31
3 12 33 32
3 18 34 33
3 279 36 35
3 30 37 36
3 31 38 37
3 32 39 38
3 33 40 39
3 35 42 41
3 36 43 42
3 37 44 43
3 38 45 44
3 39 46 45
3 41 48 47
3 42 49 48
3 43 50 49
3 44 51 50
3 45 52 51
3 47 54 53
3 48 55 54
3 49 56 55
3 50 57 56
3 51 58 57
3 53 60 59
3 54 61 60
3 55 62 61
3 56 63 62
3 57 64 63
3 59 66 65
3 60 67 66
3 61 68 67
3 62 69 68
3 63 70 69
3 65 72 71
3 66 73 72
3 67 74 73
3 68 75 74
3 69 76 75
3 71 78 77
3 72 79 78
3 73 80 79
3 74 81 80
3 75 82 81
3 77 84 83
3 78 85 84
3 79 86 85
3 80 87 86
3 81 88 87
3 83 90 89
3 84 91 90
3 85 92 91
3 86 93 92
3 87 94 93
3 89 96 95
3 90 97 96
3 91 98 97
3 92 99 98
3 93 100 99
3 95 102 101
3 96 103 102
3 97 104 103
3 98 105 104
3 99 106 105
3 101 108 107
3 102 109 108
3 103 110 109
3 104 111 110
3 105 112 111
3 107 114 113
3 108 115 114
3 109 116 115
3 110 117 116
3 111 118 117
3 24 119 34
3 25 120 119
3 26 121 120
3 27 122 121
3 28 123 122
3 34 124 40
3 119 125 124
3 120 126 125
3 121 127 126
3 122 128 127
3 40 129 46
3 124 130 129
3 125 131 130
3 126 132 131
3 127 133 132
3 46 134 52
3 129 135 134
3 130 136 135
3 131 137 136
3 132 138 137
3 52 139 58
3 134 140 139
3 135 141 140
3 136 142 141
3 137 143 142
3 58 144 64
3 139 145 144
3 140 146 145
3 141 147 146
3 142 148 147
3 64 149 70
3 144 150 149
3 145 151 150
3 146 152 151
3 147 153 152
3 70 154 76
3 149 155 154
3 150 156 155
3 151 157 156
3 152 158 157
3 76 159 82
3 154 160 159
3 155 161 160
3 156 162 161
3 157 163 162
3 82 164 88
3 159 165 164
3 160 166 165
3 161 167 166
3 162 168 167
3 88 169 94
3 164 170 169
3 165 171 170
3 166 172 171
3 167 173 172
3 94 174 100
3 169 175 174
3 170 176 175
3 171 177 176
3 172 178 177
3 100 179 106
3 174 180 179
3 175 181 180
3 176 182 181
3 177 183 182
3 106 184 112
3 179 185 184
3 180 186 185
3 181 187 186
3 182 188 187
3 112 189 118
3 184 190 189
3 185 191 190
3 186 192 191
3 187 193 192
3 29 194 123
3 23 195 194
3 17 196 195
3 11 197 196
3 5 274 197
3 123 198 128
3 194 199 198
3 195 200 199
3 196 201 200
3 197 202 201
3 128 203 133
3 198 204 203
3 199 205 204
3 200 206 205
3 201 207 206
3 133 208 138
3 203 209 208
3 204 210 209
3 205 211 210
3 206 212 211
3 138 213 143
3 208 214 213
3 209 215 214
3 210 216 215
3 211 217 216
3 143 218 148
3 213 219 218
3 214 220 219
3 215 221 220
3 216 222 221
3 148 223 153
3 218 224 223
3 219 225 224
3 220 226 225
3 221 227 226
3 153 228 158
3 223 229 228
3 224 230 229
3 225 231 230
3 226 232 231
3 158 233 163
3 228 234 233
3 229 235 234
3 230 236 235
3 231 237 236
3 163 238 168
3 233 239 238
3 234 240 239
3 235 241 240
3 236 242 241
3 168 243 173
3 238 244 243
3 239 245 244
3 240 246 245
3 241 247 246
3 173 248 178
3 243 249 248
3 244 250 249
3 245 251 250
3 246 252 251
3 178 253 183
3 248 254 253
3 249 255 254
3 250 256 255
3 251 257 256
3 183 258 188
3 253 259 258
3 254 260 259
3 255 261 260
3 256 262 261
3 188 263 193
3 258 264 263
3 259 265 264
3 260 266 265
3 261 267 266
3 268 275 274
3 269 276 275
3 270 277 276
3 271 278 277
3 272 279 278
3 274 280 202
3 275 281 280
3 276 282 281
3 277 283 282
3 278 35 283
3 202 284 207
3 280 285 284
3 281 286 285
3 282 287 286
3 283 41 287
3 207 288 212
3 284 289 288
3 285 290 289
3 286 291 290
3 287 47 291
3 212 292 217
3 288 293 292
3 289 294 293
3 290 295 294
3 291 53 295
3 217 296 222
3 292 297 296
3 293 298 297
3 294 299 298
3 295 59 299
3 222 300 227
3 296 301 300
3 297 302 301
3 298 303 302
3 299 65 303
3 227 304 232
3 300 305 304
3 301 306 305
3 302 307 306
3 303 71 307
3 232 308 237
3 304 309 308
3 305 310 309
3 306 311 310
3 307 77 311
3 237 312 242
3 308 313 312
3 309 314 313
3 310 315 314
3 311 83 315
3 242 316 247
3 312 317 316
3 313 318 317
3 314 319 318
3 315 89 319
3 247 320 252
3 316 321 320
3 317 322 321
3 318 323 322
3 319 95 323
3 252 324 257
3 320 325 324
3 321 326 325
3 322 327 326
3 323 101 327
3 257 328 262
3 324 329 328
3 325 330 329
3 326 331 330
3 327 107 331
3 262 332 267
3 328 333 332
3 329 334 333
3 330 335 334
3 331 113 335
3 113 336 335
3 114 337 336
3 115 338 337
3 116 339 338
3 117 189 339
3 335 340 334
3 336 341 340
3 337 342 341
3 338 343 342
3 339 190 343
3 334 344 333
3 340 345 344
3 341 346 345
3 342 347 346
3 343 191 347
3 333 348 332
3 344 349 348
3 345 350 349
3 346 351 350
3 347 192 351
3 332 266 267
3 348 265 266
3 349 264 265
3 350 263 264
3 351 193 263
