ply
format ascii 1.0
element vertex 352
property float x
property float y
property float z
property float nx
property float ny
property float nz
element face 700
property list uchar int vertex_indices
end_header
19.7139 35.0107 47.3245 0.333928 0.160467 0.928839
17.7988 39.8449 39.608 0.130683 0.859682 0.493831
16.0781 43.8423 33.8262 0.0216404 0.717654 0.696064
14.8907 48.9834 30.1256 0.118346 0.708247 0.695974
10.8688 53.9888 23.7371 0.158433 0.804078 0.573025
8.72873 59.1187 17.4797 0.25828 0.961704 0.0917442
12.3574 35.0289 49.068 0.257547 0.211467 0.942842
10.164 39.8183 41.8881 0.195295 0.877832 0.437344
7.38735 41.8407 34.6841 0.205325 0.883684 0.420646
5.06922 46.7624 30.4925 -0.0767958 0.587127 0.805844
2.17073 52.8206 26.9963 -0.100966 0.699259 0.707702
0.410342 59.3686 17.9219 -0.134613 0.990644 0.0224511
4.8693 35.6816 51.0045 0.242262 0.279187 0.929174
2.84422 40.0026 43.3596 0.154881 0.804662 0.573176
1.2913 45.008 39.3422 0.280053 0.887493 0.36596
-0.826103 47.6884 30.5791 0.242701 0.898846 0.364928
-3.72978 50.9736 25.176 -0.11552 0.748014 0.653552
-8.99027 56.1079 19.0998 -0.42349 0.905664 -0.0207143
-3.5477 35.7363 52.8373 0.00117986 0.242696 0.970102
-5.40989 40.6724 45.3187 0.0150258 0.833873 0.551751
-6.23217 45.7359 38.7868 -0.0813074 0.833461 0.546564
-9.17951 48.6807 32.0769 -0.0745246 0.903017 0.42309
-11.2635 51.8574 25.5943 -0.0483785 0.885348 0.462405
-13.9602 54.4419 19.0132 -0.173379 0.974047 -0.145506
-12.4052 35.1395 52.6823 -0.832177 0.107596 0.543971
-13.8066 39.5043 45.5612 -0.809923 0.397971 0.430865
-16.2123 43.6129 38.441 -0.807733 0.28959 0.513522
-17.8427 45.6594 32.3583 -0.797236 0.430606 0.423076
-19.4802 49.0059 25.7848 -0.821857 0.321372 0.470394
-22.2039 52.9318 19.9841 -0.578488 0.805641 -0.127647
19.1525 28.0141 41.0657 0.289076 -0.656467 0.696768
11.1411 28.445 44.1479 0.224319 -0.617547 0.753868
3.45938 28.0585 46.433 0.22032 -0.591182 0.775863
-3.80414 28.6803 48.4128 0.025131 -0.51988 0.85387
-13.3119 30.6865 48.0622 -0.704144 -0.351365 0.617028
24.0443 21.6925 31.5426 0.816324 -0.511869 0.267592
18.1047 21.7171 34.4298 0.30244 -0.76432 0.569514
10.4723 22.0824 39.6859 0.274334 -0.701571 0.657677
2.04326 22.0621 41.2818 0.24559 -0.633652 0.733601
-5.21259 21.5654 43.9708 0.106525 -0.578664 0.808579
-12.9231 23.634 44.579 -0.68367 -0.254381 0.684022
22.3092 16.3024 25.6589 0.722938 -0.615316 0.314241
15.0973 16.7438 28.527 0.223701 -0.802649 0.552913
8.10506 16.8668 32.8323 0.308543 -0.83243 0.460283
0.130575 16.2013 36.7973 0.333129 -0.736964 0.58814
-7.03297 15.6022 39.6955 0.175141 -0.604927 0.776781
-14.3909 17.2736 40.8003 -0.634065 -0.22475 0.739898
20.0346 11.2794 19.7699 0.682275 -0.677988 0.273557
12.9064 11.8805 22.955 0.160783 -0.784167 0.599359
4.82727 12.9594 26.1723 0.325382 -0.811893 0.484723
-2.50021 11.5513 30.5793 0.48254 -0.743851 0.462429
-8.63938 9.66164 35.348 0.2997 -0.648061 0.70014
-16.6751 11.1798 37.041 -0.578241 -0.245328 0.778108
16.1966 5.40712 13.6396 0.61165 -0.743723 0.269742
9.82239 6.83885 17.1027 0.11839 -0.821555 0.557702
2.00332 8.55656 20.837 0.363062 -0.812302 0.456456
-4.81676 5.70502 25.7106 0.605304 -0.666381 0.435365
-10.56 3.8188 31.0109 0.409005 -0.608366 0.680151
-18.9417 4.95092 33.4868 -0.540794 -0.292588 0.788628
12.6104 0.0908811 7.76807 0.542153 -0.798817 0.260696
5.88795 2.96278 10.8517 0.0717582 -0.835988 0.544035
-1.53498 4.65717 15.1758 0.396354 -0.839226 0.372294
-7.37321 0.748626 20.9305 0.700399 -0.676908 0.226355
-12.2333 -1.91595 27.1447 0.480935 -0.601827 0.637578
-21.0503 -0.885934 30.2249 -0.511548 -0.314169 0.799761
8.52566 -4.40832 1.37531 0.337825 -0.938492 -0.0714676
1.90929 -0.415195 5.50338 0.0465432 -0.896726 0.440132
-4.96243 0.158707 9.95121 0.454893 -0.808288 0.373822
-10.5545 -3.33408 15.463 0.773435 -0.616347 0.148036
-13.9834 -7.47463 23.2818 0.587566 -0.59801 0.545115
-22.9397 -7.24118 26.6406 -0.513632 -0.372843 0.772768
-1.43766 -2.1844 -3.361 0.349277 -0.92801 -0.129622
-3.49508 -1.81593 -0.359724 0.371546 -0.89122 0.260153
-8.51891 -3.73463 5.7459 0.703044 -0.667424 0.245507
-12.3962 -7.03368 12.0932 0.897249 -0.399755 0.187458
-15.0454 -11.8171 20.6427 0.638924 -0.461481 0.615477
-24.7388 -13.7627 22.6682 -0.558295 -0.349736 0.752324
-6.16795 -5.39944 -10.1506 0.687372 -0.679335 0.25695
-7.21959 -7.26949 -5.29633 0.840625 -0.495983 0.217603
-11.4241 -10.6837 1.40971 0.902153 -0.373402 0.216079
-13.7285 -14.12 9.83479 0.946706 -0.23193 0.22351
-16.1264 -19.8801 17.2427 0.692585 -0.353024 0.629047
-26.303 -22.08 18.3686 -0.473033 -0.416629 0.776312
-7.56977 -14.0072 -15.2772 0.828671 -0.195905 0.524334
-8.67933 -14.1583 -10.0709 0.949232 -0.0140554 0.314263
-12.6512 -18.78 -2.82243 0.951147 0.0564479 0.303534
-13.4656 -20.585 7.31247 0.935516 0.0257228 0.352347
-17.3981 -26.9592 14.5699 0.718268 -0.256808 0.646637
-23.623 -29.4995 15.0658 -0.53727 -0.47932 0.69397
-4.78135 -22.2218 -18.3457 0.625911 0.313238 0.714225
-6.51528 -22.7777 -12.3464 0.865494 0.397076 0.305371
-8.40888 -25.1962 -3.81978 0.827614 0.433355 0.356733
-10.4489 -27.5493 6.09401 0.778996 0.282743 0.559662
-15.7296 -33.8586 11.3694 0.56048 -0.159314 0.8127
-21.6834 -36.5209 11.3041 -0.578001 -0.480139 0.659834
1.1813 -29.492 -15.3782 -0.0650351 0.788209 0.611961
-0.887364 -30.0929 -11.8694 0.410893 0.792216 0.451177
-3.77873 -31.6093 -4.36567 0.693587 0.557477 0.456242
-6.04655 -35.0641 5.40651 0.699028 0.215168 0.681955
-13.309 -40.2873 7.97662 0.372394 -0.211752 0.903595
-19.616 -44.2553 7.95259 -0.518285 -0.5963 0.613031
10.7106 -26.182 -7.39879 -0.105996 0.872306 0.477334
6.90418 -30.5702 -7.20304 -0.175541 0.57137 0.801699
2.71364 -36.4825 -2.83643 0.292414 0.480298 0.826927
-2.04015 -43.2044 2.36053 0.567814 0.074652 0.819765
-8.61681 -47.2909 4.32972 0.30928 -0.280394 0.908694
-15.7516 -50.6256 3.98028 -0.45706 -0.635144 0.622647
17.473 -31.0731 -5.15617 0.407896 0.675612 0.614141
13.0381 -36.0399 -4.4795 -0.0728298 0.192354 0.978619
8.21837 -42.4403 -2.90594 0.187397 0.144204 0.971642
2.16641 -49.013 -0.900849 0.370859 -0.0850445 0.924787
-4.82974 -53.5288 0.336987 0.322911 -0.29543 0.899138
-11.5437 -57.1429 1.15802 -0.484993 -0.575039 0.658872
23.0317 -37.4814 -3.68121 0.891588 0.0412332 0.450967
17.7346 -43.5267 -3.06263 0.437783 -0.420785 0.794535
12.2659 -49.2629 -3.32907 0.491634 -0.540648 0.682639
5.92955 -54.285 -2.94099 0.508875 -0.696338 0.506123
-1.09796 -58.9105 -2.42116 0.527568 -0.794234 0.301439
-8.1294 -63.6294 -1.99039 0.0541305 -0.823529 0.564686
-11.2516 33.4832 41.4973 -0.988306 -0.0422181 -0.146525
-11.7147 37.163 34.1421 -0.858095 -0.513414 0.00885756
-15.8449 40.0791 27.0798 -0.778791 -0.610681 0.143365
-17.9319 42.2673 20.3862 -0.894918 -0.417952 0.156327
-20.5889 46.2805 14.496 -0.905603 0.102574 -0.411536
-12.3988 27.2234 37.7921 -0.928867 0.338201 -0.151084
-9.02101 30.5286 30.2321 -0.991669 0.070802 -0.107609
-9.97654 33.7541 22.5906 -0.849609 -0.505932 0.148991
-14.7026 35.9984 16.0172 -0.748024 -0.605861 0.270911
-18.7789 39.2368 10.686 -0.937512 -0.0529067 -0.343907
-15.3633 21.2726 34.0495 -0.892931 0.450176 0.00396843
-11.5853 23.5539 26.8285 -0.857555 0.487503 -0.164132
-9.52713 26.9982 18.1387 -0.997699 0.0667681 0.0117414
-11.4479 30.1657 11.814 -0.79121 -0.510287 0.337038
-17.4937 33.0272 6.25086 -0.958159 -0.182203 -0.220754
-18.6272 15.983 30.2892 -0.906939 0.404382 0.118051
-15.5592 18.1178 24.5804 -0.76978 0.599176 -0.22006
-10.9751 21.2351 15.1189 -0.894695 0.388381 -0.220639
-9.36325 23.8705 8.17647 -0.928098 -0.257707 0.268739
-15.1072 25.5656 0.273668 -0.977881 -0.157264 -0.1379
-21.7333 9.58637 26.5219 -0.942681 0.291865 0.161761
-19.1092 12.2285 19.5479 -0.772666 0.58944 -0.235684
-13.1634 14.9675 11.3893 -0.744083 0.603801 -0.285946
-8.43783 16.0296 3.10036 -0.985073 0.167673 0.038948
-13.8908 18.7695 -1.24036 -0.983876 -0.0955381 -0.151199
-24.1247 2.6511 21.8888 -0.966626 0.205751 0.152649
-22.0255 6.02605 15.2305 -0.848644 0.412876 -0.330662
-16.2493 9.41656 6.92815 -0.8156 0.345648 -0.46403
-12.5921 11.6644 -0.0868971 -0.9098 0.204257 -0.361306
-11.7525 11.5086 -5.7912 -0.880011 -0.279214 -0.384213
-25.8201 -3.62487 18.1985 -0.987816 0.116666 0.103
-23.7509 -0.733718 11.3873 -0.797121 0.35551 -0.488068
-15.6404 2.03265 4.24369 -0.673848 0.234226 -0.700761
-9.18939 5.0588 -0.527719 -0.721126 -0.122369 -0.681911
-7.09958 6.42223 -5.19471 -0.810567 -0.430046 -0.397545
-26.4032 -11.1468 14.3684 -0.997451 0.0650477 0.0293448
-24.4275 -7.88475 7.51648 -0.790317 0.32028 -0.522322
-15.0328 -6.14868 1.24613 -0.561788 0.392147 -0.728434
-7.85222 -2.87053 -1.77868 -0.550276 0.266466 -0.791323
-2.63656 -0.809025 -5.81379 -0.895548 -0.154208 -0.417389
-26.6765 -19.0463 10.498 -0.99904 0.0355538 -0.0255828
-24.7109 -15.3865 4.74647 -0.821632 0.29999 -0.484693
-15.9415 -12.3669 -2.50458 -0.594667 0.468508 -0.653354
-9.26714 -10.7455 -6.11757 -0.396548 0.521357 -0.755603
-2.68729 -8.86839 -8.19409 -0.83465 0.313576 -0.452802
-25.7605 -26.3921 7.46678 -0.98195 -0.187626 0.0238864
-25.4769 -22.949 0.975792 -0.876625 0.225657 -0.424979
-16.9876 -18.7217 -6.54147 -0.655889 0.427333 -0.622251
-11.5096 -16.7996 -10.6837 -0.45782 0.567455 -0.684394
-4.73544 -17.0221 -10.7235 -0.676561 0.657164 -0.332268
-24.3427 -33.8512 3.89815 -0.952066 -0.296576 0.0749266
-24.8772 -30.959 -2.74731 -0.943861 0.0320636 -0.328782
-17.917 -25.6063 -10.5753 -0.698109 0.418058 -0.581267
-11.2462 -23.8966 -13.9731 -0.818178 0.416689 -0.396176
-11.0403 -21.6019 -16.6518 -0.667535 0.700792 -0.251568
-21.9806 -41.3999 0.724584 -0.905635 -0.42403 -0.00484015
-22.2889 -38.0026 -6.00489 -0.930345 -0.267784 -0.2505
-19.1843 -32.9983 -14.6887 -0.868838 0.208967 -0.448835
-13.3546 -29.8588 -18.8191 -0.889555 0.419252 -0.181437
-14.8166 -26.0339 -24.2327 -0.74462 0.606837 -0.27801
-17.3063 -48.1869 -3.44369 -0.837488 -0.540992 -0.0770828
-17.7937 -44.9103 -10.2039 -0.879622 -0.435109 -0.192213
-17.7305 -39.9143 -17.7834 -0.950455 -0.182237 -0.251844
-15.8945 -35.7449 -23.9718 -0.986015 0.140345 -0.0898719
-16.757 -32.3524 -29.4469 -0.783745 0.452026 -0.42593
-13.0895 -53.7382 -6.12683 -0.89787 -0.439444 -0.0268016
-13.8689 -50.5578 -13.3513 -0.922379 -0.381988 -0.0574546
-14.9947 -46.9191 -21.0962 -0.956745 -0.28706 -0.0472751
-15.7936 -42.672 -27.5474 -0.991641 -0.125996 0.0277959
-17.0495 -39.695 -34.1482 -0.804438 0.267815 -0.53024
-10.6995 -60.425 -9.15767 -0.311528 -0.903445 -0.294512
-12.2651 -57.2247 -16.6316 -0.415064 -0.867973 -0.272661
-13.5448 -54.0033 -24.0343 -0.537241 -0.799918 -0.267401
-14.9759 -50.1665 -30.6848 -0.634088 -0.733443 -0.244936
-16.7254 -46.7613 -37.7772 -0.69208 -0.532632 -0.487164
-12.9779 48.5986 12.8931 -0.273716 0.647315 -0.711381
-7.83175 49.828 12.7409 -0.400435 0.631853 -0.663636
0.252812 52.7959 8.83547 -0.288455 0.684529 -0.669488
9.28762 54.598 8.40657 -0.00288268 0.769009 -0.639231
-12.3036 42.713 7.52565 -0.493302 0.507734 -0.7063
-5.3211 44.6502 5.91435 -0.375741 0.706435 -0.599807
0.938468 46.6796 2.75167 -0.234104 0.712453 -0.661518
9.45173 47.6456 4.47445 -0.0442066 0.65726 -0.752367
17.6435 48.5335 3.19655 0.834876 0.503686 -0.221996
-11.5003 35.6761 3.33057 -0.657218 0.30189 -0.690599
-5.67916 40.048 -1.14825 -0.523569 0.558157 -0.64369
1.94281 41.8394 -3.25091 -0.200645 0.726786 -0.656904
10.1313 42.1806 -2.7935 0.0567834 0.775726 -0.62851
16.6858 42.5169 -0.756081 0.65819 0.572643 -0.488739
-9.43588 28.092 -0.794557 -0.647893 0.289628 -0.704521
-5.28394 32.4638 -5.61106 -0.71882 0.299549 -0.62735
1.56546 35.8322 -8.64544 -0.302653 0.647723 -0.699183
10.3337 36.7694 -8.55022 -0.0249087 0.753238 -0.657276
17.4881 36.9456 -8.11738 0.687827 0.599074 -0.409883
-6.93571 21.2805 -6.31444 -0.676469 0.298321 -0.673346
-3.50666 23.98 -10.4578 -0.833427 0.192261 -0.518108
0.600463 29.0885 -14.6223 -0.5304 0.538115 -0.655064
9.7061 31.2139 -15.5419 -0.118798 0.760578 -0.638286
17.5646 32.0585 -14.8702 0.652173 0.592174 -0.473287
-5.15937 14.3085 -12.6836 -0.753894 0.0842287 -0.651575
-2.30586 16.9897 -15.2906 -0.890365 0.0979684 -0.444581
-0.00289876 22.248 -18.9039 -0.698857 0.417103 -0.581054
8.93909 26.5487 -21.0616 -0.232408 0.690372 -0.685108
17.4044 26.8872 -21.7379 0.690786 0.500069 -0.522251
-3.75718 9.45744 -11.1143 -0.834225 -0.162893 -0.526816
1.13502 9.02694 -20.2349 -0.923164 -0.0355841 -0.382757
0.371165 13.8354 -24.268 -0.858299 0.173512 -0.482924
7.87868 20.1875 -27.4543 -0.370841 0.624231 -0.687614
16.7795 19.6478 -28.3625 0.59578 0.432296 -0.67688
-2.7668 2.52398 -13.8842 -0.943072 -0.187742 -0.274532
-0.838614 4.22927 -20.5983 -0.964351 0.0824553 -0.251454
1.08981 7.27449 -23.9764 -0.917297 0.253807 -0.306837
5.86837 14.3972 -31.326 -0.603498 0.454657 -0.65504
12.5787 14.1047 -33.2872 0.566327 0.313056 -0.76241
-1.25751 -4.59317 -14.987 -0.982868 0.130706 -0.129951
0.607621 -2.07182 -21.1897 -0.994321 0.0313677 -0.1017
-0.544764 1.20122 -28.2694 -0.950624 0.184448 -0.249585
4.80337 7.22538 -36.0548 -0.678881 0.415806 -0.605167
12.3047 7.29583 -38.351 0.629031 0.348701 -0.694785
-3.46636 -11.8141 -17.8896 -0.926586 0.366167 -0.0857952
-1.65445 -8.61698 -25.1931 -0.96867 0.199198 -0.14832
-0.234589 -5.92529 -32.4339 -0.936145 0.0908986 -0.339663
4.23415 -3.08413 -40.7049 -0.678632 0.170076 -0.714516
12.0712 -1.26981 -42.849 0.524829 0.396239 -0.753358
-7.36089 -17.8851 -22.969 -0.786467 0.555739 -0.269486
-1.67513 -15.8333 -27.4139 -0.885692 0.276064 -0.37328
0.381825 -13.3364 -36.2437 -0.850901 0.0606175 -0.521817
7.23419 -11.8349 -42.5045 -0.566612 -0.0221101 -0.823688
14.0413 -11.2607 -45.1785 0.480258 0.406188 -0.777408
-8.00086 -24.7711 -26.5 -0.619331 0.524917 -0.583859
-2.64714 -22.7012 -32.0319 -0.745003 0.273323 -0.608494
2.2192 -20.5855 -39.2693 -0.733543 0.036013 -0.678688
8.86952 -20.2674 -42.941 -0.367486 -0.0303327 -0.929534
18.4408 -18.5411 -45.0276 0.468939 0.138989 -0.872226
-9.37113 -31.244 -31.1006 -0.36967 0.528557 -0.764181
-2.55941 -30.0545 -35.1551 -0.555883 0.283365 -0.781472
4.55868 -28.9464 -40.2764 -0.533527 -0.00907946 -0.845734
11.1472 -27.227 -43.0456 -0.283095 -0.064493 -0.956921
19.5337 -26.0204 -44.2713 0.54467 0.0424806 -0.837574
-9.76757 -38.6511 -35.7452 -0.264982 0.433666 -0.861231
-2.23942 -37.7623 -37.9914 -0.337219 0.304229 -0.890914
5.64294 -36.5729 -40.4542 -0.342321 0.0978625 -0.934473
13.246 -34.8988 -42.708 -0.259041 -0.0335028 -0.965285
20.8904 -33.4481 -44.5256 0.564729 0.134258 -0.814282
-8.77062 -45.992 -38.9974 -0.122253 -0.345331 -0.930484
-1.04827 -45.2517 -40.4765 -0.110164 -0.42565 -0.898157
6.75636 -43.8639 -41.936 -0.0558399 -0.519471 -0.852662
14.6377 -42.1036 -43.3286 -0.0102367 -0.636813 -0.77095
22.649 -40.487 -44.8 0.289991 -0.33354 -0.897026
9.16953 57.5044 17.0691 0.847356 0.191342 -0.495354
18.2776 54.6177 20.2399 0.724185 0.409276 -0.555022
20.9548 49.1997 25.9363 0.856716 0.514645 -0.0343358
23.7403 44.2041 31.7096 0.862966 0.48983 0.123917
25.2647 40.0374 36.9122 0.821824 0.541162 0.17818
27.6237 34.5694 43.3663 0.68546 0.16181 0.709902
12.3767 52.4397 9.30432 0.88678 0.336525 0.316816
10.6687 46.4482 15.9039 0.873541 0.323604 -0.363603
17.3226 42.4058 20.6806 0.824914 0.216913 -0.521983
21.6193 37.5189 26.4674 0.928053 0.142929 -0.343932
24.2432 32.9477 32.5403 0.968638 0.0331639 -0.246254
25.5745 27.9426 38.6702 0.87148 -0.44095 0.214676
14.9294 42.6579 9.58905 0.909505 0.350059 0.224186
18.7938 37.2362 14.7281 0.864668 0.477552 -0.155862
22.4771 31.6227 20.2879 0.96181 0.222247 -0.159772
23.6829 26.239 26.7073 0.98736 0.0229786 -0.156821
17.2228 37.3804 3.33603 0.973068 0.230046 -0.0147535
20.592 31.3621 8.25563 0.945954 0.305714 -0.108208
22.6123 25.5444 14.0205 0.995455 0.0345159 -0.0887586
22.1599 20.5097 20.4627 0.979924 -0.141274 -0.140676
18.348 31.9436 -2.82962 0.970155 0.232724 -0.0681038
21.3853 25.5793 1.58464 0.982607 0.150625 -0.108606
21.8432 19.9671 7.64376 0.982463 -0.185511 -0.0187452
19.5511 15.0644 14.4384 0.941877 -0.312856 -0.122426
19.4071 26.7959 -9.11026 0.981706 0.130797 -0.138369
21.3729 20.2046 -4.40192 0.991835 -0.074105 -0.103791
20.1713 14.4973 1.99761 0.911861 -0.410419 -0.00807859
16.5943 9.98301 8.82889 0.891658 -0.441287 -0.101054
18.9264 20.4099 -15.5642 0.988631 0.000591408 -0.150359
19.533 13.7985 -9.95871 0.955576 -0.287487 -0.0650106
16.414 9.08378 -3.15812 0.825613 -0.564001 0.0162985
12.6201 5.26964 3.07495 0.846811 -0.512884 -0.140931
17.7732 13.1817 -21.7421 0.995099 -0.0459697 -0.0875494
17.0145 8.00994 -15.9684 0.886886 -0.45636 0.0718878
12.7605 4.48206 -8.56895 0.679911 -0.733288 0.00299391
8.99199 1.0293 -2.53077 0.61907 -0.754173 -0.219033
17.3094 7.76457 -25.3201 0.908718 -0.159867 -0.385582
16.4335 3.22802 -21.3255 0.702169 -0.647461 0.296232
8.65134 2.1686 -14.7386 0.527785 -0.833981 0.160992
4.03226 -0.815205 -8.22233 0.449239 -0.892068 0.0489793
13.6419 4.58591 -29.6657 0.923198 -0.265009 -0.278344
14.1022 -0.18464 -24.9284 0.712784 -0.67954 0.17368
4.04989 -2.06474 -21.4564 0.559595 -0.679365 0.474675
-0.708371 -4.32727 -14.9112 0.632372 -0.693429 0.345344
11.1656 -1.88373 -35.1153 0.9623 -0.11523 0.246376
7.43141 -6.35835 -29.0086 0.890976 -0.3622 0.273812
3.14408 -9.89485 -26.5566 0.716783 -0.261292 0.64649
-1.74334 -11.1267 -19.4864 0.723714 -0.213364 0.656288
12.9981 -10.7484 -37.4206 0.811538 0.439177 0.385395
7.60437 -15.08 -30.624 0.567968 0.337 0.750895
5.15498 -18.359 -27.326 0.69857 0.312003 0.643937
1.50202 -18.8862 -21.3203 0.580681 0.320538 0.748375
19.1342 -17.8513 -37.4569 0.840798 0.523702 0.137094
15.5238 -19.0698 -28.6497 0.409039 0.672068 0.617262
8.90453 -24.5939 -24.752 0.143445 0.752654 0.642601
6.23913 -25.6819 -20.0488 0.252989 0.876958 0.408584
21.8573 -26.3004 -35.9653 0.979921 0.175025 -0.0955033
21.3028 -26.3623 -28.2547 0.850127 0.441891 0.286386
16.6429 -26.8646 -21.0625 0.449103 0.753625 0.479953
12.4303 -27.8391 -15.5461 0.404297 0.905803 0.126748
22.3224 -34.2634 -36.1235 0.976766 0.171742 -0.128189
22.901 -34.6959 -27.6332 0.974775 0.222772 0.0136057
22.0096 -33.8658 -19.9093 0.860939 0.477973 0.174142
19.2443 -32.3779 -12.948 0.697226 0.704459 0.132717
24.0112 -41.4819 -36.7801 0.802933 -0.5659 -0.187232
24.8208 -41.7565 -28.1575 0.854467 -0.512786 -0.0832899
24.9286 -41.1076 -19.8195 0.920406 -0.389689 0.0315611
24.5318 -39.4428 -11.9607 0.975628 -0.160295 0.149848
18.5091 -44.8449 -11.4394 0.627157 -0.770409 0.114649
12.3174 -49.2546 -11.6298 0.562005 -0.827008 -0.0144276
5.36057 -53.5582 -11.0605 0.413634 -0.900427 -0.134676
-2.48975 -56.4279 -9.81071 0.358859 -0.880729 -0.309091
17.8465 -45.7971 -19.9802 0.524344 -0.851067 -0.0273553
11.0042 -49.5299 -19.5338 0.434061 -0.890756 -0.134701
3.96332 -52.8417 -18.8699 0.295891 -0.927913 -0.226772
-4.18225 -54.5614 -17.4915 0.220257 -0.928476 -0.29903
16.8619 -45.164 -27.8309 0.390451 -0.906651 -0.15979
9.43564 -48.3954 -27.3377 0.307639 -0.910676 -0.275732
2.04431 -50.5981 -26.3247 0.197346 -0.917058 -0.346496
-5.80382 -52.1337 -25.0424 0.125396 -0.915434 -0.382434
15.6956 -43.7942 -35.5508 0.252732 -0.945696 -0.204413
7.98995 -45.9064 -34.7782 0.21077 -0.926893 -0.310557
0.153649 -47.721 -33.5743 0.12623 -0.916562 -0.379447
-7.57434 -49.1362 -32.2837 0.0675532 -0.907628 -0.414303
3 273 272 1
3 272 271 2
3 271 270 3
3 270 269 4
3 269 268 5
3 0 1 7
3 1 2 8
3 2 3 9
3 3 4 10
3 4 5 11
3 6 7 13
3 7 8 14
3 8 9 15
3 9 10 16
3 10 11 17
3 12 13 19
3 13 14 20
3 14 15 21
3 15 16 22
3 16 17 23
3 18 19 25
3 19 20 26
3 20 21 27
3 21 22 28
3 22 23 29
3 273 0 30
3 0 6 31
3 6 12 32
3 12 18 33
3 18 24 34
3 279 30 36
3 30 31 37
3 31 32 38
3 32 33 39
3 33 34 40
3 35 36 42
3 36 37 43
3 37 38 44
3 38 39 45
3 39 40 46
3 41 42 48
3 42 43 49
3 43 44 50
3 44 45 51
3 45 46 52
3 47 48 54
3 48 49 55
3 49 50 56
3 50 51 57
3 51 52 58
3 53 54 60
3 54 55 61
3 55 56 62
3 56 57 63
3 57 58 64
3 59 60 66
3 60 61 67
3 61 62 68
3 62 63 69
3 63 64 70
3 65 66 72
3 66 67 73
3 67 68 74
3 68 69 75
3 69 70 76
3 71 72 78
3 72 73 79
3 73 74 80
3 74 75 81
3 75 76 82
3 77 78 84
3 78 79 85
3 79 80 86
3 80 81 87
3 81 82 88
3 83 84 90
3 84 85 91
3 85 86 92
3 86 87 93
3 87 88 94
3 89 90 96
3 90 91 97
3 91 92 98
3 92 93 99
3 93 94 100
3 95 96 102
3 96 97 103
3 97 98 104
3 98 99 105
3 99 100 106
3 101 102 108
3 102 103 109
3 103 104 110
3 104 105 111
3 105 106 112
3 107 108 114
3 108 109 115
3 109 110 116
3 110 111 117
3 111 112 118
3 24 25 119
3 25 26 120
3 26 27 121
3 27 28 122
3 28 29 123
3 34 119 124
3 119 120 125
3 120 121 126
3 121 122 127
3 122 123 128
3 40 124 129
3 124 125 130
3 125 126 131
3 126 127 132
3 127 128 133
3 46 129 134
3 129 130 135
3 130 131 136
3 131 132 137
3 132 133 138
3 52 134 139
3 134 135 140
3 135 136 141
3 136 137 142
3 137 138 143
3 58 139 144
3 139 140 145
3 140 141 146
3 141 142 147
3 142 143 148
3 64 144 149
3 144 145 150
3 145 146 151
3 146 147 152
3 147 148 153
3 70 149 154
3 149 150 155
3 150 151 156
3 151 152 157
3 152 153 158
3 76 154 159
3 154 155 160
3 155 156 161
3 156 157 162
3 157 158 163
3 82 159 164
3 159 160 165
3 160 161 166
3 161 162 167
3 162 163 168
3 88 164 169
3 164 165 170
3 165 166 171
3 166 167 172
3 167 168 173
3 94 169 174
3 169 170 175
3 170 171 176
3 171 172 177
3 172 173 178
3 100 174 179
3 174 175 180
3 175 176 181
3 176 177 182
3 177 178 183
3 106 179 184
3 179 180 185
3 180 181 186
3 181 182 187
3 182 183 188
3 112 184 189
3 184 185 190
3 185 186 191
3 186 187 192
3 187 188 193
3 29 23 194
3 23 17 195
3 17 11 196
3 11 5 197
3 5 268 274
3 123 194 198
3 194 195 199
3 195 196 200
3 196 197 201
3 197 274 202
3 128 198 203
3 198 199 204
3 199 200 205
3 200 201 206
3 201 202 207
3 133 203 208
3 203 204 209
3 204 205 210
3 205 206 211
3 206 207 212
3 138 208 213
3 208 209 214
3 209 210 215
3 210 211 216
3 211 212 217
3 143 213 218
3 213 214 219
3 214 215 220
3 215 216 221
3 216 217 222
3 148 218 223
3 218 219 224
3 219 220 225
3 220 221 226
3 221 222 227
3 153 223 228
3 223 224 229
3 224 225 230
3 225 226 231
3 226 227 232
3 158 228 233
3 228 229 234
3 229 230 235
3 230 231 236
3 231 232 237
3 163 233 238
3 233 234 239
3 234 235 240
3 235 236 241
3 236 237 242
3 168 238 243
3 238 239 244
3 239 240 245
3 240 241 246
3 241 242 247
3 173 243 248
3 243 244 249
3 244 245 250
3 245 246 251
3 246 247 252
3 178 248 253
3 248 249 254
3 249 250 255
3 250 251 256
3 251 252 257
3 183 253 258
3 253 254 259
3 254 255 260
3 255 256 261
3 256 257 262
3 188 258 263
3 258 259 264
3 259 260 265
3 260 261 266
3 261 262 267
3 268 269 275
3 269 270 276
3 270 271 277
3 271 272 278
3 272 273 279
3 274 275 280
3 275 276 281
3 276 277 282
3 277 278 283
3 278 279 35
3 202 280 284
3 280 281 285
3 281 282 286
3 282 283 287
3 283 35 41
3 207 284 288
3 284 285 289
3 285 286 290
3 286 287 291
3 287 41 47
3 212 288 292
3 288 289 293
3 289 290 294
3 290 291 295
3 291 47 53
3 217 292 296
3 292 293 297
3 293 294 298
3 294 295 299
3 295 53 59
3 222 296 300
3 296 297 301
3 297 298 302
3 298 299 303
3 299 59 65
3 227 300 304
3 300 301 305
3 301 302 306
3 302 303 307
3 303 65 71
3 232 304 308
3 304 305 309
3 305 306 310
3 306 307 311
3 307 71 77
3 237 308 312
3 308 309 313
3 309 310 314
3 310 311 315
3 311 77 83
3 242 312 316
3 312 313 317
3 313 314 318
3 314 315 319
3 315 83 89
3 247 316 320
3 316 317 321
3 317 318 322
3 318 319 323
3 319 89 95
3 252 320 324
3 320 321 325
3 321 322 326
3 322 323 327
3 323 95 101
3 257 324 328
3 324 325 329
3 325 326 330
3 326 327 331
3 327 101 107
3 262 328 332
3 328 329 333
3 329 330 334
3 330 331 335
3 331 107 113
3 113 114 336
3 114 115 337
3 115 116 338
3 116 117 339
3 117 118 189
3 335 336 340
3 336 337 341
3 337 338 342
3 338 339 343
3 339 189 190
3 334 340 344
3 340 341 345
3 341 342 346
3 342 343 347
3 343 190 191
3 333 344 348
3 344 345 349
3 345 346 350
3 346 347 351
3 347 191 192
3 332 348 266
3 348 349 265
3 349 350 264
3 350 351 263
3 351 192 193
3 273 1 0
3 272 2 1
3 271 3 2
3 270 4 3
3 269 5 4
3 0 7 6
3 1 8 7
3 2 9 8
3 3 10 9
3 4 11 10
3 6 13 12
3 7 14 13
3 8 15 14
3 9 16 15
3 10 17 16
3 12 19 18
3 13 20 19
3 14 21 20
3 15 22 21
3 16 23 22
3 18 25 24
3 19 26 25
3 20 27 26
3 21 28 27
3 22 29 28
3 273 30 279
3 0 31 30
3 6 32 31
3 12 33 32
3 18 34 33
3 279 36 35
3 30 37 36
3 31 38 37
3 32 39 38
3 33 40 39
3 35 42 41
3 36 43 42
3 37 44 43
3 38 45 44
3 39 46 45
3 41 48 47
3 42 49 48
3 43 50 49
3 44 51 50
3 45 52 51
3 47 54 53
3 48 55 54
3 49 56 55
3 50 57 56
3 51 58 57
3 53 60 59
3 54 61 60
3 55 62 61
3 56 63 62
3 57 64 63
3 59 66 65
3 60 67 66
3 61 68 67
3 62 69 68
3 63 70 69
3 65 72 71
3 66 73 72
3 67 74 73
3 68 75 74
3 69 76 75
3 71 78 77
3 72 79 78
3 73 80 79
3 74 81 80
3 75 82 81
3 77 84 83
3 78 85 84
3 79 86 85
3 80 87 86
3 81 88 87
3 83 90 89
3 84 91 90
3 85 92 91
3 86 93 92
3 87 94 93
3 89 96 95
3 90 97 96
3 91 98 97
3 92 99 98
3 93 100 99
3 95 102 101
3 96 103 102
3 97 104 103
3 98 105 104
3 99 106 105
3 101 108 107
3 102 109 108
3 103 110 109
3 104 111 110
3 105 112 111
3 107 114 113
3 108 115 114
3 109 116 115
3 110 117 116
3 111 118 117
3 24 119 34
3 25 120 119
3 26 121 120
3 27 122 121
3 28 123 122
3 34 124 40
3 119 125 124
3 120 126 125
3 121 127 126
3 122 128 127
3 40 129 46
3 124 130 129
3 125 131 130
3 126 132 131
3 127 133 132
3 46 134 52
3 129 135 134
3 130 136 135
3 131 137 136
3 132 138 137
3 52 139 58
3 134 140 139
3 135 141 140
3 136 142 141
3 137 143 142
3 58 144 64
3 139 145 144
3 140 146 145
3 141 147 146
3 142 148 147
3 64 149 70
3 144 150 149
3 145 151 150
3 146 152 151
3 147 153 152
3 70 154 76
3 149 155 154
3 150 156 155
3 151 157 156
3 152 158 157
3 76 159 82
3 154 160 159
3 155 161 160
3 156 162 161
3 157 163 162
3 82 164 88
3 159 165 164
3 160 166 165
3 161 167 166
3 162 168 167
3 88 169 94
3 164 170 169
3 165 171 170
3 166 172 171
3 167 173 172
3 94 174 100
3 169 175 174
3 170 176 175
3 171 177 176
3 172 178 177
3 100 179 106
3 174 180 179
3 175 181 180
3 176 182 181
3 177 183 182
3 106 184 112
3 179 185 184
3 180 186 185
3 181 187 186
3 182 188 187
3 112 189 118
3 184 190 189
3 185 191 190
3 186 192 191
3 187 193 192
3 29 194 123
3 23 195 194
3 17 196 195
3 11 197 196
3 5 274 197
3 123 198 128
3 194 199 198
3 195 200 199
3 196 201 200
3 197 202 201
3 128 203 133
3 198 204 203
3 199 205 204
3 200 206 205
3 201 207 206
3 133 208 138
3 203 209 208
3 204 210 209
3 205 211 210
3 206 212 211
3 138 213 143
3 208 214 213
3 209 215 214
3 210 216 215
3 211 217 216
3 143 218 148
3 213 219 218
3 214 220 219
3 215 221 220
3 216 222 221
3 148 223 153
3 218 224 223
3 219 225 224
3 220 226 225
3 221 227 226
3 153 228 158
3 223 229 228
3 224 230 229
3 225 231 230
3 226 232 231
3 158 233 163
3 228 234 233
3 229 235 234
3 230 236 235
3 231 237 236
3 163 238 168
3 233 239 238
3 234 240 239
3 235 241 240
3 236 242 241
3 168 243 173
3 238 244 243
3 239 245 244
3 240 246 245
3 241 247 246
3 173 248 178
3 243 249 248
3 244 250 249
3 245 251 250
3 246 252 251
3 178 253 183
3 248 254 253
3 249 255 254
3 250 256 255
3 251 257 256
3 183 258 188
3 253 259 258
3 254 260 259
3 255 261 260
3 256 262 261
3 188 263 193
3 258 264 263
3 259 265 264
3 260 266 265
3 261 267 266
3 268 275 274
3 269 276 275
3 270 277 276
3 271 278 277
3 272 279 278
3 274 280 202
3 275 281 280
3 276 282 281
3 277 283 282
3 278 35 283
3 202 284 207
3 280 285 284
3 281 286 285
3 282 287 286
3 283 41 287
3 207 288 212
3 284 289 288
3 285 290 289
3 286 291 290
3 287 47 291
3 212 292 217
3 288 293 292
3 289 294 293
3 290 295 294
3 291 53 295
3 217 296 222
3 292 297 296
3 293 298 297
3 294 299 298
3 295 59 299
3 222 300 227
3 296 301 300
3 297 302 301
3 298 303 302
3 299 65 303
3 227 304 232
3 300 305 304
3 301 306 305
3 302 307 306
3 303 71 307
3 232 308 237
3 304 309 308
3 305 310 309
3 306 311 310
3 307 77 311
3 237 312 242
3 308 313 312
3 309 314 313
3 310 315 314
3 311 83 315
3 242 316 247
3 312 317 316
3 313 318 317
3 314 319 318
3 315 89 319
3 247 320 252
3 316 321 320
3 317 322 321
3 318 323 322
3 319 95 323
3 252 324 257
3 320 325 324
3 321 326 325
3 322 327 326
3 323 101 327
3 257 328 262
3 324 329 328
3 325 330 329
3 326 331 330
3 327 107 331
3 262 332 267
3 328 333 332
3 329 334 333
3 330 335 334
3 331 113 335
3 113 336 335
3 114 337 336
3 115 338 337
3 116 339 338
3 117 189 339
3 335 340 334
3 336 341 340
3 337 342 341
3 338 343 342
3 339 190 343
3 334 344 333
3 340 345 344
3 341 346 345
3 342 347 346
3 343 191 347
3 333 348 332
3 344 349 348
3 345 350 349
3 346 351 350
3 347 192 351
3 332 266 267
3 348 265 266
3 349 264 265
3 350 263 264
3 351 193 263
