ply
format ascii 1.0
element vertex 352
property float x
property float y
property float z
property float nx
property float ny
property float nz
element face 700
property list uchar int vertex_indices
end_header
-15.8594 58.5587 -15.9955 0.0313435 0.772894 -0.63376
-16.0492 57.7271 -9.89385 -0.0495046 0.995809 0.0769012
-18.4679 57.7818 -2.45266 -0.0964431 0.992174 -0.0793048
-18.5597 57.187 4.31064 -0.49586 0.832812 0.246062
-16.9202 55.0211 11.6543 -0.412272 -0.836481 0.361014
-4.42941 53.682 9.14074 -0.723272 -0.649392 -0.234877
-7.13601 59.5635 -15.0251 -0.00510947 0.789907 -0.613205
-9.05494 58.3058 -7.32577 -0.159497 0.975553 0.151186
-8.89084 56.4361 -0.499934 0.0341561 0.977799 -0.20674
-11.0086 61.985 5.96102 -0.102731 0.98821 -0.113525
-10.9621 58.7497 13.9575 -0.43704 0.86776 0.236622
-14.0005 56.7021 21.7243 -0.988154 -0.123416 0.0912209
-0.18883 59.7195 -15.0002 -0.0124581 0.734519 -0.678474
-0.862763 59.1904 -7.6453 -0.105266 0.991834 0.0719973
-2.3149 58.7446 0.474524 -0.117626 0.993037 0.00644918
-2.71985 59.9941 8.20365 0.145895 0.973367 -0.176836
-3.36007 60.6604 17.346 -0.0230071 0.989803 0.140575
-5.08862 58.5283 24.0946 -0.395541 0.612842 0.684085
8.88323 60.4886 -14.4459 0.0127248 0.727697 -0.68578
7.47341 60.355 -6.14321 -0.103695 0.993582 0.0451969
6.76743 59.4727 1.45368 -0.104635 0.990645 0.0876001
5.50353 58.9937 9.54987 0.0455246 0.998951 -0.00489074
4.30634 59.3947 18.0909 0.0980669 0.995039 0.0167658
2.8629 58.3113 27.449 -0.099997 0.691404 0.715515
18.3032 60.1304 -14.2935 0.781404 0.533961 -0.322943
15.9559 60.7683 -5.46138 0.588198 0.802201 0.102452
14.9966 60.5495 3.32397 0.602603 0.779089 0.172886
14.7635 58.9259 11.0871 0.602345 0.773995 0.195225
12.6589 58.4917 18.74 0.693448 0.708497 0.131008
10.3101 58.9105 27.6085 0.358393 0.629213 0.68967
-14.4027 51.1048 -17.7006 0.249117 0.205134 -0.946499
-6.41306 51.7043 -16.4137 0.134185 0.124641 -0.983086
1.34842 52.2019 -15.2072 0.130177 0.0704203 -0.988987
9.22074 52.6818 -14.0067 0.0925591 0.00592652 -0.99569
17.5728 53.6012 -13.3993 0.706544 -0.0360344 -0.706751
-20.3426 42.1722 -22.3288 -0.278797 0.10166 -0.954954
-13.4295 42.8984 -18.5933 0.372128 0.0981867 -0.922974
-5.86238 43.5737 -16.6625 0.201238 -0.0467526 -0.978426
2.30435 44.3681 -15.4985 0.13052 -0.0667434 -0.989197
9.97191 44.6725 -14.147 0.0998435 0.006243 -0.994984
18.1079 45.4844 -13.6752 0.746142 0.0805444 -0.660897
-19.361 33.9995 -23.0252 -0.206328 0.0202721 -0.978273
-12.3026 34.7848 -18.9021 0.455728 0.097342 -0.884781
-5.21584 35.481 -15.44 0.3176 0.00441999 -0.948214
2.47254 36.4112 -13.4862 0.102729 -0.104626 -0.989192
10.6897 37.1122 -13.7262 0.0269654 -0.0740628 -0.996889
18.7683 37.398 -13.7606 0.726225 0.0609972 -0.684746
-18.2745 26.2286 -22.9937 -0.218666 -0.0696152 -0.973313
-11.2482 27.0298 -19.0772 0.4082 0.102808 -0.907085
-4.10081 27.8792 -15.6886 0.306086 0.216739 -0.927004
3.41957 28.5387 -13.4733 0.176368 0.165818 -0.970257
11.5846 29.3932 -13.6087 0.0136796 -0.0138086 -0.999811
19.8246 29.999 -13.3216 0.720987 0.0629837 -0.69008
-16.5953 17.6809 -22.4111 -0.216234 -0.136564 -0.966744
-9.63191 18.9876 -18.8022 0.263264 0.0242244 -0.96442
-2.50297 20.0001 -17.752 0.145718 0.235912 -0.960787
5.75182 21.0148 -16.5393 0.273554 0.345498 -0.897663
12.8045 21.4833 -13.5306 0.174986 0.119177 -0.977332
21.0085 22.164 -12.9784 0.745412 0.065314 -0.663397
-15.5305 9.63654 -21.2967 -0.151929 -0.122228 -0.980805
-7.91763 10.7847 -17.7703 0.150978 -0.125845 -0.980494
-0.762088 12.4078 -19.4706 -0.0542802 -0.00841117 -0.99849
7.81579 13.3389 -18.9794 0.296863 0.229478 -0.926937
14.5986 13.883 -14.2953 0.366344 0.193032 -0.910237
22.3515 14.4144 -12.4685 0.819789 0.133158 -0.556969
-14.1573 2.72559 -22.032 -0.256652 -0.00503813 -0.966491
-7.17623 3.06356 -16.4782 0.224382 0.0631319 -0.972454
0.302632 4.35326 -18.0064 -0.195925 -0.0346049 -0.980008
9.04047 5.83676 -19.369 0.211972 0.156449 -0.964672
16.0832 6.62128 -14.9258 0.421802 0.199007 -0.884579
23.7889 7.39664 -12.6873 0.903186 0.154636 -0.400428
-13.118 -5.68979 -21.6919 -0.390608 0.126069 -0.911884
-5.22866 -3.47816 -17.5015 0.237283 0.262245 -0.935374
1.06975 -3.53304 -18.6253 -0.2215 0.110317 -0.9689
11.2024 -1.94857 -21.4907 0.0800001 0.196777 -0.977179
18.3598 -0.947412 -16.5483 0.487706 0.329155 -0.808579
25.2912 -0.0873318 -12.9719 0.943131 0.214301 -0.254124
-13.4825 -12.7212 -23.3872 -0.619293 -0.171888 -0.766114
-5.30564 -10.9103 -20.8989 0.127649 0.254819 -0.958526
2.78485 -10.1946 -20.6619 -0.0594587 0.226232 -0.972257
11.9713 -9.73181 -21.9559 0.0621795 0.052889 -0.996663
20.819 -8.66143 -18.9959 0.488408 0.186828 -0.852381
26.211 -7.92942 -13.8574 0.952015 0.270007 -0.144093
-9.15059 -19.9317 -20.8383 -0.714106 -0.60204 -0.357213
-4.03586 -18.3819 -21.6582 -0.0810261 -0.135171 -0.987504
4.49549 -17.4203 -22.4492 -0.010893 0.125914 -0.991981
12.9218 -17.2978 -21.705 0.209236 0.101899 -0.972542
21.2028 -16.5617 -18.8125 0.418896 -0.000739026 -0.908034
27.8165 -15.7632 -14.5607 0.975411 0.103356 -0.194654
-3.544 -28.2387 -13.7952 -0.595047 -0.018917 -0.803468
-1.92635 -26.9571 -18.7166 -0.460765 -0.271198 -0.845072
5.79901 -25.4292 -22.6253 -0.1868 -0.083981 -0.978802
14.9171 -25.1095 -22.924 0.284724 0.124239 -0.950524
21.6427 -24.5554 -18.332 0.471482 0.0697492 -0.879113
28.5584 -23.7529 -14.6123 0.97201 0.0709534 -0.223969
-5.58187 -34.9689 -20.0537 -0.00327511 0.625251 -0.780417
-1.1366 -33.9949 -20.1204 -0.286569 0.313375 -0.905359
6.44099 -33.5203 -22.1312 -0.193655 0.0257533 -0.980732
16.123 -33.2989 -23.4441 0.232165 0.0155727 -0.972552
22.6062 -32.3945 -18.4083 0.523117 0.0773268 -0.848746
29.463 -31.6355 -14.8523 0.961264 0.122671 -0.246825
-7.88844 -40.8629 -26.3064 -0.209433 0.40323 -0.89081
-1.1238 -41.0615 -23.3415 0.161213 0.331624 -0.929535
7.27422 -41.1295 -23.3161 0.0113227 0.0885494 -0.996008
16.6071 -41.4782 -22.9793 0.230256 -0.0423765 -0.972207
23.2379 -40.5077 -18.5662 0.501703 0.0354365 -0.864314
30.2891 -39.5697 -15.0035 0.946034 0.117925 -0.301849
-7.18264 -48.693 -27.8539 -0.403763 0.100443 -0.909333
-0.00858031 -48.7858 -25.2444 0.308417 0.177817 -0.934484
7.79148 -49.168 -23.4172 0.19897 0.052163 -0.978616
16.4258 -49.3448 -21.5983 0.256701 -0.0790815 -0.96325
23.6577 -48.4539 -18.4874 0.415148 -0.0133779 -0.909656
30.9891 -47.6757 -15.3672 0.9261 0.0836825 -0.36788
-6.57293 -57.5014 -28.8219 -0.449857 -0.635951 -0.627052
0.876458 -57.0512 -26.1644 0.285949 -0.619154 -0.731356
8.49563 -57.1537 -23.6129 0.222858 -0.676264 -0.70214
16.2603 -56.9852 -21.0445 0.22539 -0.719034 -0.657411
23.9875 -56.3176 -18.3679 0.302211 -0.71116 -0.634761
31.5784 -55.5805 -15.5596 0.704001 -0.357233 -0.613814
17.4052 53.3567 -5.61776 0.98791 0.0798049 0.132908
15.8242 52.8379 2.7857 0.967337 0.0993367 0.233221
13.6303 52.1046 11.0615 0.972388 -0.0564952 0.226427
11.8065 50.9864 18.338 0.985885 -0.106548 0.129143
11.2246 50.4847 26.3154 0.672133 -0.0707724 0.737041
17.5271 45.6276 -5.35851 0.994391 0.0590665 0.0877373
16.8937 44.9624 2.52346 0.954277 -0.0129882 0.298643
13.7113 44.1396 10.4999 0.947821 -0.110251 0.299131
10.9394 43.4403 17.831 0.988236 -0.0797631 0.130492
11.1612 42.429 25.6402 0.721723 -0.0905305 0.686236
18.5283 37.5002 -5.52416 0.985681 0.130869 0.106331
16.9409 37.1445 2.47581 0.895751 0.114289 0.429614
11.5165 36.4394 8.85546 0.923486 -0.0505399 0.380288
10.3697 35.8934 16.7983 0.995081 -0.061271 0.0778379
10.8555 34.938 25.3063 0.740788 -0.0787046 0.667112
19.5284 29.7243 -5.40771 0.991071 0.111513 0.0730954
18.6134 29.3661 2.67715 0.899501 0.180989 0.397669
12.9009 28.8437 8.95611 0.824663 0.20596 0.526794
10.8309 28.2398 16.4946 0.989698 0.0701191 0.124821
10.8783 27.2223 24.9461 0.688658 -0.0339213 0.724292
20.1734 21.824 -5.31037 0.993407 0.0678651 0.0923957
19.4365 21.5028 2.92343 0.96016 0.101429 0.260392
15.5176 21.0822 9.80096 0.794915 0.228981 0.561852
11.4217 20.3249 16.4812 0.948545 0.108642 0.297421
10.8175 19.1856 24.7212 0.646229 -0.0526623 0.761324
20.474 13.9513 -5.2785 0.987197 0.0626119 0.146704
19.5872 13.1102 3.1444 0.981616 0.0381893 0.187005
17.6277 13.0562 10.4394 0.86794 0.111704 0.483945
12.4272 12.4442 16.5858 0.872654 0.144448 0.466487
10.2537 11.3932 24.4148 0.538115 -0.00324054 0.842865
20.6698 6.65191 -5.75054 0.985012 0.0909241 0.146576
20.2368 6.17058 2.69482 0.959207 0.195245 0.204452
17.8261 5.66085 9.65792 0.880759 0.129175 0.455606
13.7992 4.78622 16.4803 0.88344 0.0894976 0.459917
10.7572 4.27442 24.4823 0.420683 0.0161754 0.907063
20.7263 -1.21837 -6.49089 0.984892 0.0529038 0.164888
22.7676 -1.32037 2.96399 0.985713 0.168397 0.00361484
20.2416 -2.25916 10.4502 0.76624 0.343061 0.543309
14.4069 -2.66277 16.7304 0.825682 0.171622 0.537396
11.6846 -3.39931 24.0182 0.341172 0.0151194 0.939879
21.7442 -8.85526 -6.68864 0.930617 0.111218 0.348686
22.1724 -9.10782 1.82066 0.983218 -0.0771018 -0.165344
24.228 -10.5148 11.8116 0.911901 0.097451 0.398673
16.3261 -10.3839 17.4996 0.721691 0.200352 0.662586
11.4129 -10.6094 24.7986 0.265827 0.0796685 0.960723
24.2602 -16.2567 -6.5817 0.889368 0.148251 0.432488
20.6472 -17.141 0.448487 0.997804 0.0272598 0.060368
22.7724 -17.6284 10.436 0.978445 -0.161168 0.129116
17.7284 -18.4413 16.7983 0.802669 -0.0089364 0.596358
13.4336 -18.6908 23.8145 0.266733 -0.0356262 0.963112
24.444 -24.2951 -7.1067 0.923698 0.0283025 0.382075
22.2391 -24.7691 0.403325 0.976002 0.0800055 0.202531
21.729 -25.548 8.64745 0.979246 0.00394321 0.202639
17.8966 -26.084 16.0591 0.890031 -0.0104802 0.45578
14.7716 -26.7226 23.3123 0.279723 -0.032837 0.959519
25.0836 -32.3692 -7.74699 0.902974 0.109886 0.415408
22.476 -32.7712 -0.0810074 0.973248 0.0948466 0.209267
22.1685 -33.4109 8.20158 0.973144 0.0399744 0.226702
18.8179 -34.0417 15.4672 0.907808 0.0687135 0.41372
15.6505 -34.3994 22.8323 0.353242 0.0126892 0.935446
26.3752 -39.8753 -7.91559 0.908033 0.140779 0.394535
24.3302 -40.5655 -0.225601 0.949872 0.150607 0.273972
22.5033 -41.3276 7.7413 0.961484 0.0725781 0.265106
19.5836 -41.9963 15.1808 0.923696 0.0652087 0.377537
16.5956 -42.3836 22.5354 0.383015 0.02244 0.92347
27.8912 -47.859 -7.98216 0.922148 0.110239 0.370797
25.4842 -48.4969 -0.400828 0.945944 0.10475 0.306948
23.006 -49.3062 7.27019 0.947557 0.0648688 0.312934
20.2639 -49.8417 14.8234 0.935805 0.0632418 0.346799
17.5364 -50.3691 22.2947 0.413528 0.00379127 0.910484
28.8178 -56.0291 -8.1604 0.719711 -0.651002 0.241273
26.1546 -56.4804 -0.703288 0.728325 -0.655621 0.199259
23.5925 -57.218 6.86887 0.72222 -0.666079 0.186378
20.9703 -57.755 14.3859 0.719047 -0.663936 0.20533
18.3644 -58.2323 21.9177 0.576637 -0.641319 0.506162
3.52842 51.0459 26.2376 0.00654681 -0.0614389 0.998089
-4.07122 51.4213 25.7941 -0.443012 0.108673 0.889905
-10.6413 50.2812 20.3462 -0.914289 -0.00732643 0.404995
-8.15009 46.7769 11.7775 -0.87093 0.105931 -0.479854
3.69793 42.5983 25.8575 0.127669 -0.0487174 0.99062
-4.37532 42.8944 27.2935 -0.29863 0.118807 0.946945
-11.4633 42.4248 21.2937 -0.853095 0.269767 0.446603
-10.9946 39.6378 13.2038 -0.827976 0.28319 -0.484002
-6.31646 36.7537 7.49535 -0.821422 0.426639 0.378476
3.44568 34.5861 25.0846 0.17344 -0.120317 0.977467
-4.45726 33.8967 27.8433 -0.122698 -0.0409253 0.9916
-12.9411 33.8946 22.8506 -0.703689 0.183296 0.686458
-16.0327 33.7346 15.2224 -0.874997 0.389778 -0.287145
-9.71151 30.775 9.07966 -0.793933 0.605568 0.0543938
3.01669 26.9801 24.0452 0.0924604 -0.139953 0.985832
-4.51807 25.9035 26.3213 0.0116044 -0.179717 0.98365
-13.3029 25.5065 23.2973 -0.538747 -0.00684437 0.84244
-19.2095 26.019 17.1945 -0.864542 0.315772 0.390968
-16.2509 25.1691 12.1291 -0.758141 0.631502 -0.162567
3.15059 18.9971 23.071 -0.0172537 -0.13409 0.990819
-4.87451 18.1137 24.271 0.0239078 -0.252539 0.967291
-13.1194 17.1915 22.957 -0.361786 -0.183757 0.913972
-19.8516 17.7043 17.6402 -0.544321 0.0427126 0.837789
-25.3507 18.8705 14.767 -0.883264 0.46089 0.0861699
3.65258 11.4442 21.9066 -0.119718 -0.130097 0.984247
-4.40048 10.7347 22.4785 -0.079495 -0.209444 0.974584
-12.2972 10.2975 20.0486 -0.242956 -0.268173 0.932231
-19.8364 9.41714 17.6563 -0.314581 -0.124991 0.940966
-26.6586 10.355 15.5827 -0.887823 0.0692254 0.454949
4.0488 3.95445 21.1142 -0.214641 -0.10677 0.97084
-3.69108 2.99338 20.7927 -0.0936709 -0.114917 0.988949
-11.6024 2.41997 18.6791 -0.307136 -0.0973329 0.946675
-19.4708 1.8136 16.2057 -0.172008 -0.14805 0.973907
-26.6021 1.233 15.753 -0.842161 -0.0448328 0.53736
5.08511 -3.87478 20.2735 -0.241962 -0.10257 0.964849
-3.46565 -4.55573 19.9674 -0.0265804 -0.0584019 0.997939
-11.3583 -6.00268 19.3261 -0.393049 -0.0246058 0.919188
-18.8703 -6.26847 15.4022 -0.195181 -0.175116 0.965007
-27.1052 -7.04968 14.9033 -0.768909 -0.125945 0.626831
6.21654 -11.6366 19.8792 -0.360858 -0.0564228 0.930912
-2.48751 -12.3556 19.4995 0.0222004 -0.139255 0.990008
-12.489 -13.6461 20.0179 -0.40997 -0.0936113 0.907282
-16.459 -13.7401 12.9698 -0.335339 -0.157595 0.928823
-25.8454 -15.26 13.5836 -0.642702 -0.25787 0.721414
6.2451 -19.0536 20.0472 -0.402954 -0.102373 0.909476
-0.987494 -20.1498 17.7409 -0.0927242 -0.15406 0.983701
-10.2752 -21.3335 18.1396 -0.242005 -0.267974 0.932536
-16.033 -21.2827 12.4753 -0.412457 -0.133739 0.901107
-24.4013 -23.1473 12.561 -0.661495 -0.186958 0.726272
7.46361 -27.1276 19.1966 -0.378349 -0.121675 0.917632
-0.34599 -27.8239 17.303 -0.205645 -0.140564 0.968479
-8.13519 -28.8606 15.7931 -0.220939 -0.199226 0.954723
-15.2659 -29.2786 12.376 -0.319215 -0.113136 0.940905
-23.3977 -30.6642 11.5956 -0.74337 -0.156709 0.650264
8.43768 -35.1254 19.1987 -0.416275 -0.0275732 0.908821
0.95443 -35.7674 16.0359 -0.275892 -0.0554643 0.959587
-6.83436 -36.4888 14.6057 -0.225169 -0.11546 0.967454
-14.4004 -37.2811 12.3025 -0.258264 -0.0778919 0.962929
-22.337 -38.4991 10.8541 -0.813442 -0.13625 0.565463
9.14695 -42.8374 19.4626 -0.363917 -0.0198851 0.931219
1.7399 -43.6928 16.861 -0.330004 0.0204993 0.943757
-5.95678 -44.5145 14.4546 -0.283492 -0.0191952 0.958782
-13.5797 -45.2801 12.102 -0.265159 -0.066631 0.9619
-21.2978 -46.3295 10.2855 -0.844062 -0.148213 0.515356
9.98664 -50.9234 19.6275 -0.328306 -0.0571984 0.942838
2.39374 -51.6653 17.1279 -0.316329 -0.0474399 0.947463
-5.18487 -52.6159 14.5657 -0.319197 -0.0539445 0.946152
-12.6907 -53.3163 11.8499 -0.308373 -0.0741024 0.948375
-20.261 -54.1696 9.49254 -0.865734 -0.147988 0.478126
10.8257 -58.9777 19.2548 -0.149062 -0.755652 0.637785
3.31413 -59.6925 16.6737 -0.143764 -0.75606 0.638518
-4.22533 -60.4323 14.0347 -0.143832 -0.76605 0.626482
-11.7094 -61.23 11.4167 -0.13364 -0.767656 0.626773
-19.2295 -62.0723 8.81134 -0.576272 -0.527973 0.623823
-2.24487 52.4104 0.530978 -0.707925 -0.00866982 0.706235
-6.82707 52.3913 2.2063 -0.0349326 -0.772129 0.634505
-23.7565 54.4717 3.76289 -0.501027 -0.494733 0.710078
-26.0827 55.8348 -3.10682 -0.841604 0.530336 0.102204
-24.9989 57.4235 -11.5375 -0.724723 0.680839 -0.105993
-24.4547 57.4431 -18.5812 -0.122963 0.771081 -0.624752
-4.78192 45.2977 4.16926 -0.85616 0.406669 0.318765
-10.1099 47.0508 3.36525 -0.150027 0.24891 0.956836
-20.008 47.6796 1.60782 -0.451761 -0.124452 0.883416
-25.8484 48.7992 -5.11178 -0.97673 -0.120652 0.177319
-24.8795 49.5592 -13.4733 -0.959483 0.0119869 -0.281512
-21.6635 50.5029 -20.791 -0.383998 0.127901 -0.914433
-13.6769 40.0486 5.24405 -0.347965 0.348443 0.870349
-22.8056 40.4645 0.445667 -0.678546 0.138689 0.721346
-26.4823 40.6458 -7.25619 -0.993193 0.0409769 0.109038
-24.2352 40.9481 -16.0468 -0.932983 0.00347191 -0.359905
-18.1653 32.7597 7.10664 -0.509991 0.343216 0.788741
-24.5197 32.9103 -0.399441 -0.846618 0.144375 0.512244
-26.6745 32.4921 -8.72288 -0.997759 -0.0115745 -0.0659042
-23.3769 32.9632 -16.7386 -0.898787 -0.080235 -0.430981
-21.5366 25.9566 7.70462 -0.733761 0.347317 0.583922
-24.8184 25.3588 -0.343756 -0.952084 0.088176 0.292849
-26.16 24.6075 -9.22191 -0.980027 -0.0701304 -0.186089
-21.9136 24.8359 -16.564 -0.85892 -0.15861 -0.486928
-23.5023 18.3429 8.15756 -0.946846 0.309591 0.087384
-25.1486 17.7984 -0.181106 -0.991896 0.0093824 0.126705
-25.5558 16.844 -9.44034 -0.95235 -0.128403 -0.276664
-20.3661 16.8962 -16.0411 -0.823878 -0.192084 -0.533225
-25.2198 10.2224 7.96069 -0.98394 0.0948884 -0.151188
-24.7798 9.90529 -0.0854205 -0.997729 -0.0434289 -0.0514951
-24.0816 9.16347 -8.88175 -0.908054 -0.224967 -0.35331
-18.3666 9.7533 -15.3533 -0.816163 -0.246281 -0.522709
-25.5511 1.94656 7.83287 -0.991532 0.025769 -0.127279
-24.3215 2.0622 -0.202592 -0.947471 -0.0630319 -0.31357
-22.1672 1.51329 -7.34448 -0.875232 -0.333104 -0.350728
-16.4373 1.96233 -14.0438 -0.850253 -0.205377 -0.484655
-25.394 -6.48864 7.68172 -0.996665 -0.0199906 -0.0791169
-25.2295 -5.91829 -0.76547 -0.844388 0.0748327 -0.530481
-17.3923 -5.11499 -6.29863 -0.837169 -0.236017 -0.493401
-15.7054 -5.30481 -13.9374 -0.933397 -0.201243 -0.297106
-24.4596 -14.5212 6.38689 -0.990839 -0.131891 -0.0290258
-25.5713 -14.0886 -1.83847 -0.865078 0.0623848 -0.497743
-16.3806 -12.962 -6.88732 -0.662845 0.0089727 -0.748703
-13.9748 -12.2298 -14.5226 -0.912004 -0.381009 -0.151924
-23.1855 -22.519 5.41408 -0.985665 -0.168709 -0.00137494
-24.65 -21.8178 -3.22647 -0.941343 -0.0219859 -0.336734
-17.02 -20.752 -8.93808 -0.490144 0.277183 -0.826395
-9.49138 -20.183 -12.0743 -0.753311 -0.219919 -0.619805
-21.8031 -30.1833 4.41548 -0.983939 -0.178154 -0.0112041
-23.3155 -29.6421 -4.10752 -0.966347 -0.153422 -0.206483
-18.5554 -28.2681 -11.2186 -0.657035 0.179372 -0.732209
-10.4944 -27.6036 -15.0293 -0.203017 0.446441 -0.871478
-20.3433 -37.6857 3.40121 -0.972928 -0.204158 -0.108306
-21.6332 -37.5053 -4.71866 -0.949182 -0.276619 -0.150115
-17.4835 -35.9639 -12.2601 -0.800659 -0.0602723 -0.596081
-11.6581 -34.7672 -18.238 -0.592614 0.286573 -0.752785
-19.2475 -45.5312 2.58886 -0.956356 -0.145105 -0.253631
-17.7195 -45.0408 -5.32051 -0.924812 -0.333567 -0.18291
-15.9639 -44.3851 -12.9459 -0.867202 -0.229738 -0.441792
-10.898 -42.374 -19.5937 -0.844476 -0.00700257 -0.535547
-17.945 -53.5391 2.02676 -0.944362 -0.120512 -0.306035
-15.4856 -52.4889 -5.65026 -0.933728 -0.165014 -0.317682
-12.7576 -51.322 -13.0097 -0.919948 -0.22578 -0.320497
-10.3969 -50.6116 -20.6304 -0.908162 -0.0983523 -0.406902
-16.7338 -61.3506 1.31524 -0.563907 -0.781007 -0.268399
-14.2521 -60.4096 -6.18159 -0.541413 -0.78756 -0.294316
-11.7209 -59.1923 -13.7435 -0.552337 -0.778346 -0.298497
-9.23096 -58.252 -21.2936 -0.573757 -0.774261 -0.267063
-1.76563 -57.709 -18.6014 0.0909111 -0.994519 -0.0516473
5.95798 -57.1065 -16.0932 0.0570549 -0.998038 -0.0257849
13.5592 -56.8048 -13.5433 0.0319748 -0.999475 -0.00515031
21.0872 -56.5715 -10.9312 0.0647545 -0.997809 -0.0135614
-4.20411 -58.2726 -11.057 0.116389 -0.991111 -0.0644455
3.36764 -57.6785 -8.45954 0.0956188 -0.994001 -0.0530921
10.9449 -57.1562 -5.96236 0.0536909 -0.99729 -0.0502972
18.521 -57.0184 -3.37086 0.0630137 -0.996667 -0.0518109
-6.69288 -59.1747 -3.64943 0.150553 -0.983685 -0.0984717
0.839751 -58.4725 -1.03476 0.126701 -0.986792 -0.100935
8.33464 -57.7455 1.54507 0.091394 -0.992246 -0.0842308
15.9621 -57.6938 4.20947 0.0591497 -0.996383 -0.0610136
-9.24761 -60.402 3.92691 0.13787 -0.987389 -0.0778073
-1.6844 -59.8237 6.48626 0.119089 -0.989163 -0.0858689
5.90718 -59.0686 9.10793 0.128165 -0.987986 -0.0863578
13.3845 -58.3002 11.7276 0.0971885 -0.993269 -0.0630231
3 273 272 1
3 272 271 2
3 271 270 3
3 270 269 4
3 269 268 5
3 0 1 7
3 1 2 8
3 2 3 9
3 3 4 10
3 4 5 11
3 6 7 13
3 7 8 14
3 8 9 15
3 9 10 16
3 10 11 17
3 12 13 19
3 13 14 20
3 14 15 21
3 15 16 22
3 16 17 23
3 18 19 25
3 19 20 26
3 20 21 27
3 21 22 28
3 22 23 29
3 273 0 30
3 0 6 31
3 6 12 32
3 12 18 33
3 18 24 34
3 279 30 36
3 30 31 37
3 31 32 38
3 32 33 39
3 33 34 40
3 35 36 42
3 36 37 43
3 37 38 44
3 38 39 45
3 39 40 46
3 41 42 48
3 42 43 49
3 43 44 50
3 44 45 51
3 45 46 52
3 47 48 54
3 48 49 55
3 49 50 56
3 50 51 57
3 51 52 58
3 53 54 60
3 54 55 61
3 55 56 62
3 56 57 63
3 57 58 64
3 59 60 66
3 60 61 67
3 61 62 68
3 62 63 69
3 63 64 70
3 65 66 72
3 66 67 73
3 67 68 74
3 68 69 75
3 69 70 76
3 71 72 78
3 72 73 79
3 73 74 80
3 74 75 81
3 75 76 82
3 77 78 84
3 78 79 85
3 79 80 86
3 80 81 87
3 81 82 88
3 83 84 90
3 84 85 91
3 85 86 92
3 86 87 93
3 87 88 94
3 89 90 96
3 90 91 97
3 91 92 98
3 92 93 99
3 93 94 100
3 95 96 102
3 96 97 103
3 97 98 104
3 98 99 105
3 99 100 106
3 101 102 108
3 102 103 109
3 103 104 110
3 104 105 111
3 105 106 112
3 107 108 114
3 108 109 115
3 109 110 116
3 110 111 117
3 111 112 118
3 24 25 119
3 25 26 120
3 26 27 121
3 27 28 122
3 28 29 123
3 34 119 124
3 119 120 125
3 120 121 126
3 121 122 127
3 122 123 128
3 40 124 129
3 124 125 130
3 125 126 131
3 126 127 132
3 127 128 133
3 46 129 134
3 129 130 135
3 130 131 136
3 131 132 137
3 132 133 138
3 52 134 139
3 134 135 140
3 135 136 141
3 136 137 142
3 137 138 143
3 58 139 144
3 139 140 145
3 140 141 146
3 141 142 147
3 142 143 148
3 64 144 149
3 144 145 150
3 145 146 151
3 146 147 152
3 147 148 153
3 70 149 154
3 149 150 155
3 150 151 156
3 151 152 157
3 152 153 158
3 76 154 159
3 154 155 160
3 155 156 161
3 156 157 162
3 157 158 163
3 82 159 164
3 159 160 165
3 160 161 166
3 161 162 167
3 162 163 168
3 88 164 169
3 164 165 170
3 165 166 171
3 166 167 172
3 167 168 173
3 94 169 174
3 169 170 175
3 170 171 176
3 171 172 177
3 172 173 178
3 100 174 179
3 174 175 180
3 175 176 181
3 176 177 182
3 177 178 183
3 106 179 184
3 179 180 185
3 180 181 186
3 181 182 187
3 182 183 188
3 112 184 189
3 184 185 190
3 185 186 191
3 186 187 192
3 187 188 193
3 29 23 194
3 23 17 195
3 17 11 196
3 11 5 197
3 5 268 274
3 123 194 198
3 194 195 199
3 195 196 200
3 196 197 201
3 197 274 202
3 128 198 203
3 198 199 204
3 199 200 205
3 200 201 206
3 201 202 207
3 133 203 208
3 203 204 209
3 204 205 210
3 205 206 211
3 206 207 212
3 138 208 213
3 208 209 214
3 209 210 215
3 210 211 216
3 211 212 217
3 143 213 218
3 213 214 219
3 214 215 220
3 215 216 221
3 216 217 222
3 148 218 223
3 218 219 224
3 219 220 225
3 220 221 226
3 221 222 227
3 153 223 228
3 223 224 229
3 224 225 230
3 225 226 231
3 226 227 232
3 158 228 233
3 228 229 234
3 229 230 235
3 230 231 236
3 231 232 237
3 163 233 238
3 233 234 239
3 234 235 240
3 235 236 241
3 236 237 242
3 168 238 243
3 238 239 244
3 239 240 245
3 240 241 246
3 241 242 247
3 173 243 248
3 243 244 249
3 244 245 250
3 245 246 251
3 246 247 252
3 178 248 253
3 248 249 254
3 249 250 255
3 250 251 256
3 251 252 257
3 183 253 258
3 253 254 259
3 254 255 260
3 255 256 261
3 256 257 262
3 188 258 263
3 258 259 264
3 259 260 265
3 260 261 266
3 261 262 267
3 268 269 275
3 269 270 276
3 270 271 277
3 271 272 278
3 272 273 279
3 274 275 280
3 275 276 281
3 276 277 282
3 277 278 283
3 278 279 35
3 202 280 284
3 280 281 285
3 281 282 286
3 282 283 287
3 283 35 41
3 207 284 288
3 284 285 289
3 285 286 290
3 286 287 291
3 287 41 47
3 212 288 292
3 288 289 293
3 289 290 294
3 290 291 295
3 291 47 53
3 217 292 296
3 292 293 297
3 293 294 298
3 294 295 299
3 295 53 59
3 222 296 300
3 296 297 301
3 297 298 302
3 298 299 303
3 299 59 65
3 227 300 304
3 300 301 305
3 301 302 306
3 302 303 307
3 303 65 71
3 232 304 308
3 304 305 309
3 305 306 310
3 306 307 311
3 307 71 77
3 237 308 312
3 308 309 313
3 309 310 314
3 310 311 315
3 311 77 83
3 242 312 316
3 312 313 317
3 313 314 318
3 314 315 319
3 315 83 89
3 247 316 320
3 316 317 321
3 317 318 322
3 318 319 323
3 319 89 95
3 252 320 324
3 320 321 325
3 321 322 326
3 322 323 327
3 323 95 101
3 257 324 328
3 324 325 329
3 325 326 330
3 326 327 331
3 327 101 107
3 262 328 332
3 328 329 333
3 329 330 334
3 330 331 335
3 331 107 113
3 113 114 336
3 114 115 337
3 115 116 338
3 116 117 339
3 117 118 189
3 335 336 340
3 336 337 341
3 337 338 342
3 338 339 343
3 339 189 190
3 334 340 344
3 340 341 345
3 341 342 346
3 342 343 347
3 343 190 191
3 333 344 348
3 344 345 349
3 345 346 350
3 346 347 351
3 347 191 192
3 332 348 266
3 348 349 265
3 349 350 264
3 350 351 263
3 351 192 193
3 273 1 0
3 272 2 1
3 271 3 2
3 270 4 3
3 269 5 4
3 0 7 6
3 1 8 7
3 2 9 8
3 3 10 9
3 4 11 10
3 6 13 12
3 7 14 13
3 8 15 14
3 9 16 15
3 10 17 16
3 12 19 18
3 13 20 19
3 14 21 20
3 15 22 21
3 16 23 22
3 18 25 24
3 19 26 25
3 20 27 26
3 21 28 27
3 22 29 28
3 273 30 279
3 0 31 30
3 6 32 31
3 12 33 32
3 18 34 33
3 279 36 35
3 30 37 36
3 31 38 37
3 32 39 38
3 33 40 39
3 35 42 41
3 36 43 42
3 37 44 43
3 38 45 44
3 39 46 45
3 41 48 47
3 42 49 48
3 43 50 49
3 44 51 50
3 45 52 51
3 47 54 53
3 48 55 54
3 49 56 55
3 50 57 56
3 51 58 57
3 53 60 59
3 54 61 60
3 55 62 61
3 56 63 62
3 57 64 63
3 59 66 65
3 60 67 66
3 61 68 67
3 62 69 68
3 63 70 69
3 65 72 71
3 66 73 72
3 67 74 73
3 68 75 74
3 69 76 75
3 71 78 77
3 72 79 78
3 73 80 79
3 74 81 80
3 75 82 81
3 77 84 83
3 78 85 84
3 79 86 85
3 80 87 86
3 81 88 87
3 83 90 89
3 84 91 90
3 85 92 91
3 86 93 92
3 87 94 93
3 89 96 95
3 90 97 96
3 91 98 97
3 92 99 98
3 93 100 99
3 95 102 101
3 96 103 102
3 97 104 103
3 98 105 104
3 99 106 105
3 101 108 107
3 102 109 108
3 103 110 109
3 104 111 110
3 105 112 111
3 107 114 113
3 108 115 114
3 109 116 115
3 110 117 116
3 111 118 117
3 24 119 34
3 25 120 119
3 26 121 120
3 27 122 121
3 28 123 122
3 34 124 40
3 119 125 124
3 120 126 125
3 121 127 126
3 122 128 127
3 40 129 46
3 124 130 129
3 125 131 130
3 126 132 131
3 127 133 132
3 46 134 52
3 129 135 134
3 130 136 135
3 131 137 136
3 132 138 137
3 52 139 58
3 134 140 139
3 135 141 140
3 136 142 141
3 137 143 142
3 58 144 64
3 139 145 144
3 140 146 145
3 141 147 146
3 142 148 147
3 64 149 70
3 144 150 149
3 145 151 150
3 146 152 151
3 147 153 152
3 70 154 76
3 149 155 154
3 150 156 155
3 151 157 156
3 152 158 157
3 76 159 82
3 154 160 159
3 155 161 160
3 156 162 161
3 157 163 162
3 82 164 88
3 159 165 164
3 160 166 165
3 161 167 166
3 162 168 167
3 88 169 94
3 164 170 169
3 165 171 170
3 166 172 171
3 167 173 172
3 94 174 100
3 169 175 174
3 170 176 175
3 171 177 176
3 172 178 177
3 100 179 106
3 174 180 179
3 175 181 180
3 176 182 181
3 177 183 182
3 106 184 112
3 179 185 184
3 180 186 185
3 181 187 186
3 182 188 187
3 112 189 118
3 184 190 189
3 185 191 190
3 186 192 191
3 187 193 192
3 29 194 123
3 23 195 194
3 17 196 195
3 11 197 196
3 5 274 197
3 123 198 128
3 194 199 198
3 195 200 199
3 196 201 200
3 197 202 201
3 128 203 133
3 198 204 203
3 199 205 204
3 200 206 205
3 201 207 206
3 133 208 138
3 203 209 208
3 204 210 209
3 205 211 210
3 206 212 211
3 138 213 143
3 208 214 213
3 209 215 214
3 210 216 215
3 211 217 216
3 143 218 148
3 213 219 218
3 214 220 219
3 215 221 220
3 216 222 221
3 148 223 153
3 218 224 223
3 219 225 224
3 220 226 225
3 221 227 226
3 153 228 158
3 223 229 228
3 224 230 229
3 225 231 230
3 226 232 231
3 158 233 163
3 228 234 233
3 229 235 234
3 230 236 235
3 231 237 236
3 163 238 168
3 233 239 238
3 234 240 239
3 235 241 240
3 236 242 241
3 168 243 173
3 238 244 243
3 239 245 244
3 240 246 245
3 241 247 246
3 173 248 178
3 243 249 248
3 244 250 249
3 245 251 250
3 246 252 251
3 178 253 183
3 248 254 253
3 249 255 254
3 250 256 255
3 251 257 256
3 183 258 188
3 253 259 258
3 254 260 259
3 255 261 260
3 256 262 261
3 188 263 193
3 258 264 263
3 259 265 264
3 260 266 265
3 261 267 266
3 268 275 274
3 269 276 275
3 270 277 276
3 271 278 277
3 272 279 278
3 274 280 202
3 275 281 280
3 276 282 281
3 277 283 282
3 278 35 283
3 202 284 207
3 280 285 284
3 281 286 285
3 282 287 286
3 283 41 287
3 207 288 212
3 284 289 288
3 285 290 289
3 286 291 290
3 287 47 291
3 212 292 217
3 288 293 292
3 289 294 293
3 290 295 294
3 291 53 295
3 217 296 222
3 292 297 296
3 293 298 297
3 294 299 298
3 295 59 299
3 222 300 227
3 296 301 300
3 297 302 301
3 298 303 302
3 299 65 303
3 227 304 232
3 300 305 304
3 301 306 305
3 302 307 306
3 303 71 307
3 232 308 237
3 304 309 308
3 305 310 309
3 306 311 310
3 307 77 311
3 237 312 242
3 308 313 312
3 309 314 313
3 310 315 314
3 311 83 315
3 242 316 247
3 312 317 316
3 313 318 317
3 314 319 318
3 315 89 319
3 247 320 252
3 316 321 320
3 317 322 321
3 318 323 322
3 319 95 323
3 252 324 257
3 320 325 324
3 321 326 325
3 322 327 326
3 323 101 327
3 257 328 262
3 324 329 328
3 325 330 329
3 326 331 330
3 327 107 331
3 262 332 267
3 328 333 332
3 329 334 333
3 330 335 334
3 331 113 335
3 113 336 335
3 114 337 336
3 115 338 337
3 116 339 338
3 117 189 339
3 335 340 334
3 336 341 340
3 337 342 341
3 338 343 342
3 339 190 343
3 334 344 333
3 340 345 344
3 341 346 345
3 342 347 346
3 343 191 347
3 333 348 332
3 344 349 348
3 345 350 349
3 346 351 350
3 347 192 351
3 332 266 267
3 348 265 266
3 349 264 265
3 350 263 264
3 351 193 263
