ply
format ascii 1.0
element vertex 352
property float x
property float y
property float z
property float nx
property float ny
property float nz
element face 700
property list uchar int vertex_indices
end_header
-14.7336 56.6727 -26.2633 0.170527 0.742071 -0.648268
-18.4573 56.0636 -19.1758 -0.209882 0.977189 -0.0324338
-22.187 55.5981 -12.1193 -0.194335 0.980188 -0.0382748
-25.8886 55.1456 -5.03184 -0.198067 0.979054 -0.0471518
-29.6497 54.7198 2.02467 -0.20508 0.976865 -0.0606358
-33.4576 54.3862 9.03729 -0.487655 0.656513 0.575486
-7.87555 58.3444 -22.5015 0.170082 0.745134 -0.644863
-11.5844 57.7297 -15.4161 -0.225788 0.973867 -0.0245514
-15.2444 56.9875 -8.28852 -0.205131 0.978331 -0.0281085
-18.9742 56.5735 -1.27245 -0.180527 0.982103 -0.0536993
-22.7641 56.3148 5.74899 -0.191048 0.979082 -0.0699921
-26.5868 56.1516 12.7823 -0.478513 0.672747 0.564303
-1.03665 60.0816 -18.6996 0.166167 0.747056 -0.643658
-4.77968 59.4185 -11.6401 -0.233176 0.971854 -0.0335989
-8.46214 58.6789 -4.60952 -0.247425 0.968219 -0.0364947
-12.143 58.02 2.41219 -0.218909 0.973525 -0.0657821
-15.9509 57.985 9.48674 -0.194688 0.977199 -0.0847248
-19.7461 57.8273 16.5293 -0.474058 0.677755 0.562064
5.82448 61.7561 -14.9733 0.18711 0.749503 -0.635009
2.04641 61.1521 -7.8985 -0.216763 0.975385 -0.0404724
-1.75038 60.6698 -0.867888 -0.229047 0.972277 -0.0470637
-5.47491 60.1533 6.22624 -0.23629 0.969887 -0.0590381
-9.17881 59.7689 13.2424 -0.212254 0.97395 -0.0798166
-12.9055 59.554 20.2801 -0.478213 0.673581 0.563561
12.7134 63.2732 -11.0425 0.802166 0.596893 0.0157795
8.93382 62.793 -4.06002 0.448351 0.842177 0.299533
5.19595 62.3515 2.93282 0.45236 0.839881 0.29995
1.41347 61.8367 10.0311 0.454304 0.839067 0.29929
-2.30833 61.4435 17.0219 0.467684 0.83856 0.279446
-5.97765 61.2647 24.0165 -0.158079 0.703399 0.692994
-12.9935 48.8811 -25.917 0.459033 0.0603873 -0.886364
-6.1122 50.6045 -22.2126 0.465345 0.0709993 -0.882277
0.765142 52.32 -18.4395 0.464228 0.0726619 -0.88273
7.61546 54.1308 -14.6775 0.48556 0.078163 -0.870702
14.3865 55.6384 -10.6121 0.944862 0.194012 -0.263808
-18.0577 39.3621 -29.1922 -0.27214 -0.113422 -0.95555
-11.2326 41.1137 -25.4633 0.464911 0.0472524 -0.884096
-4.30718 42.9307 -21.9157 0.464812 0.0385797 -0.884568
2.55329 44.5702 -18.0633 0.460072 0.0529682 -0.8863
9.44202 46.355 -14.4064 0.491969 0.0774268 -0.867163
16.0983 47.9467 -10.1639 0.946308 0.207193 -0.248139
-16.2301 31.616 -28.7761 -0.26459 -0.109628 -0.95811
-9.39769 33.3706 -24.9994 0.489247 0.0592835 -0.870128
-2.64095 35.1595 -21.0565 0.47383 0.0178874 -0.880434
4.21791 36.9301 -17.4001 0.444329 0.0175391 -0.895692
11.2955 38.6939 -14.0566 0.485337 0.0583059 -0.872381
17.8635 40.3744 -9.71232 0.947724 0.213949 -0.23674
-14.3642 23.8846 -28.377 -0.260857 -0.107301 -0.959396
-7.51297 25.6675 -24.5862 0.511943 0.0754778 -0.855697
-0.952232 27.4176 -20.2251 0.488801 0.0325341 -0.871788
5.86639 29.2385 -16.7013 0.427526 0.0193533 -0.903796
13.0786 31.0092 -13.5423 0.470792 0.0459313 -0.881048
19.6477 32.764 -9.20684 0.947584 0.211306 -0.239656
-12.492 16.2062 -27.9945 -0.266849 -0.111259 -0.957295
-5.58379 18.0246 -24.2542 0.524048 0.096425 -0.846213
0.807318 19.6975 -19.4475 0.502835 0.0628553 -0.862094
7.62925 21.5716 -16.1441 0.41486 0.0316704 -0.909334
14.8905 23.3735 -12.987 0.460398 0.0491632 -0.88635
21.4883 25.139 -8.72825 0.945868 0.213756 -0.244219
-10.5646 8.53227 -27.6058 -0.282195 -0.115415 -0.952389
-3.59314 10.3997 -23.9835 0.518565 0.110476 -0.847871
2.73529 12.0287 -19.0501 0.502854 0.111459 -0.857155
9.47754 13.8987 -15.6777 0.41706 0.0797584 -0.905373
16.7341 15.7275 -12.4713 0.456201 0.0593339 -0.887897
23.367 17.5105 -8.27729 0.943949 0.216194 -0.249442
-8.62121 0.851761 -27.2384 -0.304897 -0.121944 -0.944546
-1.55532 2.78443 -23.8094 0.484076 0.126879 -0.865778
4.80747 4.39655 -18.9186 0.499307 0.15793 -0.85191
11.8011 6.2972 -15.7637 0.429155 0.10243 -0.897404
18.6724 8.11724 -12.0413 0.473495 0.0871158 -0.876478
25.2848 9.90539 -7.87032 0.943503 0.222395 -0.245646
-6.63015 -6.78117 -26.9135 -0.324373 -0.130233 -0.936921
0.474349 -4.84094 -23.6553 0.439788 0.0929704 -0.893277
7.17622 -3.05492 -19.6783 0.504243 0.165062 -0.84764
13.8185 -1.379 -15.5257 0.470298 0.116119 -0.874835
20.5943 0.431505 -11.6567 0.491126 0.0849127 -0.86694
27.2253 2.23145 -7.50448 0.943812 0.22371 -0.243256
-4.6493 -14.4635 -26.5915 -0.335723 -0.129128 -0.933068
2.47405 -12.5623 -23.3726 0.423899 0.0754084 -0.902565
9.31943 -10.7357 -19.6648 0.499695 0.116292 -0.85836
15.8392 -9.07186 -15.2863 0.509333 0.107037 -0.853887
22.5231 -7.27111 -11.2948 0.497912 0.0881759 -0.862733
29.1572 -5.45145 -7.15497 0.943684 0.225255 -0.242324
-2.66685 -22.136 -26.2854 -0.336196 -0.125149 -0.93344
4.43553 -20.3085 -23.0321 0.419149 0.0655308 -0.905549
11.3693 -18.4658 -19.4925 0.496938 0.095648 -0.862499
17.831 -16.7863 -15.0022 0.524072 0.100922 -0.845673
24.4536 -14.9985 -10.9316 0.50181 0.0879681 -0.860493
31.0944 -13.1464 -6.83323 0.943108 0.226332 -0.243561
-0.702139 -29.821 -25.9959 -0.327162 -0.118618 -0.937494
6.36268 -28.0573 -22.6632 0.423407 0.061026 -0.903882
13.3187 -26.2224 -19.1574 0.494747 0.0810279 -0.865251
19.7661 -24.5181 -14.6562 0.5289 0.0941775 -0.843443
26.3702 -22.7292 -10.5694 0.501544 0.0872373 -0.860723
33.0373 -20.8621 -6.52458 0.941951 0.226404 -0.24793
1.24562 -37.528 -25.7215 -0.310953 -0.11383 -0.943584
8.25084 -35.8152 -22.2639 0.437509 0.0535328 -0.897619
15.1981 -33.9866 -18.7459 0.488476 0.0627848 -0.870316
21.6791 -32.253 -14.3019 0.526509 0.0935639 -0.845005
28.2994 -30.4551 -10.2292 0.498305 0.0880587 -0.862518
34.9872 -28.5987 -6.23027 0.939552 0.22862 -0.2549
3.16312 -45.2641 -25.4458 -0.287562 -0.103133 -0.952193
10.0974 -43.5926 -21.8043 0.458133 0.0585751 -0.886951
16.9804 -41.824 -18.0598 0.482408 0.0479362 -0.874634
23.6224 -39.9945 -14.0048 0.511132 0.0789117 -0.855872
30.2325 -38.1919 -9.90672 0.496396 0.0906669 -0.863349
36.9465 -36.3384 -5.94699 0.937804 0.226947 -0.262715
5.05906 -53.0237 -25.1816 -0.26879 -0.0996271 -0.958032
11.9218 -51.3656 -21.3726 0.472531 0.0680511 -0.878683
18.7392 -49.5936 -17.5062 0.482989 0.0601266 -0.87356
25.4499 -47.7527 -13.5742 0.49258 0.0692267 -0.867509
32.1649 -45.9366 -9.61962 0.490851 0.0835066 -0.867232
38.8823 -44.1066 -5.66813 0.938019 0.221178 -0.266835
6.94905 -60.7953 -24.8729 -0.255678 -0.768511 -0.586532
13.7531 -59.1139 -20.9873 0.497942 -0.638443 -0.586893
20.5307 -57.3419 -17.0952 0.503522 -0.640627 -0.579709
27.2808 -55.5059 -13.1934 0.505293 -0.638238 -0.580802
34.0367 -53.7038 -9.29487 0.50923 -0.630642 -0.585641
40.7827 -51.8823 -5.38858 0.836969 -0.235999 -0.493748
10.5015 55.171 -3.63738 0.853692 0.190745 0.484588
6.79673 54.6251 3.41354 0.863235 0.169882 0.475358
2.95937 54.0198 10.5474 0.866029 0.173528 0.468915
-0.793444 53.6139 17.5169 0.869871 0.192857 0.454016
-4.37453 53.4712 24.5699 0.288999 0.126909 0.94888
12.0552 47.4262 -3.2531 0.827654 0.185888 0.52956
7.92869 46.8289 3.60339 0.859597 0.113649 0.498174
4.0368 46.173 10.6912 0.889477 0.11691 0.441773
0.612051 45.7827 17.8159 0.88773 0.178639 0.424293
-2.71796 45.6861 25.066 0.322015 0.131285 0.937588
13.8064 39.7979 -2.79476 0.787835 0.218813 0.575706
8.66426 38.8594 3.60501 0.816986 0.162576 0.553265
4.70291 38.3456 10.3861 0.899881 0.140061 0.413035
2.05297 38.0953 18.1356 0.912642 0.181701 0.366155
-1.02143 37.9364 25.5989 0.358523 0.137394 0.923355
15.6665 32.1569 -2.24707 0.78207 0.238038 0.575938
10.3105 31.1088 4.01635 0.777813 0.236325 0.582373
6.3421 30.6164 10.811 0.879555 0.22961 0.416729
3.66308 30.4144 18.5879 0.912865 0.223402 0.341715
0.72549 30.1885 26.1143 0.378068 0.142907 0.914681
17.5592 24.527 -1.7163 0.794343 0.233944 0.560615
12.5307 23.5788 4.62213 0.780504 0.27401 0.561901
8.32351 22.9599 11.3769 0.841305 0.308413 0.443946
5.45614 22.7314 19.1065 0.899331 0.258149 0.352934
2.50919 22.4233 26.6394 0.380134 0.133043 0.915313
19.4733 16.8668 -1.25496 0.802306 0.23872 0.547099
14.5006 15.9107 5.12096 0.814006 0.263688 0.517555
11.2242 15.5832 12.4921 0.841837 0.307413 0.44363
7.65078 15.1586 19.6459 0.870173 0.285245 0.401789
4.53646 14.7354 26.9825 0.350682 0.139452 0.926054
21.3512 9.20682 -0.893302 0.817066 0.227279 0.529856
16.8265 8.37663 5.73059 0.827149 0.258042 0.499239
13.4482 7.94515 13.0629 0.855306 0.273708 0.439927
9.71795 7.43024 20.1385 0.861976 0.255699 0.437738
6.44764 6.94094 27.3887 0.329004 0.127119 0.935733
23.2255 1.51106 -0.554338 0.818241 0.226667 0.528303
18.7747 0.683943 6.12547 0.844406 0.240968 0.478448
15.5858 0.271183 13.5354 0.859282 0.255849 0.442918
11.7552 -0.310368 20.5565 0.856104 0.246912 0.454004
8.37036 -0.867456 27.7586 0.311463 0.117472 0.942969
25.1148 -6.19844 -0.235531 0.819662 0.227218 0.525857
20.7726 -7.01149 6.50042 0.850361 0.240858 0.467839
17.6855 -7.42716 13.96 0.86212 0.25016 0.440646
13.7665 -8.0591 20.9285 0.850395 0.240951 0.46773
10.273 -8.6691 28.0819 0.29707 0.109249 0.948586
27.0354 -13.9003 0.0783987 0.821107 0.231471 0.521733
22.7689 -14.7103 6.85133 0.851809 0.244202 0.463451
19.7225 -15.1478 14.3206 0.864169 0.243593 0.440312
15.7641 -15.809 21.2588 0.845998 0.235308 0.478453
12.165 -16.4689 28.3688 0.2847 0.102771 0.953092
28.9941 -21.6172 0.388045 0.825519 0.233008 0.514029
24.8675 -22.3973 7.22702 0.851173 0.24597 0.463685
21.7203 -22.8854 14.6437 0.862788 0.239418 0.445281
17.7417 -23.5687 21.5634 0.842815 0.230716 0.486244
14.053 -24.2625 28.6245 0.274219 0.0975784 0.956704
30.9721 -29.3424 0.691424 0.829944 0.241764 0.502736
26.9429 -30.0964 7.58221 0.844881 0.25312 0.471281
23.6648 -30.6452 14.9125 0.861069 0.232267 0.452341
19.703 -31.339 21.8383 0.841191 0.226587 0.490975
15.9366 -32.0474 28.8622 0.265869 0.0944147 0.959374
33.0028 -37.0306 0.994431 0.839643 0.237034 0.488687
29.2443 -37.7169 8.03096 0.842324 0.247898 0.478578
25.5634 -38.4325 15.1458 0.851986 0.22975 0.470462
21.6508 -39.1187 22.1043 0.842135 0.221212 0.491806
17.8187 -39.8282 29.0852 0.260037 0.0921644 0.96119
35.0123 -44.7799 1.31352 0.843466 0.227155 0.486791
31.235 -45.4812 8.32915 0.847268 0.225092 0.481114
27.4202 -46.2085 15.3468 0.84775 0.217398 0.483795
23.5348 -46.9048 22.3286 0.844389 0.215988 0.490261
19.6896 -47.6119 29.3007 0.258492 0.0892786 0.961879
36.9061 -52.5662 1.58614 0.764247 -0.527145 0.371543
33.0697 -53.2749 8.56799 0.764015 -0.53204 0.364986
29.2386 -53.9877 15.5617 0.761515 -0.536544 0.363614
25.3909 -54.6858 22.5418 0.759903 -0.536796 0.366602
21.5461 -55.3922 29.5155 0.557935 -0.535167 0.634274
-11.3389 51.7867 20.9326 -0.467238 -0.0146545 0.88401
-18.171 50.0292 17.1941 -0.477409 -0.00875823 0.878638
-25.0453 48.3669 13.4837 -0.490137 -0.0208695 0.871395
-31.849 46.5633 9.5735 -0.486579 -0.0448128 0.872487
-9.7598 43.9974 21.658 -0.445321 0.00253345 0.895367
-16.6561 42.2365 18.0853 -0.48329 0.0173236 0.875289
-23.4903 40.5181 14.3066 -0.516529 -0.0120139 0.856185
-30.1161 38.744 10.0844 -0.509411 -0.0518228 0.858961
-36.7661 36.8779 6.12725 -0.942781 -0.209235 0.259586
-8.16615 36.1697 22.4958 -0.408275 0.00108718 0.912858
-15.2555 34.3853 19.2727 -0.477978 0.0106479 0.878307
-22.0436 32.5987 15.2416 -0.547144 -0.026708 0.836612
-28.3449 30.9255 10.6218 -0.538193 -0.0646326 0.84034
-34.914 29.0914 6.55158 -0.946084 -0.218517 0.239113
-6.48263 28.3653 23.1776 -0.376421 -0.00687559 0.926423
-13.6745 26.5368 20.1529 -0.476442 -0.0114035 0.879132
-20.3395 24.727 15.8813 -0.564682 -0.0627424 0.82292
-26.4203 23.1025 11.0703 -0.557144 -0.0835928 0.826198
-32.9862 21.2938 6.92043 -0.948418 -0.22368 0.224655
-4.69295 20.5704 23.7077 -0.351813 -0.0541227 0.934504
-12.1079 18.6749 21.0338 -0.460375 -0.0836797 0.883772
-18.5481 16.8766 16.3622 -0.562889 -0.113818 0.818659
-24.5711 15.2788 11.4971 -0.565047 -0.0950187 0.819569
-31.0781 13.5184 7.3035 -0.951272 -0.218166 0.217909
-2.59319 12.8582 23.8604 -0.370258 -0.0726092 0.926087
-9.85514 10.9621 20.9024 -0.463566 -0.124141 0.877323
-16.1316 9.23868 16.1235 -0.533674 -0.158353 0.830733
-22.6373 7.49142 11.8362 -0.53324 -0.115579 0.838031
-29.1748 5.76964 7.62546 -0.949957 -0.219164 0.222597
-0.619786 5.09031 24.0921 -0.389028 -0.0726136 0.91836
-7.82928 3.20258 21.0295 -0.482608 -0.114301 0.868346
-14.0288 1.5108 16.1465 -0.533845 -0.134262 0.834855
-20.6908 -0.280351 12.1018 -0.507623 -0.105552 0.855089
-27.2759 -1.99285 7.92724 -0.946736 -0.21978 0.235347
1.36504 -2.68388 24.2928 -0.405833 -0.0794649 0.910486
-5.7884 -4.54488 21.1007 -0.491993 -0.117811 0.862591
-11.9456 -6.21146 16.1719 -0.528331 -0.131158 0.838847
-18.731 -8.03126 12.3168 -0.489151 -0.103189 0.866074
-25.3797 -9.75002 8.2114 -0.943127 -0.220115 0.24912
3.33782 -10.4553 24.4734 -0.42078 -0.0845299 0.903216
-3.76647 -12.2953 21.1835 -0.499056 -0.117454 0.858573
-9.91173 -13.947 16.2354 -0.524841 -0.124231 0.842086
-16.7821 -15.7773 12.512 -0.474847 -0.0987638 0.874509
-23.4894 -17.508 8.48764 -0.939692 -0.21983 0.262019
5.28866 -18.2326 24.6469 -0.43417 -0.0879156 0.89653
-1.76159 -20.0491 21.2621 -0.502393 -0.115269 0.856921
-7.92451 -21.6859 16.349 -0.522197 -0.116176 0.844875
-14.8474 -23.5173 12.7039 -0.465306 -0.0940711 0.880137
-21.5956 -25.2717 8.75181 -0.936795 -0.219534 0.272432
7.2234 -26.0092 24.8185 -0.445514 -0.0910752 0.890631
0.219965 -27.8051 21.3484 -0.501145 -0.112478 0.858023
-5.99758 -29.4368 16.5307 -0.519564 -0.106827 0.847727
-12.9372 -31.26 12.9036 -0.461283 -0.0887883 0.882799
-19.7083 -33.0292 9.00256 -0.935066 -0.218369 0.279223
9.14303 -33.7831 24.9904 -0.458853 -0.0962861 0.88328
2.1944 -35.5603 21.4234 -0.489253 -0.110433 0.865122
-4.1236 -37.2005 16.7772 -0.51941 -0.0916648 0.849594
-11.0553 -39.0108 13.1244 -0.461925 -0.0840933 0.882923
-17.8386 -40.7868 9.24994 -0.93472 -0.217278 0.281229
11.033 -41.5592 25.1857 -0.474726 -0.0928937 0.875217
4.21394 -43.3333 21.351 -0.477215 -0.105112 0.872478
-2.41107 -44.9919 17.2184 -0.505913 -0.0852266 0.858364
-9.19967 -46.7717 13.3712 -0.473191 -0.0786458 0.877442
-15.9822 -48.5463 9.49709 -0.935555 -0.215796 0.279588
12.9091 -49.3373 25.3995 -0.47896 -0.0909895 0.873108
6.12768 -51.0845 21.504 -0.478969 -0.0942535 0.872757
-0.617668 -52.7992 17.5608 -0.488907 -0.0866169 0.868025
-7.35915 -54.5469 13.6411 -0.480925 -0.0826694 0.872856
-14.126 -56.3186 9.75384 -0.936596 -0.215842 0.276044
14.7781 -57.1179 25.6235 -0.17444 -0.752247 0.63537
8.01354 -58.8508 21.7192 -0.17242 -0.75264 0.635455
1.254 -60.582 17.8059 -0.175155 -0.749884 0.637961
-5.49953 -62.3311 13.9054 -0.175881 -0.746664 0.641528
-12.2618 -64.0939 10.0126 -0.641646 -0.555209 0.529182
-40.2959 52.5609 5.31358 -0.979665 0.194403 -0.049648
-36.5425 53.0036 -1.69481 -0.75922 0.535283 -0.370212
-32.8051 53.4645 -8.76942 -0.756973 0.543503 -0.362761
-29.099 53.9421 -15.8624 -0.756233 0.544613 -0.362641
-25.3499 54.4669 -22.9338 -0.755529 0.545111 -0.363359
-21.6046 54.9578 -30.0066 -0.121503 0.623691 -0.77217
-38.5641 44.7156 5.7434 -0.940332 -0.197435 0.277121
-34.7577 45.196 -1.2947 -0.855337 -0.228927 -0.464748
-31.1102 45.6574 -8.39399 -0.860052 -0.222853 -0.458964
-27.4101 46.1281 -15.4823 -0.857998 -0.213834 -0.467028
-23.6364 46.6782 -22.558 -0.854666 -0.213586 -0.47321
-19.859 47.154 -29.6139 -0.277993 -0.11246 -0.953977
-32.8306 37.4239 -0.806466 -0.848478 -0.241959 -0.470682
-29.2145 37.9005 -7.9065 -0.858133 -0.246994 -0.450113
-25.627 38.3474 -15.067 -0.860073 -0.234483 -0.453092
-21.8999 38.8897 -22.1647 -0.852279 -0.217063 -0.475925
-30.8285 29.6948 -0.302549 -0.8364 -0.254465 -0.485471
-27.1974 30.1838 -7.383 -0.856309 -0.266045 -0.442668
-23.5926 30.6669 -14.5896 -0.865945 -0.248391 -0.434099
-20.1472 31.0914 -21.8051 -0.85448 -0.226068 -0.467715
-28.7341 21.9891 0.159512 -0.826321 -0.244019 -0.50759
-24.8615 22.5794 -6.8246 -0.854921 -0.270387 -0.44272
-21.6062 22.959 -14.122 -0.874104 -0.265474 -0.406775
-18.3409 23.3351 -21.4252 -0.85911 -0.234929 -0.454686
-26.7621 14.253 0.601717 -0.82 -0.232186 -0.523154
-22.8451 14.8823 -6.36612 -0.849057 -0.259252 -0.460317
-19.4415 15.3193 -13.5882 -0.878283 -0.274195 -0.391709
-16.3949 15.6141 -20.9923 -0.864347 -0.252477 -0.434925
-24.9278 6.51048 0.903317 -0.815728 -0.212936 -0.537817
-20.7167 7.2302 -5.91071 -0.833055 -0.24991 -0.493522
-17.1781 7.71156 -13.0291 -0.875586 -0.292775 -0.384229
-14.332 7.94456 -20.5392 -0.872407 -0.265525 -0.410369
-23.1568 -1.2759 1.15241 -0.817682 -0.206058 -0.537528
-18.8306 -0.51473 -5.58724 -0.813694 -0.218471 -0.538676
-14.7054 0.178424 -12.3774 -0.871448 -0.280178 -0.40259
-12.1705 0.324789 -20.0669 -0.883311 -0.278711 -0.376939
-21.3781 -9.0593 1.37122 -0.823281 -0.204305 -0.529592
-17.0401 -8.28547 -5.34438 -0.802919 -0.199917 -0.561565
-12.5613 -7.48422 -11.9254 -0.864256 -0.243871 -0.439988
-9.97118 -7.24824 -19.6312 -0.893417 -0.265774 -0.362173
-19.5874 -16.8372 1.5806 -0.830034 -0.206977 -0.517883
-15.3374 -16.0744 -5.17222 -0.79993 -0.192333 -0.568436
-10.6502 -15.2189 -11.635 -0.855675 -0.218438 -0.469153
-7.90308 -14.8951 -19.2661 -0.896046 -0.248079 -0.368181
-17.7741 -24.6155 1.79124 -0.836237 -0.209521 -0.506763
-13.5999 -23.8592 -5.00731 -0.802647 -0.190898 -0.56508
-8.86447 -22.9884 -11.434 -0.848592 -0.202888 -0.488598
-5.93726 -22.5809 -18.9613 -0.893396 -0.233486 -0.383833
-15.9381 -32.3922 2.0091 -0.841727 -0.213188 -0.49603
-11.8745 -31.6578 -4.84691 -0.809894 -0.191894 -0.554299
-7.18123 -30.7882 -11.3077 -0.844071 -0.191275 -0.500957
-4.06937 -30.3034 -18.7249 -0.887405 -0.221698 -0.404181
-14.0839 -40.1571 2.24218 -0.845622 -0.217096 -0.48764
-10.1185 -39.4474 -4.66457 -0.825261 -0.190397 -0.531689
-5.57323 -38.6067 -11.225 -0.841717 -0.16958 -0.512597
-2.2457 -38.061 -18.5087 -0.878814 -0.210574 -0.428187
-12.1948 -47.9223 2.50095 -0.847394 -0.220773 -0.48289
-8.3335 -47.2268 -4.47074 -0.840578 -0.208106 -0.500121
-4.28011 -46.4524 -11.3461 -0.842801 -0.174431 -0.509176
-0.517932 -45.8141 -18.3587 -0.863835 -0.19667 -0.463799
-10.3068 -55.6826 2.76994 -0.846525 -0.223493 -0.483162
-6.48611 -55.012 -4.22595 -0.844776 -0.221892 -0.486948
-2.60963 -54.3188 -11.2165 -0.844082 -0.20886 -0.493865
1.263 -53.626 -18.1771 -0.849391 -0.210002 -0.484184
-8.40329 -63.4391 3.04563 -0.431346 -0.844439 -0.317589
-4.56565 -62.7652 -3.93838 -0.430187 -0.845391 -0.316628
-0.725509 -62.0912 -10.9282 -0.431556 -0.843892 -0.318756
3.11194 -61.4248 -17.9067 -0.434675 -0.842129 -0.319181
9.89649 -59.6854 -14.0081 0.231187 -0.971896 0.0443904
16.667 -57.8758 -10.1082 0.228326 -0.972184 0.052199
23.4002 -56.0669 -6.20953 0.225487 -0.97317 0.0457754
30.1654 -54.3539 -2.31095 0.230926 -0.972237 0.0377907
6.0442 -60.341 -7.01863 0.241295 -0.969597 0.0407207
12.7833 -58.3823 -3.1116 0.238767 -0.969977 0.0462115
19.5149 -56.6212 0.762346 0.220772 -0.974559 0.0386618
26.3071 -55.0072 4.67099 0.224277 -0.974013 0.0316107
2.19818 -60.9956 -0.0332516 0.239676 -0.970127 0.0375332
8.93332 -59.0811 3.85404 0.24834 -0.968072 0.0341235
15.6642 -57.2636 7.72203 0.23011 -0.97281 0.0262776
22.4662 -55.7013 11.6636 0.220886 -0.97494 0.0264834
-1.64693 -61.6536 6.93859 0.235533 -0.971219 0.0354721
5.10049 -59.8578 10.8272 0.240787 -0.970112 0.030065
11.8536 -58.0885 14.7261 0.23869 -0.970841 0.0222577
18.6207 -56.3818 18.6385 0.22793 -0.973384 0.0238978
3 273 272 1
3 272 271 2
3 271 270 3
3 270 269 4
3 269 268 5
3 0 1 7
3 1 2 8
3 2 3 9
3 3 4 10
3 4 5 11
3 6 7 13
3 7 8 14
3 8 9 15
3 9 10 16
3 10 11 17
3 12 13 19
3 13 14 20
3 14 15 21
3 15 16 22
3 16 17 23
3 18 19 25
3 19 20 26
3 20 21 27
3 21 22 28
3 22 23 29
3 273 0 30
3 0 6 31
3 6 12 32
3 12 18 33
3 18 24 34
3 279 30 36
3 30 31 37
3 31 32 38
3 32 33 39
3 33 34 40
3 35 36 42
3 36 37 43
3 37 38 44
3 38 39 45
3 39 40 46
3 41 42 48
3 42 43 49
3 43 44 50
3 44 45 51
3 45 46 52
3 47 48 54
3 48 49 55
3 49 50 56
3 50 51 57
3 51 52 58
3 53 54 60
3 54 55 61
3 55 56 62
3 56 57 63
3 57 58 64
3 59 60 66
3 60 61 67
3 61 62 68
3 62 63 69
3 63 64 70
3 65 66 72
3 66 67 73
3 67 68 74
3 68 69 75
3 69 70 76
3 71 72 78
3 72 73 79
3 73 74 80
3 74 75 81
3 75 76 82
3 77 78 84
3 78 79 85
3 79 80 86
3 80 81 87
3 81 82 88
3 83 84 90
3 84 85 91
3 85 86 92
3 86 87 93
3 87 88 94
3 89 90 96
3 90 91 97
3 91 92 98
3 92 93 99
3 93 94 100
3 95 96 102
3 96 97 103
3 97 98 104
3 98 99 105
3 99 100 106
3 101 102 108
3 102 103 109
3 103 104 110
3 104 105 111
3 105 106 112
3 107 108 114
3 108 109 115
3 109 110 116
3 110 111 117
3 111 112 118
3 24 25 119
3 25 26 120
3 26 27 121
3 27 28 122
3 28 29 123
3 34 119 124
3 119 120 125
3 120 121 126
3 121 122 127
3 122 123 128
3 40 124 129
3 124 125 130
3 125 126 131
3 126 127 132
3 127 128 133
3 46 129 134
3 129 130 135
3 130 131 136
3 131 132 137
3 132 133 138
3 52 134 139
3 134 135 140
3 135 136 141
3 136 137 142
3 137 138 143
3 58 139 144
3 139 140 145
3 140 141 146
3 141 142 147
3 142 143 148
3 64 144 149
3 144 145 150
3 145 146 151
3 146 147 152
3 147 148 153
3 70 149 154
3 149 150 155
3 150 151 156
3 151 152 157
3 152 153 158
3 76 154 159
3 154 155 160
3 155 156 161
3 156 157 162
3 157 158 163
3 82 159 164
3 159 160 165
3 160 161 166
3 161 162 167
3 162 163 168
3 88 164 169
3 164 165 170
3 165 166 171
3 166 167 172
3 167 168 173
3 94 169 174
3 169 170 175
3 170 171 176
3 171 172 177
3 172 173 178
3 100 174 179
3 174 175 180
3 175 176 181
3 176 177 182
3 177 178 183
3 106 179 184
3 179 180 185
3 180 181 186
3 181 182 187
3 182 183 188
3 112 184 189
3 184 185 190
3 185 186 191
3 186 187 192
3 187 188 193
3 29 23 194
3 23 17 195
3 17 11 196
3 11 5 197
3 5 268 274
3 123 194 198
3 194 195 199
3 195 196 200
3 196 197 201
3 197 274 202
3 128 198 203
3 198 199 204
3 199 200 205
3 200 201 206
3 201 202 207
3 133 203 208
3 203 204 209
3 204 205 210
3 205 206 211
3 206 207 212
3 138 208 213
3 208 209 214
3 209 210 215
3 210 211 216
3 211 212 217
3 143 213 218
3 213 214 219
3 214 215 220
3 215 216 221
3 216 217 222
3 148 218 223
3 218 219 224
3 219 220 225
3 220 221 226
3 221 222 227
3 153 223 228
3 223 224 229
3 224 225 230
3 225 226 231
3 226 227 232
3 158 228 233
3 228 229 234
3 229 230 235
3 230 231 236
3 231 232 237
3 163 233 238
3 233 234 239
3 234 235 240
3 235 236 241
3 236 237 242
3 168 238 243
3 238 239 244
3 239 240 245
3 240 241 246
3 241 242 247
3 173 243 248
3 243 244 249
3 244 245 250
3 245 246 251
3 246 247 252
3 178 248 253
3 248 249 254
3 249 250 255
3 250 251 256
3 251 252 257
3 183 253 258
3 253 254 259
3 254 255 260
3 255 256 261
3 256 257 262
3 188 258 263
3 258 259 264
3 259 260 265
3 260 261 266
3 261 262 267
3 268 269 275
3 269 270 276
3 270 271 277
3 271 272 278
3 272 273 279
3 274 275 280
3 275 276 281
3 276 277 282
3 277 278 283
3 278 279 35
3 202 280 284
3 280 281 285
3 281 282 286
3 282 283 287
3 283 35 41
3 207 284 288
3 284 285 289
3 285 286 290
3 286 287 291
3 287 41 47
3 212 288 292
3 288 289 293
3 289 290 294
3 290 291 295
3 291 47 53
3 217 292 296
3 292 293 297
3 293 294 298
3 294 295 299
3 295 53 59
3 222 296 300
3 296 297 301
3 297 298 302
3 298 299 303
3 299 59 65
3 227 300 304
3 300 301 305
3 301 302 306
3 302 303 307
3 303 65 71
3 232 304 308
3 304 305 309
3 305 306 310
3 306 307 311
3 307 71 77
3 237 308 312
3 308 309 313
3 309 310 314
3 310 311 315
3 311 77 83
3 242 312 316
3 312 313 317
3 313 314 318
3 314 315 319
3 315 83 89
3 247 316 320
3 316 317 321
3 317 318 322
3 318 319 323
3 319 89 95
3 252 320 324
3 320 321 325
3 321 322 326
3 322 323 327
3 323 95 101
3 257 324 328
3 324 325 329
3 325 326 330
3 326 327 331
3 327 101 107
3 262 328 332
3 328 329 333
3 329 330 334
3 330 331 335
3 331 107 113
3 113 114 336
3 114 115 337
3 115 116 338
3 116 117 339
3 117 118 189
3 335 336 340
3 336 337 341
3 337 338 342
3 338 339 343
3 339 189 190
3 334 340 344
3 340 341 345
3 341 342 346
3 342 343 347
3 343 190 191
3 333 344 348
3 344 345 349
3 345 346 350
3 346 347 351
3 347 191 192
3 332 348 266
3 348 349 265
3 349 350 264
3 350 351 263
3 351 192 193
3 273 1 0
3 272 2 1
3 271 3 2
3 270 4 3
3 269 5 4
3 0 7 6
3 1 8 7
3 2 9 8
3 3 10 9
3 4 11 10
3 6 13 12
3 7 14 13
3 8 15 14
3 9 16 15
3 10 17 16
3 12 19 18
3 13 20 19
3 14 21 20
3 15 22 21
3 16 23 22
3 18 25 24
3 19 26 25
3 20 27 26
3 21 28 27
3 22 29 28
3 273 30 279
3 0 31 30
3 6 32 31
3 12 33 32
3 18 34 33
3 279 36 35
3 30 37 36
3 31 38 37
3 32 39 38
3 33 40 39
3 35 42 41
3 36 43 42
3 37 44 43
3 38 45 44
3 39 46 45
3 41 48 47
3 42 49 48
3 43 50 49
3 44 51 50
3 45 52 51
3 47 54 53
3 48 55 54
3 49 56 55
3 50 57 56
3 51 58 57
3 53 60 59
3 54 61 60
3 55 62 61
3 56 63 62
3 57 64 63
3 59 66 65
3 60 67 66
3 61 68 67
3 62 69 68
3 63 70 69
3 65 72 71
3 66 73 72
3 67 74 73
3 68 75 74
3 69 76 75
3 71 78 77
3 72 79 78
3 73 80 79
3 74 81 80
3 75 82 81
3 77 84 83
3 78 85 84
3 79 86 85
3 80 87 86
3 81 88 87
3 83 90 89
3 84 91 90
3 85 92 91
3 86 93 92
3 87 94 93
3 89 96 95
3 90 97 96
3 91 98 97
3 92 99 98
3 93 100 99
3 95 102 101
3 96 103 102
3 97 104 103
3 98 105 104
3 99 106 105
3 101 108 107
3 102 109 108
3 103 110 109
3 104 111 110
3 105 112 111
3 107 114 113
3 108 115 114
3 109 116 115
3 110 117 116
3 111 118 117
3 24 119 34
3 25 120 119
3 26 121 120
3 27 122 121
3 28 123 122
3 34 124 40
3 119 125 124
3 120 126 125
3 121 127 126
3 122 128 127
3 40 129 46
3 124 130 129
3 125 131 130
3 126 132 131
3 127 133 132
3 46 134 52
3 129 135 134
3 130 136 135
3 131 137 136
3 132 138 137
3 52 139 58
3 134 140 139
3 135 141 140
3 136 142 141
3 137 143 142
3 58 144 64
3 139 145 144
3 140 146 145
3 141 147 146
3 142 148 147
3 64 149 70
3 144 150 149
3 145 151 150
3 146 152 151
3 147 153 152
3 70 154 76
3 149 155 154
3 150 156 155
3 151 157 156
3 152 158 157
3 76 159 82
3 154 160 159
3 155 161 160
3 156 162 161
3 157 163 162
3 82 164 88
3 159 165 164
3 160 166 165
3 161 167 166
3 162 168 167
3 88 169 94
3 164 170 169
3 165 171 170
3 166 172 171
3 167 173 172
3 94 174 100
3 169 175 174
3 170 176 175
3 171 177 176
3 172 178 177
3 100 179 106
3 174 180 179
3 175 181 180
3 176 182 181
3 177 183 182
3 106 184 112
3 179 185 184
3 180 186 185
3 181 187 186
3 182 188 187
3 112 189 118
3 184 190 189
3 185 191 190
3 186 192 191
3 187 193 192
3 29 194 123
3 23 195 194
3 17 196 195
3 11 197 196
3 5 274 197
3 123 198 128
3 194 199 198
3 195 200 199
3 196 201 200
3 197 202 201
3 128 203 133
3 198 204 203
3 199 205 204
3 200 206 205
3 201 207 206
3 133 208 138
3 203 209 208
3 204 210 209
3 205 211 210
3 206 212 211
3 138 213 143
3 208 214 213
3 209 215 214
3 210 216 215
3 211 217 216
3 143 218 148
3 213 219 218
3 214 220 219
3 215 221 220
3 216 222 221
3 148 223 153
3 218 224 223
3 219 225 224
3 220 226 225
3 221 227 226
3 153 228 158
3 223 229 228
3 224 230 229
3 225 231 230
3 226 232 231
3 158 233 163
3 228 234 233
3 229 235 234
3 230 236 235
3 231 237 236
3 163 238 168
3 233 239 238
3 234 240 239
3 235 241 240
3 236 242 241
3 168 243 173
3 238 244 243
3 239 245 244
3 240 246 245
3 241 247 246
3 173 248 178
3 243 249 248
3 244 250 249
3 245 251 250
3 246 252 251
3 178 253 183
3 248 254 253
3 249 255 254
3 250 256 255
3 251 257 256
3 183 258 188
3 253 259 258
3 254 260 259
3 255 261 260
3 256 262 261
3 188 263 193
3 258 264 263
3 259 265 264
3 260 266 265
3 261 267 266
3 268 275 274
3 269 276 275
3 270 277 276
3 271 278 277
3 272 279 278
3 274 280 202
3 275 281 280
3 276 282 281
3 277 283 282
3 278 35 283
3 202 284 207
3 280 285 284
3 281 286 285
3 282 287 286
3 283 41 287
3 207 288 212
3 284 289 288
3 285 290 289
3 286 291 290
3 287 47 291
3 212 292 217
3 288 293 292
3 289 294 293
3 290 295 294
3 291 53 295
3 217 296 222
3 292 297 296
3 293 298 297
3 294 299 298
3 295 59 299
3 222 300 227
3 296 301 300
3 297 302 301
3 298 303 302
3 299 65 303
3 227 304 232
3 300 305 304
3 301 306 305
3 302 307 306
3 303 71 307
3 232 308 237
3 304 309 308
3 305 310 309
3 306 311 310
3 307 77 311
3 237 312 242
3 308 313 312
3 309 314 313
3 310 315 314
3 311 83 315
3 242 316 247
3 312 317 316
3 313 318 317
3 314 319 318
3 315 89 319
3 247 320 252
3 316 321 320
3 317 322 321
3 318 323 322
3 319 95 323
3 252 324 257
3 320 325 324
3 321 326 325
3 322 327 326
3 323 101 327
3 257 328 262
3 324 329 328
3 325 330 329
3 326 331 330
3 327 107 331
3 262 332 267
3 328 333 332
3 329 334 333
3 330 335 334
3 331 113 335
3 113 336 335
3 114 337 336
3 115 338 337
3 116 339 338
3 117 189 339
3 335 340 334
3 336 341 340
3 337 342 341
3 338 343 342
3 339 190 343
3 334 344 333
3 340 345 344
3 341 346 345
3 342 347 346
3 343 191 347
3 333 348 332
3 344 349 348
3 345 350 349
3 346 351 350
3 347 192 351
3 332 266 267
3 348 265 266
3 349 264 265
3 350 263 264
3 351 193 263
