ply
format ascii 1.0
comment File exported by Rhinoceros Version 6.0
element vertex 352
property float x
property float y
property float z
property float nx
property float ny
property float nz
element face 700
property list uchar uint vertex_index
end_header
-12 -60 20 0 -0.7071068 0.7071068
-12 -60 12 0 -1 4.440892E-16
-12 -60 4 0 -1 4.440892E-16
-12 -60 -4 0 -1 4.440892E-16
-12 -60 -12 0 -1 4.440892E-16
-12 -60 -20 0 -0.7071068 -0.7071068
-4 -60 20 0 -0.7071068 0.7071068
-4 -60 12 0 -1 4.440892E-16
-4 -60 4 0 -1 4.440892E-16
-4 -60 -4 0 -1 4.440892E-16
-4 -60 -12 0 -1 4.440892E-16
-4 -60 -20 0 -0.7071068 -0.7071068
4 -60 20 0 -0.7071068 0.7071068
4 -60 12 0 -1 4.440892E-16
4 -60 4 0 -1 4.440892E-16
4 -60 -4 0 -1 4.440892E-16
4 -60 -12 0 -1 4.440892E-16
4 -60 -20 0 -0.7071068 -0.7071068
12 -60 20 0 -0.7071068 0.7071068
12 -60 12 0 -1 4.440892E-16
12 -60 4 0 -1 4.440892E-16
12 -60 -4 0 -1 4.440892E-16
12 -60 -12 0 -1 4.440892E-16
12 -60 -20 0 -0.7071068 -0.7071068
20 -60 20 0.7071068 -0.5 0.5
20 -60 12 0.7071068 -0.7071068 3.140185E-16
20 -60 4 0.7071068 -0.7071068 3.140185E-16
20 -60 -4 0.7071068 -0.7071068 3.140185E-16
20 -60 -12 0.7071068 -0.7071068 3.140185E-16
20 -60 -20 0.3826834 -0.6532815 -0.6532815
-12 -52 20 0 4.440892E-16 1
-4 -52 20 0 4.440892E-16 1
4 -52 20 0 4.440892E-16 1
12 -52 20 0 4.440892E-16 1
20 -52 20 0.7071068 3.140185E-16 0.7071068
-20 -44 20 -0.7071068 3.140185E-16 0.7071068
-12 -44 20 0 4.440892E-16 1
-4 -44 20 0 4.440892E-16 1
4 -44 20 0 4.440892E-16 1
12 -44 20 0 4.440892E-16 1
20 -44 20 0.7071068 3.140185E-16 0.7071068
-20 -36 20 -0.7071068 3.140185E-16 0.7071068
-12 -36 20 0 4.440892E-16 1
-4 -36 20 0 4.440892E-16 1
4 -36 20 0 4.440892E-16 1
12 -36 20 0 4.440892E-16 1
20 -36 20 0.7071068 3.140185E-16 0.7071068
-20 -28 20 -0.7071068 3.140185E-16 0.7071068
-12 -28 20 0 4.440892E-16 1
-4 -28 20 0 4.440892E-16 1
4 -28 20 0 4.440892E-16 1
12 -28 20 0 4.440892E-16 1
20 -28 20 0.7071068 3.140185E-16 0.7071068
-20 -20 20 -0.7071068 3.140185E-16 0.7071068
-12 -20 20 0 4.440892E-16 1
-4 -20 20 0 4.440892E-16 1
4 -20 20 0 4.440892E-16 1
12 -20 20 0 4.440892E-16 1
20 -20 20 0.7071068 3.140185E-16 0.7071068
-20 -12 20 -0.7071068 3.140185E-16 0.7071068
-12 -12 20 0 4.440892E-16 1
-4 -12 20 0 4.440892E-16 1
4 -12 20 0 4.440892E-16 1
12 -12 20 0 4.440892E-16 1
20 -12 20 0.7071068 3.140185E-16 0.7071068
-20 -4 20 -0.7071068 3.140185E-16 0.7071068
-12 -4 20 0 4.440892E-16 1
-4 -4 20 0 4.440892E-16 1
4 -4 20 0 4.440892E-16 1
12 -4 20 0 4.440892E-16 1
20 -4 20 0.7071068 3.140185E-16 0.7071068
-20 4 20 -0.7071068 3.140185E-16 0.7071068
-12 4 20 0 4.440892E-16 1
-4 4 20 0 4.440892E-16 1
4 4 20 0 4.440892E-16 1
12 4 20 0 4.440892E-16 1
20 4 20 0.7071068 3.140185E-16 0.7071068
-20 12 20 -0.7071068 3.140185E-16 0.7071068
-12 12 20 0 4.440892E-16 1
-4 12 20 0 4.440892E-16 1
4 12 20 0 4.440892E-16 1
12 12 20 0 4.440892E-16 1
20 12 20 0.7071068 3.140185E-16 0.7071068
-20 20 20 -0.7071068 3.140185E-16 0.7071068
-12 20 20 0 4.440892E-16 1
-4 20 20 0 4.440892E-16 1
4 20 20 0 4.440892E-16 1
12 20 20 0 4.440892E-16 1
20 20 20 0.7071068 3.140185E-16 0.7071068
-20 28 20 -0.7071068 3.140185E-16 0.7071068
-12 28 20 0 4.440892E-16 1
-4 28 20 0 4.440892E-16 1
4 28 20 0 4.440892E-16 1
12 28 20 0 4.440892E-16 1
20 28 20 0.7071068 3.140185E-16 0.7071068
-20 36 20 -0.7071068 3.140185E-16 0.7071068
-12 36 20 0 4.440892E-16 1
-4 36 20 0 4.440892E-16 1
4 36 20 0 4.440892E-16 1
12 36 20 0 4.440892E-16 1
20 36 20 0.7071068 3.140185E-16 0.7071068
-20 44 20 -0.7071068 3.140185E-16 0.7071068
-12 44 20 0 4.440892E-16 1
-4 44 20 0 4.440892E-16 1
4 44 20 0 4.440892E-16 1
12 44 20 0 4.440892E-16 1
20 44 20 0.7071068 3.140185E-16 0.7071068
-20 52 20 -0.7071068 3.140185E-16 0.7071068
-12 52 20 0 4.440892E-16 1
-4 52 20 0 4.440892E-16 1
4 52 20 0 4.440892E-16 1
12 52 20 0 4.440892E-16 1
20 52 20 0.7071068 3.140185E-16 0.7071068
-20 60 20 -0.6532815 0.3826834 0.6532815
-12 60 20 0 0.7071068 0.7071068
-4 60 20 0 0.7071068 0.7071068
4 60 20 0 0.7071068 0.7071068
12 60 20 0 0.7071068 0.7071068
20 60 20 0.6532815 0.3826834 0.6532815
20 -52 12 1 0 0
20 -52 4 1 0 0
20 -52 -4 1 0 0
20 -52 -12 1 0 0
20 -52 -20 0.7071068 -3.140185E-16 -0.7071068
20 -44 12 1 0 0
20 -44 4 1 0 0
20 -44 -4 1 0 0
20 -44 -12 1 0 0
20 -44 -20 0.7071068 -3.140185E-16 -0.7071068
20 -36 12 1 0 0
20 -36 4 1 0 0
20 -36 -4 1 0 0
20 -36 -12 1 0 0
20 -36 -20 0.7071068 -3.140185E-16 -0.7071068
20 -28 12 1 0 0
20 -28 4 1 0 0
20 -28 -4 1 0 0
20 -28 -12 1 0 0
20 -28 -20 0.7071068 -3.140185E-16 -0.7071068
20 -20 12 1 0 0
20 -20 4 1 0 0
20 -20 -4 1 0 0
20 -20 -12 1 0 0
20 -20 -20 0.7071068 -3.140185E-16 -0.7071068
20 -12 12 1 0 0
20 -12 4 1 0 0
20 -12 -4 1 0 0
20 -12 -12 1 0 0
20 -12 -20 0.7071068 -3.140185E-16 -0.7071068
20 -4 12 1 0 0
20 -4 4 1 0 0
20 -4 -4 1 0 0
20 -4 -12 1 0 0
20 -4 -20 0.7071068 -3.140185E-16 -0.7071068
20 4 12 1 0 0
20 4 4 1 0 0
20 4 -4 1 0 0
20 4 -12 1 0 0
20 4 -20 0.7071068 -3.140185E-16 -0.7071068
20 12 12 1 0 0
20 12 4 1 0 0
20 12 -4 1 0 0
20 12 -12 1 0 0
20 12 -20 0.7071068 -3.140185E-16 -0.7071068
20 20 12 1 0 0
20 20 4 1 0 0
20 20 -4 1 0 0
20 20 -12 1 0 0
20 20 -20 0.7071068 -3.140185E-16 -0.7071068
20 28 12 1 0 0
20 28 4 1 0 0
20 28 -4 1 0 0
20 28 -12 1 0 0
20 28 -20 0.7071068 -3.140185E-16 -0.7071068
20 36 12 1 0 0
20 36 4 1 0 0
20 36 -4 1 0 0
20 36 -12 1 0 0
20 36 -20 0.7071068 -3.140185E-16 -0.7071068
20 44 12 1 0 0
20 44 4 1 0 0
20 44 -4 1 0 0
20 44 -12 1 0 0
20 44 -20 0.7071068 -3.140185E-16 -0.7071068
20 52 12 1 0 0
20 52 4 1 0 0
20 52 -4 1 0 0
20 52 -12 1 0 0
20 52 -20 0.7071068 -3.140185E-16 -0.7071068
20 60 12 0.7071068 0.7071068 -3.140185E-16
20 60 4 0.7071068 0.7071068 -3.140185E-16
20 60 -4 0.7071068 0.7071068 -3.140185E-16
20 60 -12 0.7071068 0.7071068 -3.140185E-16
20 60 -20 0.5879378 0.5555702 -0.5879378
12 -52 -20 0 -4.440892E-16 -1
4 -52 -20 0 -4.440892E-16 -1
-4 -52 -20 0 -4.440892E-16 -1
-12 -52 -20 0 -4.440892E-16 -1
12 -44 -20 0 -4.440892E-16 -1
4 -44 -20 0 -4.440892E-16 -1
-4 -44 -20 0 -4.440892E-16 -1
-12 -44 -20 0 -4.440892E-16 -1
-20 -44 -20 -0.7071068 -3.140185E-16 -0.7071068
12 -36 -20 0 -4.440892E-16 -1
4 -36 -20 0 -4.440892E-16 -1
-4 -36 -20 0 -4.440892E-16 -1
-12 -36 -20 0 -4.440892E-16 -1
-20 -36 -20 -0.7071068 -3.140185E-16 -0.7071068
12 -28 -20 0 -4.440892E-16 -1
4 -28 -20 0 -4.440892E-16 -1
-4 -28 -20 0 -4.440892E-16 -1
-12 -28 -20 0 -4.440892E-16 -1
-20 -28 -20 -0.7071068 -3.140185E-16 -0.7071068
12 -20 -20 0 -4.440892E-16 -1
4 -20 -20 0 -4.440892E-16 -1
-4 -20 -20 0 -4.440892E-16 -1
-12 -20 -20 0 -4.440892E-16 -1
-20 -20 -20 -0.7071068 -3.140185E-16 -0.7071068
12 -12 -20 0 -4.440892E-16 -1
4 -12 -20 0 -4.440892E-16 -1
-4 -12 -20 0 -4.440892E-16 -1
-12 -12 -20 0 -4.440892E-16 -1
-20 -12 -20 -0.7071068 -3.140185E-16 -0.7071068
12 -4 -20 0 -4.440892E-16 -1
4 -4 -20 0 -4.440892E-16 -1
-4 -4 -20 0 -4.440892E-16 -1
-12 -4 -20 0 -4.440892E-16 -1
-20 -4 -20 -0.7071068 -3.140185E-16 -0.7071068
12 4 -20 0 -4.440892E-16 -1
4 4 -20 0 -4.440892E-16 -1
-4 4 -20 0 -4.440892E-16 -1
-12 4 -20 0 -4.440892E-16 -1
-20 4 -20 -0.7071068 -3.140185E-16 -0.7071068
12 12 -20 0 -4.440892E-16 -1
4 12 -20 0 -4.440892E-16 -1
-4 12 -20 0 -4.440892E-16 -1
-12 12 -20 0 -4.440892E-16 -1
-20 12 -20 -0.7071068 -3.140185E-16 -0.7071068
12 20 -20 0 -4.440892E-16 -1
4 20 -20 0 -4.440892E-16 -1
-4 20 -20 0 -4.440892E-16 -1
-12 20 -20 0 -4.440892E-16 -1
-20 20 -20 -0.7071068 -3.140185E-16 -0.7071068
12 28 -20 0 -4.440892E-16 -1
4 28 -20 0 -4.440892E-16 -1
-4 28 -20 0 -4.440892E-16 -1
-12 28 -20 0 -4.440892E-16 -1
-20 28 -20 -0.7071068 -3.140185E-16 -0.7071068
12 36 -20 0 -4.440892E-16 -1
4 36 -20 0 -4.440892E-16 -1
-4 36 -20 0 -4.440892E-16 -1
-12 36 -20 0 -4.440892E-16 -1
-20 36 -20 -0.7071068 -3.140185E-16 -0.7071068
12 44 -20 0 -4.440892E-16 -1
4 44 -20 0 -4.440892E-16 -1
-4 44 -20 0 -4.440892E-16 -1
-12 44 -20 0 -4.440892E-16 -1
-20 44 -20 -0.7071068 -3.140185E-16 -0.7071068
12 52 -20 0 -4.440892E-16 -1
4 52 -20 0 -4.440892E-16 -1
-4 52 -20 0 -4.440892E-16 -1
-12 52 -20 0 -4.440892E-16 -1
-20 52 -20 -0.7071068 -3.140185E-16 -0.7071068
12 60 -20 0 0.7071068 -0.7071068
4 60 -20 0 0.7071068 -0.7071068
-4 60 -20 0 0.7071068 -0.7071068
-12 60 -20 0 0.7071068 -0.7071068
-20 60 -20 -0.6532815 0.3826834 -0.6532815
-20 -60 -20 -0.5 -0.5 -0.7071068
-20 -60 -12 -0.7071068 -0.7071068 3.140185E-16
-20 -60 -4 -0.7071068 -0.7071068 3.140185E-16
-20 -60 4 -0.7071068 -0.7071068 3.140185E-16
-20 -60 12 -0.7071068 -0.7071068 3.140185E-16
-20 -60 20 -0.5 -0.5 0.7071068
-20 -52 -20 -0.7071068 -3.140185E-16 -0.7071068
-20 -52 -12 -1 0 0
-20 -52 -4 -1 0 0
-20 -52 4 -1 0 0
-20 -52 12 -1 0 0
-20 -52 20 -0.7071068 3.140185E-16 0.7071068
-20 -44 -12 -1 0 0
-20 -44 -4 -1 0 0
-20 -44 4 -1 0 0
-20 -44 12 -1 0 0
-20 -36 -12 -1 0 0
-20 -36 -4 -1 0 0
-20 -36 4 -1 0 0
-20 -36 12 -1 0 0
-20 -28 -12 -1 0 0
-20 -28 -4 -1 0 0
-20 -28 4 -1 0 0
-20 -28 12 -1 0 0
-20 -20 -12 -1 0 0
-20 -20 -4 -1 0 0
-20 -20 4 -1 0 0
-20 -20 12 -1 0 0
-20 -12 -12 -1 0 0
-20 -12 -4 -1 0 0
-20 -12 4 -1 0 0
-20 -12 12 -1 0 0
-20 -4 -12 -1 0 0
-20 -4 -4 -1 0 0
-20 -4 4 -1 0 0
-20 -4 12 -1 0 0
-20 4 -12 -1 0 0
-20 4 -4 -1 0 0
-20 4 4 -1 0 0
-20 4 12 -1 0 0
-20 12 -12 -1 0 0
-20 12 -4 -1 0 0
-20 12 4 -1 0 0
-20 12 12 -1 0 0
-20 20 -12 -1 0 0
-20 20 -4 -1 0 0
-20 20 4 -1 0 0
-20 20 12 -1 0 0
-20 28 -12 -1 0 0
-20 28 -4 -1 0 0
-20 28 4 -1 0 0
-20 28 12 -1 0 0
-20 36 -12 -1 0 0
-20 36 -4 -1 0 0
-20 36 4 -1 0 0
-20 36 12 -1 0 0
-20 44 -12 -1 0 0
-20 44 -4 -1 0 0
-20 44 4 -1 0 0
-20 44 12 -1 0 0
-20 52 -12 -1 0 0
-20 52 -4 -1 0 0
-20 52 4 -1 0 0
-20 52 12 -1 0 0
-20 60 -12 -0.7071068 0.7071068 -3.140185E-16
-20 60 -4 -0.7071068 0.7071068 -3.140185E-16
-20 60 4 -0.7071068 0.7071068 -3.140185E-16
-20 60 12 -0.7071068 0.7071068 -3.140185E-16
-12 60 12 0 1 -4.440892E-16
-4 60 12 0 1 -4.440892E-16
4 60 12 0 1 -4.440892E-16
12 60 12 0 1 -4.440892E-16
-12 60 4 0 1 -4.440892E-16
-4 60 4 0 1 -4.440892E-16
4 60 4 0 1 -4.440892E-16
12 60 4 0 1 -4.440892E-16
-12 60 -4 0 1 -4.440892E-16
-4 60 -4 0 1 -4.440892E-16
4 60 -4 0 1 -4.440892E-16
12 60 -4 0 1 -4.440892E-16
-12 60 -12 0 1 -4.440892E-16
-4 60 -12 0 1 -4.440892E-16
4 60 -12 0 1 -4.440892E-16
12 60 -12 0 1 -4.440892E-16
3 273 272 1
3 272 271 2
3 271 270 3
3 270 269 4
3 269 268 5
3 0 1 7
3 1 2 8
3 2 3 9
3 3 4 10
3 4 5 11
3 6 7 13
3 7 8 14
3 8 9 15
3 9 10 16
3 10 11 17
3 12 13 19
3 13 14 20
3 14 15 21
3 15 16 22
3 16 17 23
3 18 19 25
3 19 20 26
3 20 21 27
3 21 22 28
3 22 23 29
3 273 0 30
3 0 6 31
3 6 12 32
3 12 18 33
3 18 24 34
3 279 30 36
3 30 31 37
3 31 32 38
3 32 33 39
3 33 34 40
3 35 36 42
3 36 37 43
3 37 38 44
3 38 39 45
3 39 40 46
3 41 42 48
3 42 43 49
3 43 44 50
3 44 45 51
3 45 46 52
3 47 48 54
3 48 49 55
3 49 50 56
3 50 51 57
3 51 52 58
3 53 54 60
3 54 55 61
3 55 56 62
3 56 57 63
3 57 58 64
3 59 60 66
3 60 61 67
3 61 62 68
3 62 63 69
3 63 64 70
3 65 66 72
3 66 67 73
3 67 68 74
3 68 69 75
3 69 70 76
3 71 72 78
3 72 73 79
3 73 74 80
3 74 75 81
3 75 76 82
3 77 78 84
3 78 79 85
3 79 80 86
3 80 81 87
3 81 82 88
3 83 84 90
3 84 85 91
3 85 86 92
3 86 87 93
3 87 88 94
3 89 90 96
3 90 91 97
3 91 92 98
3 92 93 99
3 93 94 100
3 95 96 102
3 96 97 103
3 97 98 104
3 98 99 105
3 99 100 106
3 101 102 108
3 102 103 109
3 103 104 110
3 104 105 111
3 105 106 112
3 107 108 114
3 108 109 115
3 109 110 116
3 110 111 117
3 111 112 118
3 24 25 119
3 25 26 120
3 26 27 121
3 27 28 122
3 28 29 123
3 34 119 124
3 119 120 125
3 120 121 126
3 121 122 127
3 122 123 128
3 40 124 129
3 124 125 130
3 125 126 131
3 126 127 132
3 127 128 133
3 46 129 134
3 129 130 135
3 130 131 136
3 131 132 137
3 132 133 138
3 52 134 139
3 134 135 140
3 135 136 141
3 136 137 142
3 137 138 143
3 58 139 144
3 139 140 145
3 140 141 146
3 141 142 147
3 142 143 148
3 64 144 149
3 144 145 150
3 145 146 151
3 146 147 152
3 147 148 153
3 70 149 154
3 149 150 155
3 150 151 156
3 151 152 157
3 152 153 158
3 76 154 159
3 154 155 160
3 155 156 161
3 156 157 162
3 157 158 163
3 82 159 164
3 159 160 165
3 160 161 166
3 161 162 167
3 162 163 168
3 88 164 169
3 164 165 170
3 165 166 171
3 166 167 172
3 167 168 173
3 94 169 174
3 169 170 175
3 170 171 176
3 171 172 177
3 172 173 178
3 100 174 179
3 174 175 180
3 175 176 181
3 176 177 182
3 177 178 183
3 106 179 184
3 179 180 185
3 180 181 186
3 181 182 187
3 182 183 188
3 112 184 189
3 184 185 190
3 185 186 191
3 186 187 192
3 187 188 193
3 29 23 194
3 23 17 195
3 17 11 196
3 11 5 197
3 5 268 274
3 123 194 198
3 194 195 199
3 195 196 200
3 196 197 201
3 197 274 202
3 128 198 203
3 198 199 204
3 199 200 205
3 200 201 206
3 201 202 207
3 133 203 208
3 203 204 209
3 204 205 210
3 205 206 211
3 206 207 212
3 138 208 213
3 208 209 214
3 209 210 215
3 210 211 216
3 211 212 217
3 143 213 218
3 213 214 219
3 214 215 220
3 215 216 221
3 216 217 222
3 148 218 223
3 218 219 224
3 219 220 225
3 220 221 226
3 221 222 227
3 153 223 228
3 223 224 229
3 224 225 230
3 225 226 231
3 226 227 232
3 158 228 233
3 228 229 234
3 229 230 235
3 230 231 236
3 231 232 237
3 163 233 238
3 233 234 239
3 234 235 240
3 235 236 241
3 236 237 242
3 168 238 243
3 238 239 244
3 239 240 245
3 240 241 246
3 241 242 247
3 173 243 248
3 243 244 249
3 244 245 250
3 245 246 251
3 246 247 252
3 178 248 253
3 248 249 254
3 249 250 255
3 250 251 256
3 251 252 257
3 183 253 258
3 253 254 259
3 254 255 260
3 255 256 261
3 256 257 262
3 188 258 263
3 258 259 264
3 259 260 265
3 260 261 266
3 261 262 267
3 268 269 275
3 269 270 276
3 270 271 277
3 271 272 278
3 272 273 279
3 274 275 280
3 275 276 281
3 276 277 282
3 277 278 283
3 278 279 35
3 202 280 284
3 280 281 285
3 281 282 286
3 282 283 287
3 283 35 41
3 207 284 288
3 284 285 289
3 285 286 290
3 286 287 291
3 287 41 47
3 212 288 292
3 288 289 293
3 289 290 294
3 290 291 295
3 291 47 53
3 217 292 296
3 292 293 297
3 293 294 298
3 294 295 299
3 295 53 59
3 222 296 300
3 296 297 301
3 297 298 302
3 298 299 303
3 299 59 65
3 227 300 304
3 300 301 305
3 301 302 306
3 302 303 307
3 303 65 71
3 232 304 308
3 304 305 309
3 305 306 310
3 306 307 311
3 307 71 77
3 237 308 312
3 308 309 313
3 309 310 314
3 310 311 315
3 311 77 83
3 242 312 316
3 312 313 317
3 313 314 318
3 314 315 319
3 315 83 89
3 247 316 320
3 316 317 321
3 317 318 322
3 318 319 323
3 319 89 95
3 252 320 324
3 320 321 325
3 321 322 326
3 322 323 327
3 323 95 101
3 257 324 328
3 324 325 329
3 325 326 330
3 326 327 331
3 327 101 107
3 262 328 332
3 328 329 333
3 329 330 334
3 330 331 335
3 331 107 113
3 113 114 336
3 114 115 337
3 115 116 338
3 116 117 339
3 117 118 189
3 335 336 340
3 336 337 341
3 337 338 342
3 338 339 343
3 339 189 190
3 334 340 344
3 340 341 345
3 341 342 346
3 342 343 347
3 343 190 191
3 333 344 348
3 344 345 349
3 345 346 350
3 346 347 351
3 347 191 192
3 332 348 266
3 348 349 265
3 349 350 264
3 350 351 263
3 351 192 193
3 273 1 0
3 272 2 1
3 271 3 2
3 270 4 3
3 269 5 4
3 0 7 6
3 1 8 7
3 2 9 8
3 3 10 9
3 4 11 10
3 6 13 12
3 7 14 13
3 8 15 14
3 9 16 15
3 10 17 16
3 12 19 18
3 13 20 19
3 14 21 20
3 15 22 21
3 16 23 22
3 18 25 24
3 19 26 25
3 20 27 26
3 21 28 27
3 22 29 28
3 273 30 279
3 0 31 30
3 6 32 31
3 12 33 32
3 18 34 33
3 279 36 35
3 30 37 36
3 31 38 37
3 32 39 38
3 33 40 39
3 35 42 41
3 36 43 42
3 37 44 43
3 38 45 44
3 39 46 45
3 41 48 47
3 42 49 48
3 43 50 49
3 44 51 50
3 45 52 51
3 47 54 53
3 48 55 54
3 49 56 55
3 50 57 56
3 51 58 57
3 53 60 59
3 54 61 60
3 55 62 61
3 56 63 62
3 57 64 63
3 59 66 65
3 60 67 66
3 61 68 67
3 62 69 68
3 63 70 69
3 65 72 71
3 66 73 72
3 67 74 73
3 68 75 74
3 69 76 75
3 71 78 77
3 72 79 78
3 73 80 79
3 74 81 80
3 75 82 81
3 77 84 83
3 78 85 84
3 79 86 85
3 80 87 86
3 81 88 87
3 83 90 89
3 84 91 90
3 85 92 91
3 86 93 92
3 87 94 93
3 89 96 95
3 90 97 96
3 91 98 97
3 92 99 98
3 93 100 99
3 95 102 101
3 96 103 102
3 97 104 103
3 98 105 104
3 99 106 105
3 101 108 107
3 102 109 108
3 103 110 109
3 104 111 110
3 105 112 111
3 107 114 113
3 108 115 114
3 109 116 115
3 110 117 116
3 111 118 117
3 24 119 34
3 25 120 119
3 26 121 120
3 27 122 121
3 28 123 122
3 34 124 40
3 119 125 124
3 120 126 125
3 121 127 126
3 122 128 127
3 40 129 46
3 124 130 129
3 125 131 130
3 126 132 131
3 127 133 132
3 46 134 52
3 129 135 134
3 130 136 135
3 131 137 136
3 132 138 137
3 52 139 58
3 134 140 139
3 135 141 140
3 136 142 141
3 137 143 142
3 58 144 64
3 139 145 144
3 140 146 145
3 141 147 146
3 142 148 147
3 64 149 70
3 144 150 149
3 145 151 150
3 146 152 151
3 147 153 152
3 70 154 76
3 149 155 154
3 150 156 155
3 151 157 156
3 152 158 157
3 76 159 82
3 154 160 159
3 155 161 160
3 156 162 161
3 157 163 162
3 82 164 88
3 159 165 164
3 160 166 165
3 161 167 166
3 162 168 167
3 88 169 94
3 164 170 169
3 165 171 170
3 166 172 171
3 167 173 172
3 94 174 100
3 169 175 174
3 170 176 175
3 171 177 176
3 172 178 177
3 100 179 106
3 174 180 179
3 175 181 180
3 176 182 181
3 177 183 182
3 106 184 112
3 179 185 184
3 180 186 185
3 181 187 186
3 182 188 187
3 112 189 118
3 184 190 189
3 185 191 190
3 186 192 191
3 187 193 192
3 29 194 123
3 23 195 194
3 17 196 195
3 11 197 196
3 5 274 197
3 123 198 128
3 194 199 198
3 195 200 199
3 196 201 200
3 197 202 201
3 128 203 133
3 198 204 203
3 199 205 204
3 200 206 205
3 201 207 206
3 133 208 138
3 203 209 208
3 204 210 209
3 205 211 210
3 206 212 211
3 138 213 143
3 208 214 213
3 209 215 214
3 210 216 215
3 211 217 216
3 143 218 148
3 213 219 218
3 214 220 219
3 215 221 220
3 216 222 221
3 148 223 153
3 218 224 223
3 219 225 224
3 220 226 225
3 221 227 226
3 153 228 158
3 223 229 228
3 224 230 229
3 225 231 230
3 226 232 231
3 158 233 163
3 228 234 233
3 229 235 234
3 230 236 235
3 231 237 236
3 163 238 168
3 233 239 238
3 234 240 239
3 235 241 240
3 236 242 241
3 168 243 173
3 238 244 243
3 239 245 244
3 240 246 245
3 241 247 246
3 173 248 178
3 243 249 248
3 244 250 249
3 245 251 250
3 246 252 251
3 178 253 183
3 248 254 253
3 249 255 254
3 250 256 255
3 251 257 256
3 183 258 188
3 253 259 258
3 254 260 259
3 255 261 260
3 256 262 261
3 188 263 193
3 258 264 263
3 259 265 264
3 260 266 265
3 261 267 266
3 268 275 274
3 269 276 275
3 270 277 276
3 271 278 277
3 272 279 278
3 274 280 202
3 275 281 280
3 276 282 281
3 277 283 282
3 278 35 283
3 202 284 207
3 280 285 284
3 281 286 285
3 282 287 286
3 283 41 287
3 207 288 212
3 284 289 288
3 285 290 289
3 286 291 290
3 287 47 291
3 212 292 217
3 288 293 292
3 289 294 293
3 290 295 294
3 291 53 295
3 217 296 222
3 292 297 296
3 293 298 297
3 294 299 298
3 295 59 299
3 222 300 227
3 296 301 300
3 297 302 301
3 298 303 302
3 299 65 303
3 227 304 232
3 300 305 304
3 301 306 305
3 302 307 306
3 303 71 307
3 232 308 237
3 304 309 308
3 305 310 309
3 306 311 310
3 307 77 311
3 237 312 242
3 308 313 312
3 309 314 313
3 310 315 314
3 311 83 315
3 242 316 247
3 312 317 316
3 313 318 317
3 314 319 318
3 315 89 319
3 247 320 252
3 316 321 320
3 317 322 321
3 318 323 322
3 319 95 323
3 252 324 257
3 320 325 324
3 321 326 325
3 322 327 326
3 323 101 327
3 257 328 262
3 324 329 328
3 325 330 329
3 326 331 330
3 327 107 331
3 262 332 267
3 328 333 332
3 329 334 333
3 330 335 334
3 331 113 335
3 113 336 335
3 114 337 336
3 115 338 337
3 116 339 338
3 117 189 339
3 335 340 334
3 336 341 340
3 337 342 341
3 338 343 342
3 339 190 343
3 334 344 333
3 340 345 344
3 341 346 345
3 342 347 346
3 343 191 347
3 333 348 332
3 344 349 348
3 345 350 349
3 346 351 350
3 347 192 351
3 332 266 267
3 348 265 266
3 349 264 265
3 350 263 264
3 351 193 263
