ply
format ascii 1.0
comment File exported by Rhinoceros Version 6.0
element vertex 251
property float x
property float y
property float z
property float nx
property float ny
property float nz
element face 498
property list uchar uint vertex_index
end_header
-44.40675 -58.26411 -189.2662 0.1085324 0.07705303 -0.9911022
-44.31704 -134.335 -182.3214 0.01403335 -0.3316942 -0.9432826
-80.35608 -207.4256 -161.5056 -0.6443959 -0.1482012 -0.7501935
-38.04803 -38.98516 -175.1911 0.180305 0.5039615 -0.8446969
-58.78421 -15.85782 -169.0495 0.4449759 0.03036577 -0.8950276
-65.72302 27.15325 -183.5985 0.3437144 -0.1037851 -0.9333215
-29.43647 198.9479 -173.2908 0.004332326 0.23576 -0.9718016
10.31468 198.4665 -167.6836 0.3763036 0.05035207 -0.9251271
52.72234 -156.7123 -165.8008 0.26519 0.0454243 -0.9631256
12.48017 -130.5825 -183.7667 0.588218 0.1472067 -0.7951916
20.11102 -123.0099 173.3416 0.50623 0.02073454 0.8621492
22.90271 154.9902 -159.8432 0.4215067 -0.1253248 -0.8981235
53.4221 -51.28966 -161.5321 0.2647505 0.23668 -0.9348207
-90.94314 -11.83553 -185.1786 0.2992932 0.3678539 -0.8804017
-75.37489 -51.23103 -188.7912 -0.7171382 -0.3115009 -0.623442
-108.144 -44.01898 -156.5569 -0.9637861 0.2664996 0.009707905
-105.538 -18.59097 -171.06 -0.9582374 -0.2553317 -0.1287898
-114.2329 31.03978 -161.1697 -0.7632172 0.1213281 -0.6346487
-4.574189 -263.7214 -170.1878 -0.02678162 -0.6713479 -0.7406583
-47.42552 -268.4632 -160.4218 -0.2506505 -0.7333403 -0.6319702
-27.30037 272.2547 -151.4647 -0.03675187 -0.08438382 -0.9957553
33.89629 -265.0164 -167.7945 0.1808491 -0.7767347 -0.6033049
-3.866569 -295.553 -122.928 0.01603715 -0.9990907 0.03950318
-65.06725 80.63726 187.0892 -0.5377526 -0.01780176 0.8429148
-101.2676 -106.2116 -155.9142 -0.8730512 0.0612457 -0.4837671
107.4845 -6.286208 -134.0282 0.6284199 -0.2703769 -0.7293728
88.71559 191.4094 -129.7328 0.6404331 0.03435813 -0.7672451
41.58839 -127.5737 -154.3408 0.7015214 0.06198867 -0.7099473
64.85095 38.94204 -112.4256 0.2127157 0.3625713 -0.9073555
82.93289 -253.0811 -153.3603 0.5027672 -0.2826648 -0.8169001
56.83209 294.7863 -135.8178 0.4197111 0.760042 -0.4961641
-21.34113 294.4062 -154.3903 -0.0237937 0.9944167 0.1028069
-90.38733 -270.9083 -135.7476 -0.551593 -0.6782405 -0.4855255
-114.7657 -72.95757 -111.5381 -0.8947352 0.2963118 0.334138
35.93865 280.1111 -141.5189 0.4956693 0.02211539 -0.8682297
105.4588 -261.6215 -133.8868 0.5481942 -0.6489329 -0.5276071
50.26118 294.1165 -133.8649 -0.5300895 0.3220446 0.7844058
-142.2135 74.49709 -106.3305 -0.9478984 -0.09705333 -0.3034289
-88.22452 271.6751 -131.9519 -0.6341074 -0.09713027 -0.7671203
-60.83615 -293.1216 -110.3224 -0.3077497 -0.8915472 -0.3323157
-89.89091 287.7845 -134.5263 -0.4995973 0.6149663 -0.6100975
29.01017 270.8814 -135.8358 -0.03396236 0.9966814 0.07397848
-93.20828 292.0449 -125.317 0.4985564 0.5215959 0.6923722
-27.33871 268.9973 -142.5394 -0.03947441 0.9988573 0.02694213
-27.45517 292.0084 -148.4972 -0.06323967 0.21822 0.9738485
-118.2622 -264.0214 -109.5336 -0.8547865 -0.1329094 -0.5016724
91.74762 -157.2317 -117.0084 0.5662066 0.3010697 -0.7673116
-92.58434 -55.73034 -98.21768 -0.9812359 0.1116371 0.1572043
54.69997 -292.5912 -117.8892 -0.009144221 -0.9502004 0.3115052
-84.95663 89.31065 -175.4249 -0.4782711 0.1279981 -0.8688344
-133.2261 -165.5503 -101.8619 -0.950388 0.2964212 -0.09432507
100.8895 -7.722473 -135.8444 0.1430942 0.4966819 -0.8560556
97.4399 286.3184 -98.69173 0.7391563 0.01020547 -0.6734566
126.7887 -244.1333 -123.2037 0.7219131 -0.2043299 -0.6611284
102.6269 -287.04 -89.97276 0.2139267 -0.9708396 -0.1081932
-134.295 272.4305 -89.30579 -0.8779651 -0.1200239 -0.4634345
-142.2049 191.5584 -112.7623 -0.8341246 0.07871462 -0.5459305
-127.1328 286.1004 -102.4475 -0.7603173 0.2261295 -0.6089196
109.3924 -68.3479 -92.74333 0.5574927 -0.3435112 -0.755779
77.12265 279.507 -114.4409 0.6579214 0.292722 -0.6938683
113.1573 -46.63083 -101.1358 -0.1241968 -0.4275664 -0.8954117
2.107311 -291.0966 -117.1831 0.2131041 -0.1645204 0.9630783
-79.54207 264.6502 -126.9328 0.2042351 0.8809744 0.4268164
17.56893 -268.4337 -116.4991 0.06232695 -0.8493732 0.5240998
-131.6116 290.6287 -89.9399 0.497761 0.7991359 0.3370694
-54.32851 -274.532 -97.9225 0.6743714 -0.1635124 0.7200604
-45.25926 210.554 164.4774 -0.1725496 0.3194506 0.9317607
-52.17047 -296.0608 -98.10874 0.02015935 -0.9984173 0.05250331
145.1663 -14.59875 -108.3322 0.3103392 -0.119044 -0.9431427
128.0625 204.15 -93.02471 0.8258433 0.2249155 -0.5171033
67.68401 -286.6847 -104.2709 -0.4153409 -0.2978615 0.8595176
139.7162 -67.0325 -101.9096 0.2757633 -0.5760974 -0.7694585
104.349 295.6612 -83.72108 0.1121228 0.9884851 0.1016155
126.1651 -96.72501 -73.72791 0.3959659 0.0773648 -0.9150004
-145.8916 -254.8981 -59.15672 -0.9894102 -0.04990501 -0.1362973
160.0574 -252.7166 -76.44637 0.8927734 -0.3492847 -0.2845273
-94.17971 -295.384 -70.44217 -0.3849203 -0.9146799 -0.1232763
164.4239 136.5421 -50.65678 0.9939866 -0.002725029 0.1094679
132.7633 -39.21114 -76.02942 0.7254643 0.3956116 0.5631989
-106.2969 -119.6017 -67.8503 -0.8877699 0.45684 0.05622864
146.2168 32.24157 -98.56728 0.6115123 0.2426768 -0.7531008
-120.1955 6.405482 -133.79 -0.8827103 -0.4665864 -0.05585343
-33.99125 -250.2048 -59.02135 0.278639 -0.945226 0.1700244
-91.89553 -270.5221 -48.40995 0.8299323 -0.4961363 0.255071
160.7522 143.3204 -55.77719 0.7365568 0.08404719 -0.6711335
128.5123 291.8518 -35.29387 0.9214615 0.3848749 -0.05272629
123.1071 250.1387 -72.58109 0.9212884 0.2485442 -0.2990879
145.5717 -64.46035 -99.64883 0.9496697 -0.1998347 -0.2412336
87.76795 -265.2417 -86.50024 -0.4712539 -0.731604 0.4926209
169.5889 -99.0397 -50.63911 0.9432828 0.1579649 -0.2920011
43.32486 -253.2292 -81.87753 -0.09401464 -0.9321296 0.3497081
112.102 -287.4803 -61.26719 -0.6946948 -0.6061577 0.3872621
143.766 -33.71248 -75.09894 0.4374214 -0.5163753 0.7362195
153.7088 -104.3941 -59.00481 0.4909216 -0.1813694 -0.8521157
154.658 201.7754 -41.27098 0.9577372 0.2695273 -0.1004713
166.955 -255.6056 -43.1867 0.7470486 -0.6641371 -0.02898859
-84.25321 -294.2531 -65.68301 0.7438208 -0.5303917 0.4067127
115.417 -262.5424 -44.22115 -0.6743497 -0.7058457 0.2168739
-126.8988 263.6699 -88.12411 0.4896791 0.8231047 0.2875986
132.3458 -282.5073 -48.86578 0.4274317 -0.9022149 -0.05753657
174.2794 -244.0427 -29.19584 0.9645623 -0.2632453 -0.01792949
-164.9533 283.406 -36.03673 -0.8493878 0.5240546 -0.06250707
-85.15955 -65.35139 21.01682 -0.9911764 -0.01602795 -0.1315766
112.7122 -33.2692 -56.08932 0.7741926 0.1598321 0.6124374
-103.0308 -294.575 -22.29443 0.496519 -0.8647825 0.07496765
70.16127 -241.8386 -19.05297 -0.1993199 -0.978497 -0.05305947
-114.0376 -292.2162 -25.07446 -0.5041677 -0.8631196 0.02897502
-153.0592 266.3377 -19.97823 -0.0009362838 0.9999966 -0.002441361
124.5735 293.6988 -29.15092 -0.8670963 0.4861923 0.1084483
-147.2943 -264.9229 -29.58886 -0.7925489 -0.605288 -0.07411312
128.3063 -284.9572 -15.34441 -0.7892115 -0.6140916 -0.006062157
13.0717 -237.5771 -25.27092 0.09669339 -0.9924888 0.0749423
-137.0866 -171.1312 -60.79655 -0.9553395 0.2898989 -0.05731539
-116.1812 -10.21756 -19.12803 -0.829775 -0.5580596 0.006549471
-135.7846 22.52896 33.17384 -0.9309248 -0.353897 0.09019987
128.1085 -69.18066 -24.4422 0.6544724 0.5572016 0.5110697
122.4563 -259.7269 2.943005 -0.8052186 -0.5634998 -0.1846372
131.7652 -188.915 89.65311 0.8498297 0.2655066 0.4552974
-100.7284 -267.1891 8.121719 0.7997233 -0.5227345 -0.2952818
121.8905 265.9048 3.344823 -0.5907218 0.8036746 -0.07179721
-171.0703 201.6844 21.15604 -0.9738958 0.03634219 0.2240676
152.1828 37.91815 -52.82615 0.8981801 -0.1900543 0.3964238
-159.7065 272.423 -26.83514 -0.9883066 -0.09627553 -0.1182411
168.873 -250.0314 34.49202 0.7598263 -0.5548214 0.3388764
123.2371 275.9509 37.16038 0.9148078 0.0243909 0.4031523
-124.3573 -128.9585 14.22656 -0.8814707 0.1782194 0.4373183
3.826939 -184.3483 177.6946 0.2998179 -0.1696723 0.9387867
124.9071 291.59 33.58737 0.2494515 0.9563863 0.1519846
94.88865 29.14876 -9.193507 0.6399929 -0.3845794 0.6652126
-156.4834 287.2385 -40.25192 0.4216058 0.8944519 0.1490113
95.08369 -256.9075 65.3823 -0.2940759 -0.8669785 -0.4023278
128.2083 272.9122 -24.55716 0.9994217 -0.02568088 -0.02228783
-88.13309 -48.78953 -14.37613 -0.8795582 -0.4735767 0.04585225
-97.95268 -294.5915 43.20216 -0.1235958 -0.9922638 0.01168741
-151.2791 -251.3056 -1.35918 -0.9908852 -0.094685 0.09581887
-158.6883 266.7928 22.32514 -0.9680423 0.03403366 0.2484671
-137.8972 -263.2569 55.02665 -0.7883684 -0.4113528 0.4574539
-18.06557 -163.5038 189.2662 -0.002213123 -0.2840736 0.9587999
133.936 91.57626 1.558906 0.6976256 -0.3714933 0.6126264
147.6206 191.8627 19.07087 0.941613 0.01658561 0.3362885
23.19824 -239.662 37.58472 0.006526902 -0.9801281 -0.1982582
131.3666 286.368 24.71176 0.9255762 -0.1772898 0.3344802
119.4613 -274.936 38.5616 -0.8433409 -0.3268519 -0.4265489
-114.8749 -287.4665 23.31051 -0.586736 -0.7878897 0.1870044
-146.3639 263.7069 43.7379 0.2379656 0.9658942 -0.102082
-92.65868 -84.2812 59.66435 -0.6634565 -0.2608649 0.7012667
-145.4319 265.5986 63.48262 -0.7728292 -0.03262716 0.6337748
111.7522 -281.2144 75.0901 0.3147355 -0.9153355 0.2512022
-160.0279 287.6815 30.45697 0.3777101 0.9155759 -0.1380428
-159.5088 173.6409 56.45357 -0.9562982 -0.0569352 0.2867965
-111.2219 2.047408 47.82459 -0.834564 -0.5487003 -0.04930325
124.5997 191.2792 64.29308 0.8176684 0.03591313 0.5745682
-74.61174 -97.67509 64.07078 -0.9217232 -0.2033034 0.3302938
-137.807 288.3395 82.84451 -0.6362054 0.526082 0.5643407
-106.0654 -215.2185 101.1412 -0.8228106 0.176902 0.5400817
94.28963 -284.0794 77.77821 -0.573658 -0.490685 -0.6558542
99.17477 269.1844 83.38377 0.7021185 0.06010373 0.709519
-74.35389 -275.2625 73.93452 0.5744727 -0.3876612 -0.7209021
-94.79747 -22.47344 77.05238 -0.9074461 -0.4130669 -0.0769233
-129.6199 291.9268 83.39545 0.6677697 0.2645003 -0.6957896
86.18256 -50.56853 5.481918 0.7928551 0.477285 0.3789194
-24.55772 -252.4774 71.00648 0.1606212 -0.9351131 -0.315855
98.15643 289.7586 96.51151 0.649224 0.1607312 0.7434202
-76.75848 -67.65163 77.0471 -0.863667 -0.3004486 0.4047345
-141.9077 -247.0519 48.12875 -0.8986692 0.0809787 0.4310872
-13.07846 -265.3175 106.1562 0.1376959 -0.2869375 -0.9480014
-106.6815 264.7271 99.03212 0.2076164 0.9416237 -0.2650285
89.86575 287.9842 95.77345 -0.5763087 0.595439 -0.5597506
-39.74206 -288.4822 98.66792 0.3035106 -0.8367618 -0.4557531
63.21548 -66.66655 112.5733 0.852026 0.4617882 0.2465831
-81.77968 -291.3149 81.73996 -0.3174897 -0.9174934 0.2395959
-119.9836 -0.2653556 110.8218 -0.889008 -0.4132967 0.1971054
-126.5873 13.65588 96.68442 -0.9243941 -0.07594808 0.3738014
-110.9783 267.9963 108.6857 -0.4971275 0.3114784 0.8098428
-106.5388 -256.6873 110.554 -0.7550967 -0.0439299 0.6541399
83.06737 -70.73448 40.95104 0.8415669 0.4974077 0.210596
-95.38023 282.1556 118.8175 -0.3839029 -0.1018381 0.9177405
81.8028 -257.8211 142.188 0.2854885 -0.7385227 0.6108032
59.73808 -264.8075 97.9444 -0.3400584 -0.4193479 -0.841729
103.9126 -243.4123 132.5242 0.5203615 -0.02548592 0.8535657
149.1227 -239.3866 82.75859 0.8513198 -0.01141132 0.524523
-4.798826 -290.04 121.2652 0.08450124 -0.9784102 0.1886082
27.94144 -285.2807 110.7755 -0.1176004 -0.6888684 -0.7152835
129.8351 -252.7685 103.0292 0.6587834 -0.4889726 0.5717606
-98.50716 291.6259 110.7012 0.3974207 0.3438017 -0.850798
54.92339 273.3222 122.504 0.3389546 0.1597792 0.9271356
40.72991 290.8517 128.8648 -0.1312559 0.8802682 -0.4559604
52.77406 -288.6953 111.8544 0.01812415 -0.9879682 -0.1535913
-41.1073 266.8267 132.6074 0.1323635 0.7545822 -0.6427174
-47.25768 -180.4148 171.8341 -0.6583396 0.03728601 0.751797
-61.70885 -111.7653 102.5352 -0.943927 -0.3297355 0.01661906
43.4439 279.3227 131.6202 0.2571599 -0.2378211 0.9366482
-84.37511 -111.7529 52.75468 -0.7963187 0.2048335 0.5691394
-26.31573 281.6506 142.076 0.09062458 -0.2367181 0.9673426
83.2879 188.3817 114.4414 0.6534896 0.03256454 0.7562347
101.0411 -159.5503 118.4814 0.6033574 0.1303677 0.7867427
-76.77702 295.7416 130.3363 0.001461394 0.9948324 0.1015201
-1.342549 292.0779 143.1078 0.1344751 0.8676658 0.4786152
1.820074 269.1295 140.7585 0.1483995 0.2598554 0.9541765
28.18997 194.3553 154.2058 0.3757594 0.1027612 0.9210021
-26.00463 292.0377 138.405 0.0685494 0.5235223 -0.8492499
-44.59202 272.0642 139.41 -0.3167871 0.2094224 0.9250882
-23.28947 62.00381 139.6297 0.8739678 0.4306646 0.225185
-91.85046 32.1502 162.5675 -0.6244664 -0.06677717 0.7781918
-37.03857 86.57406 157.6839 0.8263525 -0.1069163 0.5529109
-0.06984484 20.06864 163.4478 0.8083866 0.3856565 0.4447248
-114.1009 195.5413 135.9372 -0.6914548 0.1664812 0.7029752
-53.67078 99.49677 186.7905 0.2126379 0.05337612 0.9756721
3.9071 -267.321 159.1956 0.03418268 -0.7035111 0.7098617
55.40454 -105.8797 147.5174 0.6532291 0.1907548 0.7327375
-11.7562 -255.951 164.9313 -0.1060599 -0.4306448 0.896268
-95.71626 -20.41638 153.7863 -0.8313993 -0.1423431 0.5371348
-16.20222 200.4272 167.6136 0.1147632 0.2899509 0.9501357
-34.03977 -163.6531 175.3413 -0.9035969 -0.368954 0.2176825
-41.86292 88.50438 172.9828 0.8019685 0.09925438 0.589063
-70.27993 -263.5907 142.7544 -0.2545956 -0.696314 0.6710647
-29.57286 -169.9352 182.8853 -0.233689 -0.1694593 0.9574304
43.01303 -253.3348 161.6421 0.2548265 -0.2942692 0.9211239
-7.024263 14.75341 171.4057 0.2352279 -0.0456939 0.9708655
-90.30762 -7.048536 158.1653 -0.3966533 -0.05126725 0.9165358
-39.18267 -126.491 179.6839 -0.180106 0.1389639 0.9737818
-75.37766 206.0694 158.0185 -0.4335534 0.3351757 0.836474
41.22622 113.8129 104.5225 0.6095889 -0.4688578 0.6391977
-73.02306 204.1949 -164.2141 -0.3225718 0.3074796 -0.8952116
155.5784 164.4808 -62.49032 0.8633263 0.04257598 -0.502847
-109.3883 200.9321 -145.4544 -0.6558082 0.2598322 -0.7088038
-131.086 -269.0499 -81.47629 -0.705247 -0.6233438 -0.3377411
-164.2563 194.7274 -67.23853 -0.9545859 0.1369366 -0.2646019
168.17 -112.4327 -55.2537 0.7473095 0.1830744 -0.6387584
-174.2794 188.5679 -10.61763 -0.976124 -0.1365751 0.1689055
134.4537 -283.5315 17.08145 -0.1302544 -0.9782309 -0.161549
-27.89985 -241.5539 9.211986 0.2758624 -0.9561591 -0.09828343
172.9359 -240.3073 21.5556 0.9685373 -0.006199155 0.2487912
-147.082 195.5405 92.81569 -0.8137668 0.1145947 0.569782
-77.56186 -262.3707 49.61267 0.4035445 -0.8246032 -0.3964611
30.81168 -252.0166 79.38042 0.00682009 -0.9219475 -0.3872547
-26.30493 273.516 -101.0632 -0.07168835 0.9960432 0.05252356
42.15851 277.2058 -54.54863 -0.03450026 0.9986604 0.03856153
-83.39763 272.4484 -109.8806 -0.02367564 0.9930863 -0.1149739
-76.05369 268.9017 -93.02917 0.1061891 0.9941896 -0.01763643
87.05475 272.2233 58.85802 0.0974303 0.9909823 0.09198575
-84.62511 274.7272 -33.47581 0.5876563 0.6968424 -0.4111821
-43.28999 274.349 4.619967 0.1888343 0.9167811 0.3519289
107.5787 265.0704 57.26898 -0.452999 0.847028 -0.2780927
-102.4735 271.701 84.45669 -0.06025081 0.9979268 0.02262458
34.03313 268.2928 124.3133 -0.08275224 0.7941651 -0.6020414
71.62954 263.6773 102.8388 -0.4832619 0.4692954 -0.7390668
-39.23148 272.7338 117.573 -0.04769292 0.9791481 0.1974698
78.87215 270.8575 -104.932 -0.3918036 0.8347175 0.3869583
112.8503 270.6457 -54.93866 -0.4307929 0.8842016 0.1805684
21.94418 274.4814 -33.97983 -0.5975273 0.688715 0.4106492
3 14 13 0
3 14 0 1
3 3 0 13
3 9 1 0
3 2 14 1
3 4 3 13
3 5 4 13
3 5 13 17
3 5 49 6
3 7 5 6
3 8 1 9
3 12 9 0
3 218 220 10
3 11 5 7
3 12 0 51
3 17 49 5
3 8 2 1
3 13 14 15
3 18 8 21
3 15 16 13
3 13 16 17
3 8 18 2
3 9 27 8
3 2 18 19
3 223 20 6
3 20 7 6
3 8 29 21
3 21 22 18
3 5 11 26
3 214 23 218
3 14 2 24
3 9 12 25
3 0 3 51
3 26 4 5
3 9 25 27
3 3 4 28
3 34 20 31
3 8 53 29
3 31 30 34
3 20 40 31
3 2 19 32
3 25 12 51
3 223 38 20
3 47 16 15
3 24 33 14
3 34 7 20
3 48 22 21
3 35 21 29
3 31 44 36
3 37 17 16
3 38 223 225
3 19 22 39
3 15 14 33
3 40 20 38
3 44 43 41
3 26 7 34
3 30 31 36
3 42 31 40
3 62 43 44
3 29 53 35
3 44 31 42
3 32 45 2
3 2 45 24
3 27 46 8
3 42 62 44
3 15 33 47
3 32 19 39
3 35 48 21
3 17 37 49
3 45 50 24
3 51 3 28
3 34 30 52
3 34 52 59
3 53 8 46
3 35 54 48
3 38 225 55
3 81 37 16
3 49 37 56
3 38 57 40
3 56 55 225
3 25 58 27
3 220 137 10
3 24 50 33
3 59 26 34
3 25 68 60
3 22 48 61
3 42 40 64
3 58 25 60
3 207 212 66
3 62 42 98
3 80 25 51
3 70 63 61
3 70 61 48
3 57 64 40
3 84 28 4
3 63 65 61
3 38 55 57
3 66 23 207
3 52 30 72
3 61 67 22
3 72 30 36
3 75 35 53
3 25 80 68
3 39 22 67
3 67 61 65
3 63 70 88
3 32 226 45
3 27 73 46
3 69 26 59
3 71 60 68
3 42 64 98
3 70 48 54
3 68 87 71
3 248 72 36
3 58 73 27
3 37 227 56
3 74 45 226
3 52 86 59
3 53 228 75
3 59 86 69
3 228 53 46
3 58 60 73
3 50 45 74
3 67 76 39
3 32 39 226
3 71 73 60
3 80 77 68
3 57 55 101
3 87 92 78
3 70 54 91
3 33 79 47
3 80 28 84
3 16 132 81
3 64 57 101
3 67 65 96
3 90 111 82
3 55 56 227
3 224 26 69
3 33 50 79
3 65 82 83
3 112 79 50
3 224 84 4
3 76 67 96
3 72 85 52
3 86 52 85
3 87 68 77
3 91 88 70
3 16 47 132
3 89 87 78
3 63 88 90
3 91 54 99
3 92 87 121
3 89 93 87
3 93 73 71
3 86 94 69
3 80 84 77
3 75 95 54
3 83 96 65
3 91 97 88
3 98 64 129
3 99 54 95
3 129 64 101
3 93 228 73
3 89 100 228
3 87 77 121
3 94 224 69
3 92 128 78
3 55 122 101
3 79 102 47
3 74 226 109
3 128 103 78
3 86 131 94
3 104 96 83
3 89 228 93
3 85 72 108
3 76 96 104
3 224 77 84
3 94 77 224
3 88 97 105
3 106 76 104
3 95 75 100
3 98 129 107
3 76 109 226
3 249 108 72
3 109 76 106
3 122 55 227
3 91 99 110
3 90 105 111
3 97 91 110
3 131 86 85
3 89 78 115
3 134 112 74
3 132 113 81
3 102 79 125
3 37 81 114
3 160 115 103
3 113 114 81
3 97 110 116
3 231 82 111
3 89 115 117
3 118 83 231
3 119 108 249
3 229 120 227
3 230 110 99
3 121 77 139
3 122 227 120
3 100 123 95
3 148 107 129
3 131 124 94
3 100 89 232
3 139 77 94
3 74 109 134
3 134 125 112
3 216 126 137
3 127 85 108
3 118 104 83
3 138 128 92
3 129 101 148
3 113 132 114
3 116 130 105
3 141 131 85
3 123 100 232
3 132 47 102
3 124 131 141
3 104 118 133
3 108 119 127
3 136 134 109
3 122 135 101
3 136 109 143
3 220 216 137
3 121 139 138
3 94 124 139
3 117 115 160
3 106 104 133
3 111 105 140
3 127 141 85
3 110 230 142
3 120 135 122
3 110 142 116
3 125 134 164
3 143 106 133
3 114 132 150
3 134 136 164
3 144 107 148
3 102 150 132
3 180 232 117
3 125 145 102
3 120 233 146
3 123 147 230
3 233 120 229
3 148 101 135
3 119 243 127
3 116 142 130
3 172 149 114
3 150 102 145
3 124 151 139
3 125 192 152
3 117 160 175
3 23 214 207
3 118 157 133
3 125 152 145
3 232 180 123
3 143 170 136
3 133 170 143
3 141 127 162
3 146 153 135
3 148 135 153
3 154 125 164
3 155 230 147
3 230 155 142
3 124 141 156
3 118 234 157
3 222 128 138
3 141 162 156
3 148 159 144
3 142 155 130
3 151 124 156
3 150 145 158
3 153 159 148
3 160 103 202
3 235 161 140
3 127 167 162
3 152 163 145
3 151 194 138
3 235 140 130
3 167 127 243
3 174 164 136
3 145 163 158
3 204 128 222
3 165 234 161
3 234 165 157
3 159 166 144
3 154 164 174
3 103 128 204
3 243 246 167
3 190 163 152
3 153 146 176
3 157 168 133
3 138 194 222
3 183 147 123
3 151 156 194
3 117 175 169
3 170 133 168
3 171 114 150
3 180 183 123
3 187 155 147
3 172 114 171
3 233 206 173
3 161 235 165
3 190 158 163
3 136 215 174
3 156 185 194
3 150 158 171
3 168 157 165
3 175 160 202
3 178 165 235
3 190 171 158
3 146 173 176
3 159 184 166
3 147 183 177
3 178 155 182
3 202 103 204
3 195 179 117
3 168 181 170
3 155 187 182
3 153 196 159
3 172 233 149
3 182 165 178
3 165 182 168
3 196 153 176
3 181 168 182
3 182 187 181
3 215 170 181
3 183 180 179
3 196 184 159
3 156 191 185
3 186 162 167
3 117 169 205
3 175 205 169
3 186 167 246
3 147 177 187
3 117 205 195
3 245 186 246
3 191 156 162
3 202 205 175
3 184 188 166
3 154 189 125
3 152 213 190
3 200 188 184
3 162 186 191
3 201 176 173
3 196 200 184
3 183 179 177
3 125 216 192
3 216 152 192
3 176 201 193
3 211 233 172
3 194 185 199
3 222 194 207
3 245 188 200
3 186 245 200
3 172 171 211
3 191 186 197
3 191 193 185
3 187 177 181
3 195 126 179
3 216 213 152
3 186 200 197
3 193 198 185
3 176 193 196
3 193 197 196
3 206 221 173
3 212 199 198
3 198 193 201
3 209 195 205
3 194 199 207
3 197 200 196
3 233 203 206
3 191 197 193
3 211 203 233
3 66 212 198
3 221 201 173
3 125 189 216
3 189 174 215
3 211 171 213
3 179 217 177
3 213 171 190
3 154 174 189
3 202 214 205
3 23 206 203
3 202 204 214
3 195 209 10
3 205 218 209
3 66 201 221
3 23 221 206
3 208 210 215
3 195 10 126
3 214 204 207
3 177 217 208
3 209 218 10
3 219 203 211
3 179 126 217
3 216 215 210
3 219 211 220
3 210 208 217
3 199 212 207
3 211 213 216
3 214 218 205
3 216 189 215
3 220 211 216
3 217 126 210
3 218 219 220
3 218 23 219
3 23 66 221
3 219 23 203
3 126 10 137
3 204 222 207
3 11 7 26
3 223 49 225
3 26 224 4
3 6 49 223
3 225 49 56
3 22 19 18
3 44 41 36
3 248 36 41
3 28 80 51
3 75 54 35
3 63 82 65
3 39 76 226
3 249 72 248
3 37 229 227
3 228 46 73
3 121 138 92
3 114 229 37
3 112 50 74
3 95 230 99
3 116 105 97
3 123 230 95
3 234 118 231
3 139 151 138
3 140 231 111
3 232 89 117
3 130 140 105
3 149 233 229
3 161 234 231
3 140 161 231
3 130 178 235
3 155 178 130
3 215 136 170
3 177 208 181
3 181 208 215
3 41 43 236
3 43 238 236
3 62 238 43
3 236 237 41
3 98 238 62
3 238 239 236
3 250 237 236
3 238 98 107
3 239 238 241
3 107 241 238
3 237 240 249
3 107 244 241
3 250 242 240
3 240 237 250
3 242 241 244
3 240 119 249
3 240 243 119
3 242 247 240
3 107 144 244
3 244 247 242
3 144 166 244
3 245 243 240
3 245 246 243
3 188 247 166
3 188 245 247
3 237 248 41
3 249 248 237
3 236 239 250
3 250 239 241
3 241 250 242
3 90 82 63
3 93 71 87
3 100 75 228
3 88 105 90
3 79 112 125
3 115 78 103
3 83 82 231
3 109 106 143
3 120 146 135
3 149 229 114
3 233 173 146
3 179 180 117
3 199 185 198
3 66 198 201
3 126 216 210
3 247 245 240
3 247 244 166
